<svg xmlns="http://www.w3.org/2000/svg" viewBox="0 0 180 50"><defs><style>.cls-1{fill:#1899e1;}.cls-2{fill:#fff;}</style></defs><title>btm1</title><g id="图层_2" data-name="图层 2"><g id="图层_1-2" data-name="图层 1"><path class="cls-1" d="M0,0H155a25,25,0,0,1,25,25v0a25,25,0,0,1-25,25H0a0,0,0,0,1,0,0V0A0,0,0,0,1,0,0Z" transform="translate(180 50) rotate(180)"/><path class="cls-2" d="M60.86,13.24v2.08H40.19V24.4a36.26,36.26,0,0,1-2.3,13.23l-2-1.2A37.39,37.39,0,0,0,38,23.74V13.24ZM43,21.34h5.25q.22-2.08.33-4.48H50.8q-.11,2.41-.33,4.48h9q0,9-.33,11.76A6.88,6.88,0,0,1,58,36.76a3.38,3.38,0,0,1-2.57.88,8.63,8.63,0,0,1-2.73-.44L52.11,35a12.76,12.76,0,0,0,3.28.44q1.09,0,1.31-1.42a76.13,76.13,0,0,0,.44-10.61H50.25a24.31,24.31,0,0,1-2.13,8.37,15.76,15.76,0,0,1-4.87,5.52L41.5,35.77A13.42,13.42,0,0,0,46,31a21.27,21.27,0,0,0,2.08-7.55H43Z"/><path class="cls-2" d="M75.73,12.37H78v3.28h9.3v10H77.92a12.31,12.31,0,0,1-2.3,6.78q5.25,2.52,13.89,2.84l-.66,2.3A35.55,35.55,0,0,1,74,34.13q-3.06,2.4-9,3.39l-.87-2.19a20.22,20.22,0,0,0,7.77-2.52A22.22,22.22,0,0,1,67,28.45l1.75-1.2a16.4,16.4,0,0,0,4.92,4,9.64,9.64,0,0,0,2.08-5.69H66.33v-10h9.41ZM68.52,23.52h7.22v-5.8H68.52Zm9.52,0h7v-5.8H78Z"/><path class="cls-2" d="M92.69,26.26H97a18.63,18.63,0,0,0,.77-1.75l2.08.22-.66,1.53h4.92v1.86a17.8,17.8,0,0,1-3.17,4.81Q102.75,34,104.28,35L103,37a25,25,0,0,0-3.72-2.52,17.3,17.3,0,0,1-6.12,3.17l-.66-1.86a18.15,18.15,0,0,0,4.92-2.3q-1.75-1-3.83-2a39.75,39.75,0,0,0,2.3-3.39H92.69Zm.11-9.19h5.69V12.48h2v4.59h5.25v1.86h-5.25v5h-2V20.57a16.22,16.22,0,0,1-4.37,4.27l-1.42-1.75a14.4,14.4,0,0,0,4.81-4.16H92.8Zm2.63-4.16a12.39,12.39,0,0,1,1.42,3l-1.75.88a19.63,19.63,0,0,0-1.31-3.06Zm2.73,15.2a16.71,16.71,0,0,1-1.64,2.52l2.63,1.31a14.91,14.91,0,0,0,2.62-3.83Zm4.59-8.2a13.64,13.64,0,0,1,2,2.73l-1.64,1a10.06,10.06,0,0,0-1.86-2.84Zm.77-7,1.64.77a10.27,10.27,0,0,1-2.08,2.84l-1.42-1.31A9.57,9.57,0,0,0,103.52,12.91Zm6,4h7.33V19h-1.2q-.66,7.66-3.06,11.59a22.72,22.72,0,0,0,5,4.81L116,37.52a30.27,30.27,0,0,1-4.7-4.92,20.81,20.81,0,0,1-5.36,5l-1.53-2a17.54,17.54,0,0,0,5.47-5.14A44.39,44.39,0,0,1,107,24.62l-.87,1.86-1.75-1.31a49.66,49.66,0,0,0,3.94-12.8l2.19.66Q110.08,15.1,109.53,17ZM113.47,19H109q-.11.55-.77,2.52a37.07,37.07,0,0,0,3,6.78,27.41,27.41,0,0,0,2.08-7.44v-.11Z"/><path class="cls-2" d="M120.36,17h3.39V12.37h2.19V17h2.19V19h-2.19V24.4l2.52-1.2.44,2q-1.42.88-3,1.64v7.66a3.89,3.89,0,0,1-.55,2.41,2.8,2.8,0,0,1-2.19.66,6.45,6.45,0,0,1-2.41-.44l-.44-2.19a7.34,7.34,0,0,0,2.52.44.8.8,0,0,0,.66-.27,1.76,1.76,0,0,0,.22-1V27.79L121,28.88l-.87-2.3,3.61-1.31V19h-3.39Zm17,8.2H132a36.06,36.06,0,0,1-2.3,12.14l-2-1.2a35,35,0,0,0,2.19-12.47V13.46H144.2v6.67h-4.81V23.2h5.8v2h-5.8v3.17h4.7v9.19H142V35.88H134.8v1.64h-2.08V28.34h4.59Zm4.81-9.73H132v2.73h10.17ZM132,20.13V23.2h5.36V20.13Zm2.84,13.78H142V30.3H134.8Z"/></g></g></svg>