<svg xmlns="http://www.w3.org/2000/svg" viewBox="0 0 180 50"><defs><style>.cls-1{fill:#6cf;}.cls-2{fill:#fff;}</style></defs><title>btm2-1</title><g id="图层_2" data-name="图层 2"><g id="图层_1-2" data-name="图层 1"><path class="cls-1" d="M0,0H155a25,25,0,0,1,25,25v0a25,25,0,0,1-25,25H0a0,0,0,0,1,0,0V0A0,0,0,0,1,0,0Z"/><path class="cls-2" d="M42.23,13l1,2q-2,.44-4.27.88V19.8h6.89q-.33-3.39-.33-7.55h2.41q0,4.27.22,7.55h7.77V22H48.25a50.16,50.16,0,0,0,1.31,6.78,32.57,32.57,0,0,0,2.84-5l2.08,1.09a30,30,0,0,1-4,6.67q1.53,3.61,2.41,3.61.33,0,.77-.6a4.38,4.38,0,0,0,.66-1.7l1.86.77q-1,3.94-3.39,3.94-2,0-3.94-4.27a27.12,27.12,0,0,1-6.12,4l-1.09-2A22.36,22.36,0,0,0,47.81,31a37.53,37.53,0,0,1-1.75-9H39v4.38q2.4-.55,4.38-1.2l.44,2.19q-2.3.76-4.81,1.42v5.58a4.13,4.13,0,0,1-.55,2.52,2.8,2.8,0,0,1-2.19.66,15.36,15.36,0,0,1-3.72-.44L32,34.68a14.71,14.71,0,0,0,3.94.55c.51,0,.77-.47.77-1.42V29.32Q34,30,31.19,30.52l-.44-2.41q3.17-.55,5.91-1.09V22H30.75V19.8h5.91V16.2l-4,.66-.87-2.19A83.92,83.92,0,0,0,42.23,13Zm8.86-.22a19.25,19.25,0,0,1,3.5,4.7l-2,1.09a15.35,15.35,0,0,0-3.5-4.48Z"/><path class="cls-2" d="M68.59,16v19.8h-2V34.9h-5v1.64h-2V16H62a20,20,0,0,0,.77-3.61l2.3.44a27.44,27.44,0,0,1-1,3.17Zm-2,8.42V18.05h-5V24.4Zm-5,2.08v6.34h5V26.48Zm12.25-14,2.19.44a26.88,26.88,0,0,1-1.42,4h8.53q0,14.44-1,17.83a3.42,3.42,0,0,1-3.61,2.73,16.09,16.09,0,0,1-3.39-.44l-.55-2.3a28.62,28.62,0,0,0,3.94.44q1.31,0,1.64-1.53.66-3,.66-14.66H73.52a18,18,0,0,1-2.84,3.83L69,21.34A22.19,22.19,0,0,0,73.84,12.48Zm.88,10.83a24.69,24.69,0,0,1,2.73,5.36l-2.08,1a24,24,0,0,0-2.73-5.47Z"/><path class="cls-2" d="M99.11,12.26a11.5,11.5,0,0,1,1.42,2.63h9.73v2h-4.16A18.74,18.74,0,0,1,104.69,20h6.78v2H87.19V20h6.67a25.48,25.48,0,0,0-1.53-3.17H88.39v-2h9.73a8.6,8.6,0,0,0-1.09-2ZM90.36,23.74h17.5V31h-4.7v3.39c0,.22.15.4.44.55a6.94,6.94,0,0,0,2.3.22q2.84,0,3.34-.44t.6-2.84l2.3.66q-.22,3.06-1.09,3.83t-5.14.77a9.74,9.74,0,0,1-3.94-.49,1.68,1.68,0,0,1-.87-1.59V31h-3.5q-1.64,5.47-9.19,6.78l-1.2-2.08q6.56-.88,7.88-4.7h-4.7ZM92.44,29h13.34V25.71H92.44ZM96,20h6.23a30.56,30.56,0,0,0,1.2-3.17H94.73A24.67,24.67,0,0,1,96,20Z"/><path class="cls-2" d="M121.75,12.26l1.86,1.09a22,22,0,0,1-3,4.38,23,23,0,0,1,1.86,9.84,22.61,22.61,0,0,1-.93,7.49q-.93,2.46-2.79,2.46a9.92,9.92,0,0,1-2.73-.55l-.55-2.3a11.05,11.05,0,0,0,3.28.55q.76,0,1.15-1.91a31.73,31.73,0,0,0,.38-5.74,18.22,18.22,0,0,0-.11-2A17.65,17.65,0,0,1,115.63,31l-1.09-2.08a18.54,18.54,0,0,0,5.36-6.45q-.33-1.64-.77-3.06a17.73,17.73,0,0,1-3.28,2.73l-1.31-1.64a19.77,19.77,0,0,0,3.5-3.17,20.16,20.16,0,0,0-3-3.72l1.86-1a20.15,20.15,0,0,1,2.52,3.06A16.51,16.51,0,0,0,121.75,12.26ZM124.38,14h6V12.37h2.08V14h6.67v1.86h-6.67v1.75h5.91v1.86h-5.91v1.75h7.44v1.86H123.5V21.23h6.89V19.48h-5V17.62h5V15.87h-6ZM138,24.84V34.9a2.55,2.55,0,0,1-.71,2,2.88,2.88,0,0,1-2,.66,12,12,0,0,1-2.08-.22l-.44-2.08a18.28,18.28,0,0,0,2.41.22c.51,0,.77-.37.77-1.09v-.77h-8.64v3.94h-2.08V24.84Zm-10.72,3.5H136V26.59h-8.64Zm0,3.5H136V30.09h-8.64Z"/></g></g></svg>