<svg xmlns="http://www.w3.org/2000/svg" viewBox="0 0 172 50"><defs><style>.cls-1{fill:#ff4d4d;}.cls-2{fill:#fff;}</style></defs><title>资源 1</title><g id="图层_2" data-name="图层 2"><g id="图层_1-2" data-name="图层 1"><rect class="cls-1" width="172" height="50"/><path class="cls-2" d="M40.31,14.92V16.7H22.59v7.78a31.08,31.08,0,0,1-2,11.34l-1.69-1a32,32,0,0,0,1.78-10.87v-9ZM25,21.86h4.5q.19-1.78.28-3.84h1.88q-.09,2.06-.28,3.84h7.69q0,7.69-.28,10.08a5.9,5.9,0,0,1-1,3.14,2.89,2.89,0,0,1-2.2.75,7.39,7.39,0,0,1-2.34-.37l-.47-1.87a10.92,10.92,0,0,0,2.81.38q.94,0,1.13-1.22a65.17,65.17,0,0,0,.38-9.09H31.22a20.82,20.82,0,0,1-1.83,7.17,13.51,13.51,0,0,1-4.17,4.73l-1.5-1.31a11.5,11.5,0,0,0,3.84-4.12,18.21,18.21,0,0,0,1.78-6.47H25Z"/><path class="cls-2" d="M53.06,14.17h2V17h8v8.53H54.94a10.55,10.55,0,0,1-2,5.81q4.5,2.16,11.91,2.44l-.56,2a30.46,30.46,0,0,1-12.75-2.91,16.93,16.93,0,0,1-7.69,2.91l-.75-1.87a17.3,17.3,0,0,0,6.66-2.16A19,19,0,0,1,45.56,28l1.5-1a14,14,0,0,0,4.22,3.47,8.26,8.26,0,0,0,1.78-4.87H45V17h8.06Zm-6.19,9.56h6.19v-5H46.88Zm8.16,0h6v-5H55Z"/><path class="cls-2" d="M67.22,21.11h5.06V32l2-2.16L75.47,31a19.13,19.13,0,0,1-3.56,3.56L70.5,33.3V22.8H67.22Zm3.56-6.94a19.76,19.76,0,0,1,2.63,3.94l-1.78,1a16.91,16.91,0,0,0-2.53-3.94Zm5.91.84H87.47v10.5H85.59V24.3H79.22v8.16a.75.75,0,0,0,.47.7,6.41,6.41,0,0,0,2.25.23q3.94,0,4.55-.75t.89-3.75l1.78.47q-.38,4.22-1.78,5.16-.84.75-5.44.75-3.19,0-3.89-.47a1.88,1.88,0,0,1-.7-1.69V22.52h8.25V16.8H76.69Z"/><path class="cls-2" d="M94.69,18.67h12V16.52H93.84V14.73h14.72v7.88h3.84v1.78h-9.09a16.21,16.21,0,0,0,2.91,4,14,14,0,0,0,3.09-2.91l1.59,1.22a16.11,16.11,0,0,1-3.47,2.91,22.32,22.32,0,0,0,5.34,3.28l-1.5,1.88a22.89,22.89,0,0,1-8.53-8v6.56a2.92,2.92,0,0,1-.47,1.92,2.54,2.54,0,0,1-1.87.52,8.53,8.53,0,0,1-2.25-.28l-.37-1.78a10.41,10.41,0,0,0,2.34.28.77.77,0,0,0,.56-.19,1.49,1.49,0,0,0,.19-.94V24.39H91.59V22.61h15.09V20.45h-12Zm5.06,9.75.38,1.78a45.84,45.84,0,0,1-7.59,4.22l-.94-2A34.07,34.07,0,0,0,99.75,28.42Zm-4.31-3.09a12.78,12.78,0,0,1,2.44,2.81l-1.69,1a12.32,12.32,0,0,0-2.34-2.91Z"/><path class="cls-2" d="M125.85,9h29.53a1.23,1.23,0,0,1,1.23,1.23V39.78A1.23,1.23,0,0,1,155.38,41H125.85a1.23,1.23,0,0,1-1.24-1.22V10.23A1.23,1.23,0,0,1,125.85,9Zm15,23.37h0a4.28,4.28,0,0,0,1.48,2.84,4.75,4.75,0,0,0,3.21,1.07,4.56,4.56,0,0,0,3.85-1.87,5.16,5.16,0,0,0,1-3.14,4.74,4.74,0,0,0-1.26-3.43,4.08,4.08,0,0,0-3.07-1.32,4.15,4.15,0,0,0-1.87.45l.43-2.42h5.15V22h-7.21l-1.41,7.41,2.21.31a2.82,2.82,0,0,1,2.11-1,1.94,1.94,0,0,1,1.52.65,2.84,2.84,0,0,1,.6,2,3.21,3.21,0,0,1-.6,2.1,1.88,1.88,0,0,1-2.77.14,2.32,2.32,0,0,1-.68-1.45l-2.71.27ZM136.71,36h0V21.75h-2.22A4.94,4.94,0,0,1,132.77,24a7.53,7.53,0,0,1-2.31,1.31v2.49A9.24,9.24,0,0,0,134,25.76V36Zm-9.63-18.87h27.08v-5.7h-2.43V13.3a1.23,1.23,0,1,1-2.46,0V11.46h-4.12V13.3a1.23,1.23,0,0,1-1.22,1.24,1.25,1.25,0,0,1-1.24-1.24V11.46h-4.13V13.3a1.23,1.23,0,1,1-2.46,0V11.46H132V13.3a1.22,1.22,0,1,1-2.45,0V11.46h-2.43v5.7Zm27.08,1.49H127.08v19.9h27.08V18.64Z"/></g></g></svg>