<svg id="图层_1" data-name="图层 1" xmlns="http://www.w3.org/2000/svg" viewBox="0 0 280.33 277.04"><defs><style>.cls-1{fill:#036eb8;}.cls-2{fill:#004986;}.cls-13,.cls-2{opacity:0.5;}.cls-3{fill:#e60012;}.cls-4{fill:#c30d23;}.cls-5{fill:#c9a063;}.cls-6{fill:#b28247;}.cls-7{fill:#f8b62d;}.cls-8{fill:#dcdddd;}.cls-9{fill:#fff;}.cls-10{fill:#f1cd77;}.cls-11{fill:#fdd695;}.cls-12{fill:#653c08;}.cls-13{fill:#ff935e;}.cls-14{fill:#ef7067;}.cls-15{fill:#facb7b;}.cls-16{fill:#643a00;}.cls-17{fill:#ea5514;}.cls-18{fill:#db6b5d;}.cls-19{fill:#231815;}.cls-20{fill:#f25c5b;}.cls-21{fill:#ec940e;}.cls-22{fill:#ffde94;}.cls-23{fill:#e8a135;}</style></defs><path class="cls-1" d="M251.88,461.93s.54,80.36,59.64,125.05c0,0,11.53-25.59,41.08-18.74a31.82,31.82,0,0,0,29.91-11.17c13-15.14,20.9-33.35,77.48-28.57,0,0-43.21-60.69-102.62-78.82Z" transform="translate(-179.67 -309.94)"/><path class="cls-2" d="M258.57,489.75s-4.76-2.58,5.36,31.13c0,0-11-27-12-59Z" transform="translate(-179.67 -309.94)"/><path class="cls-2" d="M409.43,533.14s-16.9-29.41-66.91-52.6c0,0,45.28,24,58.59,57.1A44.29,44.29,0,0,1,409.43,533.14Z" transform="translate(-179.67 -309.94)"/><path class="cls-2" d="M357.38,449.68s22.06,6.9,40.26,19.33c0,0-22.32-15.07-34.13-12.72,0,0-5.5,1.08.78,11.21l-12.13-16.27Z" transform="translate(-179.67 -309.94)"/><path class="cls-2" d="M345.75,567.18S306.57,537.25,289,503.73c0,0,14.42,41.08,44.09,64.73A31.1,31.1,0,0,1,345.75,567.18Z" transform="translate(-179.67 -309.94)"/><path class="cls-3" d="M349.63,374s20.09,9.47,14.5,44.13c0,0-2.53,19.71-6.76,31.6,0,0,14.87,20,2.44,43.6,0,0,15.32,20-.54,27.21,0,0-15.68,6.67-25.23-10.45,0,0-11.71,2.7-15.86,2.34,0,0,6.85,12.61-6.13,15.5s-20-4.68-21.51-13.69c0,0-37.59-6.49-38.67-52.25,0,0-26.71-1.62-41.64-9.55s-20.86-14.83-20.86-14.83l.1-39.9s15.19,1.39,23.3,10.4l55.77-10.54s50.54,7.66,51.62-5.32Z" transform="translate(-179.67 -309.94)"/><path class="cls-4" d="M193.17,398.23s12.79,2,19.61,9.82a34.59,34.59,0,0,1-1.59,5.54S214.91,404,193.17,398.23Z" transform="translate(-179.67 -309.94)"/><path class="cls-5" d="M225.58,381.2s-1.35,7,2.45,12.68l93-1.69s9.55-12.79,1.8-29.73c0,0,10.91-4.35,6.13-18.38,0,0-5.59-18-25.41-8.47,0,0-4.14-6.85-15.32-10.09s-39.28-2.7-54.42,9c0,0-13.51,11.8-13,23.47,0,0-11.89,2-10.63,17.07C211.15,385.68,220,387.87,225.58,381.2Z" transform="translate(-179.67 -309.94)"/><path class="cls-6" d="M273.32,326.87s-1.26-11.62,9-16.48c0,0,6.72,3.77,6.72,20.75C289,331.14,278.72,335.64,273.32,326.87Z" transform="translate(-179.67 -309.94)"/><path class="cls-7" d="M273.33,326.87s-1.22-12.19,8.65-16.93c0,0,6.49,3.68,6.49,20.24C288.46,330.18,280.71,335,273.33,326.87Z" transform="translate(-179.67 -309.94)"/><path class="cls-8" d="M235.74,359.82s-12.43,5.31-5.72,19.71c9.2,13.67,18.35-6.44,18.35-6.44a12,12,0,0,0-1.18-10.42C243,355.65,235.74,359.82,235.74,359.82Z" transform="translate(-179.67 -309.94)"/><path class="cls-9" d="M236.57,359.76s-11.35,5-5.23,18.74c8.4,13,16.76-6.13,16.76-6.13a11.79,11.79,0,0,0-1.08-9.91C243.23,355.8,236.57,359.76,236.57,359.76Z" transform="translate(-179.67 -309.94)"/><path class="cls-8" d="M267.4,353.3s6.81-10.08,19.76-2.11c11.19,6.88,11,18.85,8.11,22.18-3,3.53-15.23,3.24-22.28-4C266.5,362.61,264.93,358,267.4,353.3Z" transform="translate(-179.67 -309.94)"/><path class="cls-9" d="M267.12,353.63s5.62-9.76,18.46-2c10.51,6.37,10.39,17.81,7.58,20.81-2.4,2.56-13.65,2.36-20.81-3.79C267,364.1,264,359,267.12,353.63Z" transform="translate(-179.67 -309.94)"/><path class="cls-10" d="M212.78,408.05s11.71-25.23,55.86-28.83c0,0,37.84-2.7,51.53,13,0,0-1.62,10.45,9.55,39.28,0,0-9.55,23.06-50.63,25.77,0,0-48.11,8.65-66.31-29.37A26.8,26.8,0,0,1,212.78,408.05Z" transform="translate(-179.67 -309.94)"/><path class="cls-11" d="M212.86,409.33s11.7-24.58,55.82-28.09c0,0,37.81-2.63,51.5,12.64,0,0-1.62,10.18,9.54,38.28,0,0-9.53,23-50.59,25.6,0,0-48.09,7.94-66.27-29.11A25.51,25.51,0,0,1,212.86,409.33Z" transform="translate(-179.67 -309.94)"/><path class="cls-12" d="M234.76,437.06s29.55,24.33,67.57-15.68c0,0-19.28,28.47-40.9,28.29A39,39,0,0,1,234.76,437.06Z" transform="translate(-179.67 -309.94)"/><path class="cls-13" d="M286.35,444.13s12.92,3.19,16-3.15-7.52-12.39-7.52-12.39-13.22,10.18-13.94,14.36Z" transform="translate(-179.67 -309.94)"/><path class="cls-14" d="M286.12,443.55s10.09,2.34,13.33-3.6-4.64-11.36-4.64-11.36-13.25,10.34-13.94,14.36Z" transform="translate(-179.67 -309.94)"/><circle class="cls-15" cx="59.19" cy="100.68" r="8.15"/><circle class="cls-16" cx="59.66" cy="99.51" r="6.98"/><ellipse class="cls-15" cx="100.86" cy="93.47" rx="8.2" ry="8.69"/><circle class="cls-16" cx="101.02" cy="92.14" r="7.37"/><path class="cls-17" d="M316.36,338.27s5.88-2.31,6.78,8.41c.85,10.08-4.71,11.32-4.71,11.32s-7.93,2.05-9.6-7.31C307.26,341.9,316.36,338.27,316.36,338.27Z" transform="translate(-179.67 -309.94)"/><path class="cls-18" d="M316,339.4s5.62-2.18,6.49,7.93c.81,9.5-4.5,10.68-4.5,10.68s-7.59,1.94-9.19-6.89C307.32,342.83,316,339.4,316,339.4Z" transform="translate(-179.67 -309.94)"/><path class="cls-17" d="M220.1,365.89s7.39,4.12,2.39,13.16c0,0-5.88,7.18-8.23-1.83C214.26,377.21,210.89,362.58,220.1,365.89Z" transform="translate(-179.67 -309.94)"/><path class="cls-18" d="M220.53,365.89s6.63,4.12,2.14,13.16c0,0-5.27,7.18-7.38-1.83C215.29,377.21,212.27,362.58,220.53,365.89Z" transform="translate(-179.67 -309.94)"/><circle class="cls-19" cx="59.56" cy="57.71" r="4.46"/><circle class="cls-9" cx="57.17" cy="56.56" r="2.07"/><circle class="cls-9" cx="60.58" cy="58.7" r="1.08"/><circle class="cls-19" cx="96.31" cy="48.75" r="5.64"/><circle class="cls-9" cx="93.29" cy="47.3" r="2.62"/><circle class="cls-9" cx="97.6" cy="50" r="1.37"/><path class="cls-6" d="M218.91,328.41s-.79,14.13,6.3,20.18c0,0,14-1.6,11.69-11.63C236.91,337,230.26,328.1,218.91,328.41Z" transform="translate(-179.67 -309.94)"/><path class="cls-7" d="M218.91,328.41s-.9,13.69,6.31,20.18c0,0,12.43-2.16,10.27-11.89C235.49,336.7,229.36,328.11,218.91,328.41Z" transform="translate(-179.67 -309.94)"/><path class="cls-4" d="M294.54,513.06a46.34,46.34,0,0,1-26-10.42,52.88,52.88,0,0,0,22,11.54s.61,4.21,2.4,6.7C292.95,520.88,288.19,513.33,294.54,513.06Z" transform="translate(-179.67 -309.94)"/><path class="cls-4" d="M314.95,511.16s11.22,2.3,21.22-3.92a6.61,6.61,0,0,0,1.06,7.41A13.6,13.6,0,0,1,334,510s-9.37,2.34-15.86,2.34c0,0,2.24,4.76,1.8,7.3C320,519.68,319.41,513.33,314.95,511.16Z" transform="translate(-179.67 -309.94)"/><path class="cls-4" d="M364.29,479.95s-2.85,10.94-8,15c0,0,3.21-1.95,6.81,3.62a26.77,26.77,0,0,0-3.29-5.29A35.06,35.06,0,0,0,364.29,479.95Z" transform="translate(-179.67 -309.94)"/><path class="cls-4" d="M251.88,461.93s7.35.59,11.89.86c0,0-12.7-1.38-11,9A78.78,78.78,0,0,1,251.88,461.93Z" transform="translate(-179.67 -309.94)"/><path class="cls-6" d="M322.88,362.46s-4.75,1.06-8.13-.49c0,0,9,1.8,10.75,9A27,27,0,0,0,322.88,362.46Z" transform="translate(-179.67 -309.94)"/><path class="cls-20" d="M294.75,439.2s-3.81.74-7.61-4l1.41-1.3A7.67,7.67,0,0,0,294.75,439.2Z" transform="translate(-179.67 -309.94)"/><path class="cls-4" d="M357.38,449.68s-2.7,7.48-7.29,12.25a40.27,40.27,0,0,0,7.29-7s1.81-2.92,5.5,6.38A39.55,39.55,0,0,0,357.38,449.68Z" transform="translate(-179.67 -309.94)"/><path class="cls-4" d="M329.72,431.48s-11.35,32.95-78,25.31c0,0,6.87,5.2,29.84,3.56,26.38-1.88,38.09-14.86,40.92-17.3,7.26-6.25,10.37-2.47,12.48,1Z" transform="translate(-179.67 -309.94)"/><polygon class="cls-9" points="94.71 173.71 104.4 157.06 133.42 151.75 144.82 159.71 134.76 189.46 94.71 173.71"/><path class="cls-21" d="M315,500.86a1.28,1.28,0,0,1-1.07.06l-40.63-15.84a1.23,1.23,0,0,1-.68-1.91l10.44-16.71a1.61,1.61,0,0,1,1.11-.66L311.65,461a4.66,4.66,0,0,1,2.57.47l12.68,7.23a1.11,1.11,0,0,1,.54,1.19L315.9,499.53A2.92,2.92,0,0,1,315,500.86Zm-38-18.08,37.38,15,10.81-28.16-10.94-7.22-29.14,5.53Z" transform="translate(-179.67 -309.94)"/><path class="cls-7" d="M315,500.86a1.28,1.28,0,0,1-1.07.06L273.3,485.09a1.26,1.26,0,0,1-.66-1.91l10-16.65a1.53,1.53,0,0,1,1.06-.66l28.94-5.06a1.37,1.37,0,0,1,1,.25l11.28,7.89a1.13,1.13,0,0,1,.52,1.19L315.75,500A1.5,1.5,0,0,1,315,500.86Zm-38.2-18.06,36.75,14.6,9.7-27.57L313,462.67,285.19,468Z" transform="translate(-179.67 -309.94)"/><path class="cls-3" d="M303.72,464.93l2.22,5,7.11-1.7a1.22,1.22,0,0,0,.84-.64l.36-.66,1.93,1.31-.44.77a1.61,1.61,0,0,1-1.08.76l-7.9,2,3,6.67,9.35-3a1.24,1.24,0,0,0,.83-.75l.31-.74,2,1.33-.39.86a1.65,1.65,0,0,1-1,.88l-10.14,3.43,4.43,10-5.94,2.61-4.33-10.63-16.89,5.72-.78-2.53,16.79-5.35-2.87-7L294.33,475c-.87,3.84-3.77,6.71-8,8.06a24.08,24.08,0,0,0,1-13.38l6.79-.51a14.33,14.33,0,0,1,.46,3.52l5.66-1.36L298.07,466Z" transform="translate(-179.67 -309.94)"/><path class="cls-20" d="M294.81,428.59s4.46,3,5.25,6.94c0,0-1.47-4.51-5.25-5.82,0,0-.44-.43-3.87,2.06A32.71,32.71,0,0,1,294.81,428.59Z" transform="translate(-179.67 -309.94)"/><path class="cls-4" d="M359,390.71s-.17-6.48,3.07,0c0,0,4,10.79,2.07,27.37,0,0,6.49-32.34-14.5-44.13A30,30,0,0,1,359,390.71Z" transform="translate(-179.67 -309.94)"/><ellipse class="cls-22" cx="339.54" cy="394.24" rx="23.13" ry="19.49" transform="translate(-276.52 367.64) rotate(-82.26)"/><ellipse class="cls-7" cx="338.55" cy="395.08" rx="22.17" ry="18.62" transform="translate(-278.21 367.38) rotate(-82.26)"/><path class="cls-23" d="M320.17,392.19s-2.5,24.43,22.4,24.24C342.57,416.43,318.19,421.8,320.17,392.19Z" transform="translate(-179.67 -309.94)"/><path class="cls-4" d="M184.5,433.4s3.82,8.34,28.9,20.49c0,0-16.88-9.47-20.12-13.26,0,0-1.35-1.22,2-2a7.53,7.53,0,0,0,4.61-4.13Z" transform="translate(-179.67 -309.94)"/><ellipse class="cls-22" cx="191.66" cy="418.08" rx="11.86" ry="20.54" transform="translate(-222.91 -287.26) rotate(-6.09)"/><ellipse class="cls-7" cx="191.19" cy="419.09" rx="11.28" ry="19.59" transform="translate(-223.02 -287.31) rotate(-6.09)"/><path class="cls-23" d="M180.88,425.25s6.56,17.58,17.88,9.89c0,0-4.54,6.62-11.13,1.62C187.64,436.76,183.28,434,180.88,425.25Z" transform="translate(-179.67 -309.94)"/></svg>