<svg xmlns="http://www.w3.org/2000/svg" viewBox="0 0 41.84 68.12"><defs><style>.cls-1{opacity:0.1;}.cls-2{fill:#fff;}</style></defs><title>0</title><g id="图层_2" data-name="图层 2"><g id="图层_1-2" data-name="图层 1"><g class="cls-1"><path class="cls-2" d="M41.84,34q0,17.62-5.12,25.86t-15.8,8.24q-10.81,0-15.86-8.39T0,34.1Q0,16.39,5.12,8.2T20.92,0Q31.73,0,36.78,8.48T41.84,34ZM30.59,54a32.14,32.14,0,0,0,1.8-8.22A112.93,112.93,0,0,0,32.92,34a112.43,112.43,0,0,0-.53-11.69,31.45,31.45,0,0,0-1.85-8.26A11.39,11.39,0,0,0,26.92,9a9.72,9.72,0,0,0-6-1.74,9.83,9.83,0,0,0-6,1.74,11.48,11.48,0,0,0-3.71,5.16,31.34,31.34,0,0,0-1.8,8.44q-.48,5.1-.48,11.51,0,6.86.42,11.47a30.56,30.56,0,0,0,1.82,8.26A11.53,11.53,0,0,0,14.79,59a9.72,9.72,0,0,0,6.13,1.82,9.83,9.83,0,0,0,6-1.74A11.2,11.2,0,0,0,30.59,54Z"/></g></g></g></svg>