<svg xmlns="http://www.w3.org/2000/svg" viewBox="0 0 40.39 66.8"><defs><style>.cls-1{opacity:0.1;}.cls-2{fill:#fff;}</style></defs><title>2</title><g id="图层_2" data-name="图层 2"><g id="图层_1-2" data-name="图层 1"><g class="cls-1"><path class="cls-2" d="M40.39,66.8H0V57.61q4.35-4.13,8.22-7.91t7.56-7.87Q23.25,33.62,26,28.67A20.91,20.91,0,0,0,28.7,18.46a12.43,12.43,0,0,0-.86-4.79,9.48,9.48,0,0,0-2.35-3.43,10.34,10.34,0,0,0-3.56-2,14.25,14.25,0,0,0-4.44-.66,19.59,19.59,0,0,0-4.72.59A35,35,0,0,0,8.17,9.67a23.92,23.92,0,0,0-3.56,1.8q-1.71,1.05-2.77,1.8H1.36V4A41.53,41.53,0,0,1,8.94,1.3,35.75,35.75,0,0,1,18.15,0q9.14,0,14.33,4.86T37.66,18a26.43,26.43,0,0,1-.9,7.08,26.14,26.14,0,0,1-2.48,6,41.86,41.86,0,0,1-3.91,5.67q-2.29,2.81-4.83,5.54-4.13,4.48-9.21,9.32T8.22,59.28H40.39Z"/></g></g></g></svg>