<svg xmlns="http://www.w3.org/2000/svg" viewBox="0 0 39.77 68.16"><defs><style>.cls-1{opacity:0.1;}.cls-2{fill:#fff;}</style></defs><title>3</title><g id="图层_2" data-name="图层 2"><g id="图层_1-2" data-name="图层 1"><g class="cls-1"><path class="cls-2" d="M18.19,7.6a20.24,20.24,0,0,0-4.75.57A33.14,33.14,0,0,0,8.79,9.67a26,26,0,0,0-3.67,1.85q-1.56,1-2.79,1.8H1.8V4A35,35,0,0,1,9.56,1.25,37.71,37.71,0,0,1,18.9,0a29.79,29.79,0,0,1,7.76.9,18.93,18.93,0,0,1,6,2.79A13.82,13.82,0,0,1,37,8.79a15.62,15.62,0,0,1,1.47,7,14,14,0,0,1-3.56,9.49,15.56,15.56,0,0,1-8.53,5.19v.62a23.2,23.2,0,0,1,4.42,1.36,14.45,14.45,0,0,1,4.37,2.86,14.23,14.23,0,0,1,3.3,4.86,18.3,18.3,0,0,1,1.27,7.23,21.35,21.35,0,0,1-1.52,8.15A20.44,20.44,0,0,1,34,62.09a18.5,18.5,0,0,1-6.9,4.53,25.69,25.69,0,0,1-9.18,1.54A40.78,40.78,0,0,1,8.13,67,38.3,38.3,0,0,1,0,64.12V54.84H.62A33.9,33.9,0,0,0,8,58.71a25.12,25.12,0,0,0,9.32,1.85,17.74,17.74,0,0,0,5.38-.86,10.27,10.27,0,0,0,4.5-2.79,13.93,13.93,0,0,0,2.68-4.26,16.13,16.13,0,0,0,.92-5.89,14.26,14.26,0,0,0-1-5.84,8.73,8.73,0,0,0-2.88-3.6,11.2,11.2,0,0,0-4.37-1.82A28,28,0,0,0,17.09,35H13.36V27.69h2.9a15.55,15.55,0,0,0,9.65-2.81q3.71-2.81,3.71-8.17a8.76,8.76,0,0,0-1-4.24,8.17,8.17,0,0,0-2.46-2.83A10.37,10.37,0,0,0,22.5,8,20.27,20.27,0,0,0,18.19,7.6Z"/></g></g></g></svg>