<svg xmlns="http://www.w3.org/2000/svg" viewBox="0 0 38.98 66.8"><defs><style>.cls-1{opacity:0.1;}.cls-2{fill:#fff;}</style></defs><title>5</title><g id="图层_2" data-name="图层 2"><g id="图层_1-2" data-name="图层 1"><g class="cls-1"><path class="cls-2" d="M39,44.6a24.84,24.84,0,0,1-1.52,8.79,21,21,0,0,1-4.24,7,19.41,19.41,0,0,1-6.88,4.7,23.71,23.71,0,0,1-9.21,1.71,41.64,41.64,0,0,1-9.25-1A34.91,34.91,0,0,1,0,63.06V53.79H.62a20.42,20.42,0,0,0,2.9,1.69,39.93,39.93,0,0,0,4.17,1.78,44.63,44.63,0,0,0,4.75,1.43,21.2,21.2,0,0,0,4.83.51,14.43,14.43,0,0,0,5.14-.95,10.44,10.44,0,0,0,4.31-3.05,13.57,13.57,0,0,0,2.48-4.53,19.52,19.52,0,0,0,.86-6.11,14.82,14.82,0,0,0-.94-5.71,9.28,9.28,0,0,0-2.75-3.69,10.81,10.81,0,0,0-4.64-2.35,25.5,25.5,0,0,0-6.13-.68,47.47,47.47,0,0,0-7.16.55q-3.6.55-5.76,1V0h35.9V7.69H11.16v17.4q1.58-.18,3.12-.26t2.81-.09a36.85,36.85,0,0,1,8.48.83,18.12,18.12,0,0,1,6.68,3.25,16.31,16.31,0,0,1,5,6.15A22.76,22.76,0,0,1,39,44.6Z"/></g></g></g></svg>