<svg xmlns="http://www.w3.org/2000/svg" viewBox="0 0 42.45 68.03"><defs><style>.cls-1{opacity:0.1;}.cls-2{fill:#fff;}</style></defs><title>6</title><g id="图层_2" data-name="图层 2"><g id="图层_1-2" data-name="图层 1"><g class="cls-1"><path class="cls-2" d="M42.45,45.44a25.32,25.32,0,0,1-1.67,9.32,20.83,20.83,0,0,1-4.48,7.12,20.23,20.23,0,0,1-6.59,4.59,20.25,20.25,0,0,1-8,1.56,21,21,0,0,1-8.06-1.49,18.24,18.24,0,0,1-6.39-4.44,24.39,24.39,0,0,1-5.3-9.51A48.47,48.47,0,0,1,0,37.92a62.27,62.27,0,0,1,1.76-15.4,35.41,35.41,0,0,1,5.41-12,24.51,24.51,0,0,1,9.18-7.76A28.91,28.91,0,0,1,29.36,0a35.48,35.48,0,0,1,4.09.22,16.71,16.71,0,0,1,3.34.7V9.32h-.4A14.39,14.39,0,0,0,33,8.11a20.08,20.08,0,0,0-4.79-.55A17,17,0,0,0,15,13.07q-5,5.52-6,16.37a27.06,27.06,0,0,1,6.42-3.38,21.13,21.13,0,0,1,7.21-1.19,26.15,26.15,0,0,1,6.7.77,18,18,0,0,1,6,3.1,16.56,16.56,0,0,1,5.36,6.9A25.13,25.13,0,0,1,42.45,45.44Zm-8.92.35A18.87,18.87,0,0,0,32.48,39,11.12,11.12,0,0,0,29,34.37a8.78,8.78,0,0,0-3.89-1.85,22.47,22.47,0,0,0-4.46-.44,19.59,19.59,0,0,0-6,.92A25.18,25.18,0,0,0,9,35.68q-.09,1-.13,1.87t0,2.26a36.86,36.86,0,0,0,1.34,11,17,17,0,0,0,3.32,6.33A11.26,11.26,0,0,0,17.38,60a11.12,11.12,0,0,0,4.33.83,10.77,10.77,0,0,0,8.55-3.78Q33.53,53.31,33.53,45.79Z"/></g></g></g></svg>