<svg xmlns="http://www.w3.org/2000/svg" viewBox="0 0 42.63 68.42"><defs><style>.cls-1{opacity:0.1;}.cls-2{fill:#fff;}</style></defs><title>8</title><g id="图层_2" data-name="图层 2"><g id="图层_1-2" data-name="图层 1"><g class="cls-1"><path class="cls-2" d="M21.31,68.42A25.88,25.88,0,0,1,12.44,67,18.9,18.9,0,0,1,5.63,62.8a17.27,17.27,0,0,1-4.2-6.26A20.71,20.71,0,0,1,0,48.87a17.86,17.86,0,0,1,2.83-9.78A19.69,19.69,0,0,1,11.07,32v-.26a22,22,0,0,1-7.16-6.15,14.25,14.25,0,0,1-2.33-8.35A15.73,15.73,0,0,1,7.16,4.92Q12.74,0,21.31,0q8.92,0,14.3,4.68a15.16,15.16,0,0,1,5.38,12,16.83,16.83,0,0,1-2.57,8.7A17.49,17.49,0,0,1,31,32.08v.26a23,23,0,0,1,8.66,6.5,15.67,15.67,0,0,1,2.94,9.84,18.44,18.44,0,0,1-6.09,14.06A21.48,21.48,0,0,1,21.31,68.42Zm12.3-18.9A11.43,11.43,0,0,0,32,43.11q-1.58-2.37-6.11-4.83a32.76,32.76,0,0,0-4-1.8q-2.48-1-5.6-2.29a16.76,16.76,0,0,0-5.58,6,16.54,16.54,0,0,0-1.93,8.06A13.86,13.86,0,0,0,12.42,58a11.73,11.73,0,0,0,9,3.87,12,12,0,0,0,8.88-3.32Q33.62,55.24,33.62,49.53ZM32.39,16.74A10,10,0,0,0,29.44,9.4Q26.5,6.46,21.27,6.46A11.58,11.58,0,0,0,13.42,9.1a8.92,8.92,0,0,0-3.05,7.12,9.38,9.38,0,0,0,1.56,5.49,14.23,14.23,0,0,0,4.68,4q1.36.75,4.15,2.07a44.13,44.13,0,0,0,5.08,2.07,16.22,16.22,0,0,0,5.19-6A17.49,17.49,0,0,0,32.39,16.74Z"/></g></g></g></svg>