<svg xmlns="http://www.w3.org/2000/svg" viewBox="0 0 42.45 68.03"><defs><style>.cls-1{opacity:0.1;}.cls-2{fill:#fff;}</style></defs><title>9</title><g id="图层_2" data-name="图层 2"><g id="图层_1-2" data-name="图层 1"><g class="cls-1"><path class="cls-2" d="M0,22.59a24.93,24.93,0,0,1,1.65-9.23,22.35,22.35,0,0,1,4.5-7.21,18.91,18.91,0,0,1,6.66-4.53,20.7,20.7,0,0,1,8-1.63A21.28,21.28,0,0,1,29,1.52a18.07,18.07,0,0,1,6.35,4.37,24.44,24.44,0,0,1,5.25,9.45A49.31,49.31,0,0,1,42.45,30.1a63.17,63.17,0,0,1-1.82,15.4,33.8,33.8,0,0,1-5.38,12.06,25.66,25.66,0,0,1-9.07,7.78A28.77,28.77,0,0,1,13.1,68q-1.76,0-3.74-.2a18.94,18.94,0,0,1-3.69-.72V58.71h.44A14.5,14.5,0,0,0,9.54,59.9a19.85,19.85,0,0,0,4.75.57q8.61,0,13.54-5.67T33.4,38.58a29.09,29.09,0,0,1-6.7,3.47,21.11,21.11,0,0,1-6.92,1.1,25.92,25.92,0,0,1-6.64-.79,17.55,17.55,0,0,1-6-3.08A17,17,0,0,1,1.8,32.5,24.59,24.59,0,0,1,0,22.59Zm33.62,5.63a39.63,39.63,0,0,0-1.23-10.88A15.8,15.8,0,0,0,29,10.85,11,11,0,0,0,25.09,8a11.61,11.61,0,0,0-4.35-.79A10.62,10.62,0,0,0,12.13,11Q8.92,14.9,8.92,22.24A18.79,18.79,0,0,0,10,29a11.17,11.17,0,0,0,3.43,4.61,8.91,8.91,0,0,0,3.78,1.82,21.16,21.16,0,0,0,4.53.46,20.92,20.92,0,0,0,6.06-1,21.07,21.07,0,0,0,5.67-2.61q0-.66.11-1.74T33.62,28.21Z"/></g></g></g></svg>