<svg xmlns="http://www.w3.org/2000/svg" viewBox="0 0 580 220"><defs><style>.cls-1{fill:#fff;}.cls-2{opacity:0.5;}</style></defs><title>资源 4</title><g id="图层_2" data-name="图层 2"><g id="图层_1-2" data-name="图层 1"><path class="cls-1" d="M290,91l-5.32,39.52H272.41L267.08,91h8.45l3,27.61,3-27.61Z"/><path class="cls-1" d="M291.14,114.74H299v9.07q0,1.35,1.64,1.35t1.58-1.35v-4.68q0-2.15-2.87-5a77.36,77.36,0,0,1-6.89-7.22,6.71,6.71,0,0,1-1.35-4.05V98.37q0-7.69,10-7.69,9,0,9,7v6.83H302.3V97.24q0-1.18-1.32-1.18-1.55,0-1.55,2.29l.17,2.56q0,2.2,2.93,5.13a67,67,0,0,1,6.92,7.27,7.86,7.86,0,0,1,1.48,4.68v5q0,7.88-10.07,7.88-9.71,0-9.71-7.16Z"/><g class="cls-2"><path d="M255.37,103.87a35.17,35.17,0,0,1,69.26,0H580V16A16,16,0,0,0,564,0H16A16,16,0,0,0,0,16v87.87Z"/><path d="M324.63,116.13a35.17,35.17,0,0,1-69.26,0H0V204a16,16,0,0,0,16,16H564a16,16,0,0,0,16-16V116.13Z"/></g></g></g></svg>