<svg xmlns="http://www.w3.org/2000/svg" xmlns:xlink="http://www.w3.org/1999/xlink" viewBox="0 0 181.4 181.4">
    <filter id="colorMatrix">
        <feColorMatrix in="SourceGraphic" type="matrix" values="0 0 0 0 0
            0 1 0 0 0
            0 0 1 0 0 
            0 0 0 1 0"/>
    </filter>
    <defs>
        <style>
        .cls-1 {
            fill: #600;
        }
        
        .cls-2 {
            fill: url(#未命名的渐变_18);
        }
        
        .cls-3 {
            fill: url(#未命名的渐变_10);
        }
        
        .cls-4 {
            fill: #fff;
        }
        </style>
        <linearGradient id="未命名的渐变_18" x1="1.01" y1="85.41" x2="180.9" y2="85.41" gradientUnits="userSpaceOnUse">
            <stop offset="0" stop-color="#e60012" />
            <stop offset="0.08" stop-color="#db0015" />
            <stop offset="0.3" stop-color="#c0001b" />
            <stop offset="0.52" stop-color="#ad001f" />
            <stop offset="0.75" stop-color="#a20022" />
            <stop offset="1" stop-color="#9e0023" />
        </linearGradient>
        <linearGradient id="未命名的渐变_10" x1="90.7" y1="2.07" x2="90.7" y2="88.26" gradientUnits="userSpaceOnUse">
            <stop offset="0" stop-color="#fff" stop-opacity="0.6" />
            <stop offset="1" stop-color="#fff" stop-opacity="0" />
        </linearGradient>
    </defs>
    <title>资源 1</title>
    <g id="图层_2" data-name="图层 2" filter="url(#colorMatrix)">
        <g id="图层_1-2" data-name="图层 1">
            <circle class="cls-1" cx="90.7" cy="90.7" r="90.7" />
            <ellipse class="cls-2" cx="90.7" cy="85.41" rx="90.7" ry="85.41" />
            <path class="cls-3" d="M178.2,80.36C175.43,37.12,137.32,2.85,90.7,2.85S6,37.12,3.2,80.36Z" />
            <path class="cls-4" d="M40.23,59.21A92.91,92.91,0,0,1,57.36,72.81l-7.05,8.57A89.33,89.33,0,0,0,33.18,66.26ZM49.3,91l8.57,6a243.25,243.25,0,0,1-14.61,45.86L33.18,135.8A245.07,245.07,0,0,0,49.3,91ZM43.76,29A174.8,174.8,0,0,1,59.88,43.08l-8.06,8.06A91.08,91.08,0,0,0,36.2,34.52Zm16.63,3H92.64V68.28H72.48V86.92H94.15q0,39.3-3,46.86T79,141.34a52.24,52.24,0,0,1-11.59-1.51l-2-9.57A66.43,66.43,0,0,0,78,131.77q3.52,0,4.79-5.29T84.57,96H62.91V59.21H83.06V41.07H60.39Zm42.83-4h8.57V73.32h37.29v9.57H127.4q6,32.25,23.68,45.86l-5,9.57q-20.16-16.12-27.21-55.43h-7.05v47.37a75.62,75.62,0,0,0,12.6-8.57l3.53,7.05a111.69,111.69,0,0,1-19.15,12.6l-5.54-5.54V82.89H94.15V73.32h9.07Zm29.23,2.52,8.57,3q-6.55,21.16-17.64,35.78l-8.06-5A118.54,118.54,0,0,0,132.44,30.49Z" />
        </g>
    </g>
</svg>
