<svg xmlns="http://www.w3.org/2000/svg" viewBox="0 0 580 222.74"><defs><style>.cls-1{opacity:0.5;}.cls-2{opacity:0.3;}</style></defs><title>资源 3</title><g id="图层_2" data-name="图层 2"><g id="图层_1-2" data-name="图层 1"><path class="cls-1" d="M468.63,0a110.93,110.93,0,0,0-74.06,28.21A137.28,137.28,0,0,1,290,76.39,137.28,137.28,0,0,1,185.39,28.16a111.37,111.37,0,1,0,0,166.41,137.58,137.58,0,0,1,209.19,0A111.36,111.36,0,1,0,468.63,0Z"/><path class="cls-2" d="M111.37,6.25a110.94,110.94,0,0,1,74,28.16A137.28,137.28,0,0,0,290,82.64,137.27,137.27,0,0,0,394.57,34.46,111.35,111.35,0,0,1,580,114.5c0-1,0-2.08,0-3.13A111.36,111.36,0,0,0,394.57,28.21,137.28,137.28,0,0,1,290,76.39,137.28,137.28,0,0,1,185.39,28.16,111.36,111.36,0,0,0,0,111.37c0,1,0,2.09,0,3.13A111.37,111.37,0,0,1,111.37,6.25Z"/></g></g></svg>