<svg xmlns="http://www.w3.org/2000/svg" viewBox="0 0 32.62 32"><defs><style>.cls-1{fill:#fff;opacity:0.2;}</style></defs><title>资源 13</title><g id="图层_2" data-name="图层 2"><g id="图层_1-2" data-name="图层 1"><path class="cls-1" d="M15.36,29a1.8,1.8,0,0,0,0,2.51,1.77,1.77,0,0,0,2.52,0l14.23-14.2a1.83,1.83,0,0,0,0-2.54L17.89.52a1.79,1.79,0,0,0-2.52,0,1.81,1.81,0,0,0,0,2.52L28.33,16l-13,13Z"/><path class="cls-1" d="M.51,29a1.8,1.8,0,0,0,0,2.51,1.77,1.77,0,0,0,2.52,0l14.23-14.2a1.83,1.83,0,0,0,0-2.54L3,.52A1.79,1.79,0,0,0,.51.52,1.81,1.81,0,0,0,.51,3L13.48,16,.51,29Z"/></g></g></svg>