<svg xmlns="http://www.w3.org/2000/svg" viewBox="0 0 150 60"><defs><style>.cls-1{opacity:0.3;}.cls-2{fill:#ffa64d;}</style></defs><title>资源 10</title><g id="图层_2" data-name="图层 2"><g id="图层_1-2" data-name="图层 1"><path class="cls-1" d="M12,0H138a12,12,0,0,1,12,12V60a0,0,0,0,1,0,0H0a0,0,0,0,1,0,0V12A12,12,0,0,1,12,0Z"/><path class="cls-2" d="M18.08,33.45,20.82,33q2-.33,3.06-.44V27.65h-5.8V25.79h5.8V21.63a43.4,43.4,0,0,1-4.59.66q-.22-1-.55-2.08A108.69,108.69,0,0,0,29.9,18.68l.66,2a.85.85,0,0,0-.33.11q-2.73.44-4.27.66v4.38h6.78q-.22-4.27-.33-7.87h2.08q0,3,.33,7.88h9.73v1.86H34.93A59.1,59.1,0,0,0,36,34.87a22.76,22.76,0,0,0,5.14-5.8L43,30.28a36.1,36.1,0,0,1-6.34,6.67Q38,40,39.41,40.88q1.86,1.31,2.3-.33a28.91,28.91,0,0,0,.77-4.27l2.08.77q-.33,1.86-.87,3.83-.66,2.63-2.84,2.73t-4.27-2.73A7.41,7.41,0,0,1,35,38.37a36.1,36.1,0,0,1-6.23,3.72,9.08,9.08,0,0,0-1.31-1.75,37.23,37.23,0,0,0,6.89-4,34.63,34.63,0,0,1-1.53-8.64H26v4.48q3-.55,5.47-1a15.92,15.92,0,0,0,.11,2q-1.2.33-5.58,1.09V40q.11,3.17-3.61,3.39H19.51a9.7,9.7,0,0,0-.44-2.19h1.2q1.31.11,2,.11,1.75.11,1.64-1.42V34.65q-1.64.33-4.37.77a3.55,3.55,0,0,1-.87.22ZM36.68,20.21,38.1,18.9q2.84,2.19,4.7,3.94l-1.53,1.53Q40.18,23.28,36.68,20.21Z"/><path class="cls-2" d="M47.29,22.18h2.63a38.69,38.69,0,0,0,1.64-4.37l2.3.66q-.33.66-1,2.08-.55,1.09-.77,1.64h5.36V43.07h-2V41H49.37v2.3H47.29Zm2.08,2V30.6h6.13V24.15Zm0,8.42v6.67h6.13V32.57Zm8.53-5a44.92,44.92,0,0,0,4.16-9.73l2.3.55-.33,1q-.33.88-1.09,2.84h8.53Q71.13,35.63,71,38.59q-.11,4.81-5.36,4.59-1.09,0-2.73.11H61.62Q61.4,42,61.18,41h1.2q2.08.11,3.39.11,3.06.22,3.17-3t.33-14H62.16a7.38,7.38,0,0,0-.55,1.09,32.07,32.07,0,0,1-1.86,3.5Q59,28.2,57.9,27.54Zm2.3,1.86,1.64-1.2q3.06,3.72,4.7,6l-2,1.42Q62.6,32.68,60.19,29.4Z"/><path class="cls-2" d="M83.16,37.28q0,1.09.11,2.3a55.36,55.36,0,0,0-5.36,3.72l-1.2-1.86a2.36,2.36,0,0,0,.88-2.19V29H74.19V27h5.47V39.68A18.91,18.91,0,0,0,83.16,37.28Zm-5-19q2,2,4.16,4.38l-1.86,1.53a40.46,40.46,0,0,0-3.94-4.48Zm8.2,12.14v8.2q-.22,2.41,2.52,2.19h5.8q3.06.11,3.06-1.64A27.71,27.71,0,0,0,98.26,35a4.09,4.09,0,0,0,.55.22,9.86,9.86,0,0,0,1.75.55A38.51,38.51,0,0,1,99.79,40q-.66,2.84-4.59,2.73h-7Q84,43.07,84.37,39V28.42H96.51V21.2H84v-2H98.58V30.38Z"/><path class="cls-2" d="M102.19,39.24q4.59-1.53,11.16-4.16l.44,2q-6,2.19-10.83,4ZM124.94,31l1.42,1.75q-.77.55-3.17,2l-2.52,1.53q2.52,2.19,7.87,3.5a8.55,8.55,0,0,0-1.42,2q-7.55-2.19-10.72-7.44v5q.22,3.94-3.83,3.83h-3.06a8.27,8.27,0,0,0-.44-2.19q1.31.11,3.39.11t2-1.86V30.17H102.52V28.42H122.1V25.57H105.8V23.82h16.3V21H105.37V19.23h18.81v9.19h4.16v1.75H116.41V31A21,21,0,0,0,119.26,35Q122.54,32.79,124.94,31Zm-19.14-.22a11.74,11.74,0,0,0,1.2.77q2.41,1.53,3.94,2.62L109.74,36q-1.2-.87-3.28-2.3-1.2-.87-1.86-1.31Z"/></g></g></svg>