<svg xmlns="http://www.w3.org/2000/svg" viewBox="0 0 150 60"><defs><style>.cls-1{opacity:0.6;}.cls-2{fill:#b3b3b3;}</style></defs><title>资源 8</title><g id="图层_2" data-name="图层 2"><g id="图层_1-2" data-name="图层 1"><path class="cls-1" d="M12,0H138a12,12,0,0,1,12,12V60a0,0,0,0,1,0,0H0a0,0,0,0,1,0,0V12A12,12,0,0,1,12,0Z"/><path class="cls-2" d="M18.3,29.4h4.16V28.09a15.28,15.28,0,0,0,.11-1.53V24.7H18.74V22.84h3.83V17.92h2v4.92h3.72V24.7H24.54v1.86q0,1.53-.11,2.84h4.27v1.75H24.43q-.11,1.64-.33,3l1.2-.87q.66.88.44.55,2.73,3.83,3.39,4.92a9.07,9.07,0,0,0-1.86,1.2Q25.52,36.84,24,34.65a18.89,18.89,0,0,1-4.59,9,22.76,22.76,0,0,0-1.31-2,16.11,16.11,0,0,0,4.27-10.5h-4Zm16.41-6.23h2v3.17a33,33,0,0,1-.55,6.89h1.75v6.45Q38,41.21,39.3,41.1h1.2q1.53,0,1.64-1a24.11,24.11,0,0,0,.22-3.72l.66.33c.51.22,1,.4,1.42.55A12.38,12.38,0,0,1,44,40.67Q43.68,43,40.73,43H39.19a3,3,0,0,1-3.28-3.28V34.21q-1.09,5-7.22,9.52l-1.64-1.64q4.81-3.28,6.23-6.45,1.53-3,1.42-9.3Zm-5.25-4h12.8V34.87h-2V21H31.43V35.31h-2Z"/><path class="cls-2" d="M53,23.17h2q0,4.81-.11,7a19.68,19.68,0,0,1-1.31,7.33l1.42-1.2q1.31,1,4.48,3.72,1.42,1.09,2.08,1.64l-1.64,1.53q-4-3.72-6.34-5.58-1.31,3.17-6.12,6.23a6.73,6.73,0,0,1-.44-.55c-.51-.73-.8-1.13-.87-1.2q4-2.3,5.25-4.59t1.53-7.33V26.78Q53,24.59,53,23.17Zm-4.92-3.83h11.7V36.4h-2V21.2H50V36.4h-2Zm20.67-1.2h2V39.68q.11,3.61-3.39,3.5-1.09.11-3.83.11c-.07-.51-.15-1.09-.22-1.75,0,.07,0-.07-.11-.44a36.63,36.63,0,0,0,3.72.11q2.08.22,1.86-1.75Zm-3.39,18.7H63.26V20.54h2.08Z"/><path class="cls-2" d="M82.84,35.31a11.41,11.41,0,0,0,.33,2.19c-.15.15-.4.37-.77.66Q79.77,40,79,40.67a9.14,9.14,0,0,0-1.2,1.2l-1.42-1.53a4.29,4.29,0,0,0,.77-2.52v-9.3h-3v-2h5v11.7A4,4,0,0,0,80,37.6Q81.85,36.07,82.84,35.31ZM77.15,18q1,1,3.28,3.5c.36.44.62.73.77.88l-1.75,1.42a47.37,47.37,0,0,0-3.83-4.48ZM98,23.17V33.45H93.66v6A1.45,1.45,0,0,0,95.3,41.1h1.2A1.25,1.25,0,0,0,98,40a19.85,19.85,0,0,0,.22-3.5l.66.22a10,10,0,0,0,1.42.55,22.66,22.66,0,0,1-.33,3.39Q99.68,43,96.94,43H94.87q-3.17,0-3.17-3.28V33.45H88.85q.22,7.44-7,10.28a1.16,1.16,0,0,1-.22-.44q-.55-.77-1-1.42,6.34-1.75,6.23-8.42H83.05V23.17h8.31a4.82,4.82,0,0,1,.44-.66q2-3.06,2.84-4.7l2,1.2c-.15.22-.4.58-.77,1.09q-1.53,2.19-2.3,3.06ZM84.15,18.9l1.42-1.09q1.2,1.31,3,3.39a3.16,3.16,0,0,0,.33.44l-1.75,1.2A43.66,43.66,0,0,0,84.15,18.9Zm.88,6V31.7h11V24.92Z"/><path class="cls-2" d="M103.84,20H112V37.93h-6.34v2h-1.86Zm1.86,1.75V28h4.38V21.74Zm0,14.33h4.38V29.73h-4.37Zm6,7.77A14.58,14.58,0,0,0,110,42.31a12.8,12.8,0,0,0,4.27-5.47,24.75,24.75,0,0,0,1.09-8.42v-9.3h11.59V40q.22,3.39-3.72,3.39-1.86.11-3.83.11a3.08,3.08,0,0,0-.11-.66l-.33-1.64q1,.11,4,.11,2.08.11,1.86-1.31V34.87h-8A15.84,15.84,0,0,1,111.71,43.84Zm5.58-15.31a21.83,21.83,0,0,1-.22,4.48h7.77V28h-7.55Zm0-7.55v5h7.55V21Z"/></g></g></svg>