<svg xmlns="http://www.w3.org/2000/svg" xmlns:xlink="http://www.w3.org/1999/xlink" viewBox="0 0 640 562.83"><defs><style>.cls-1{fill:none;}.cls-2{fill:#fff;}.cls-3{clip-path:url(#clip-path);}.cls-4{fill:#fabc14;}.cls-5{fill:#9c509e;}.cls-6{fill:#774939;}.cls-7{fill:#ed2726;}.cls-8{fill:#f26b23;}.cls-9{fill:#00abd6;}.cls-10{fill:#c9d1b7;}.cls-11{fill:#db6220;}.cls-12{fill:#0d9dc5;}.cls-13{fill:#e3ab15;}.cls-14{fill:#d72423;}.cls-15{fill:#694031;}.cls-16{fill:#8f4890;}.cls-17{fill:#69462c;}.cls-18{fill:#e2aa15;}.cls-19{fill:#785033;}.cls-20{fill:#f9bb14;}.cls-21{fill:#8e488f;}</style><clipPath id="clip-path"><rect class="cls-1" x="33.93" width="575.64" height="324"/></clipPath></defs><title>资源 1</title><g id="图层_2" data-name="图层 2"><g id="图层_1-2" data-name="图层 1"><rect class="cls-2" width="640" height="324"/><g class="cls-3"><path class="cls-4" d="M260,39.37a3,3,0,0,0-2.27-.29l-4.49,1.21-7.76,2.06L227.78,29,223.72,30l10,15.36L223.88,48l-7.71-5.16-2,.53.4.73-.42.12,4.68,7.68.72,1.31,0,1.49-.21,9,.42-.11,0,.83,2-.55,4.1-8.33,9.8-2.64-1,18.29,4.05-1.11,8.67-20.47,7.75-2.1,4.49-1.21a3,3,0,0,0,1.83-1.38,3.57,3.57,0,0,0,.52-3s0-.07,0-.11a1.07,1.07,0,0,0,0-.11A3.55,3.55,0,0,0,260,39.37Z"/><path class="cls-5" d="M102.5,125.36l1.35,1.18c1.91-2.18,3.91-4.38,5.93-6.51l-1.3-1.24C106.44,120.94,104.43,123.15,102.5,125.36Z"/><path class="cls-6" d="M91.35,139.18l1.44,1.07c1.74-2.34,3.55-4.69,5.39-7l-1.4-1.13C94.93,134.45,93.1,136.82,91.35,139.18Z"/><path class="cls-7" d="M81.37,153.88l1.53.94c1.53-2.47,3.14-5,4.79-7.39l-1.49-1C84.53,148.88,82.91,151.39,81.37,153.88Z"/><path class="cls-4" d="M65.28,185.53l1.66.68c1.1-2.72,2.28-5.44,3.48-8.09l-1.63-.74C67.58,180,66.4,182.79,65.28,185.53Z"/><path class="cls-8" d="M72.65,169.37l1.6.81c1.32-2.6,2.72-5.21,4.15-7.77l-1.56-.88C75.4,164.11,74,166.75,72.65,169.37Z"/><path class="cls-7" d="M157.55,81.18c2.49-1.56,5-3.09,7.55-4.56l-.9-1.55c-2.54,1.48-5.1,3-7.6,4.59Z"/><path class="cls-5" d="M188.61,64.46c2.71-1.23,5.43-2.41,8.09-3.51L196,59.29c-2.68,1.11-5.42,2.29-8.15,3.54Z"/><path class="cls-6" d="M172.8,72.31c2.57-1.39,5.21-2.75,7.84-4.05l-.8-1.61c-2.64,1.31-5.3,2.68-7.89,4.08Z"/><path class="cls-9" d="M212.77,53.24c-.13,0-3.18.9-8.47,2.83l.62,1.68c5.22-1.91,8.31-2.78,8.34-2.79Z"/><path class="cls-8" d="M142.93,91c2.37-1.72,4.8-3.42,7.23-5.06l-1-1.49c-2.44,1.65-4.89,3.36-7.28,5.09Z"/><path class="cls-4" d="M127.88,100.53l1.15,1.37c2.23-1.88,4.54-3.75,6.85-5.55l-1.11-1.41C132.46,96.76,130.13,98.64,127.88,100.53Z"/><path class="cls-9" d="M114.72,112.46l1.25,1.28c2.08-2,4.25-4.07,6.42-6l-1.2-1.33C119,108.36,116.82,110.41,114.72,112.46Z"/><path class="cls-9" d="M515.1,196.91a1.29,1.29,0,0,0,.12-1l-.53-1.91-.9-3.3,5.65-7.59-.47-1.73-6.51,4.29-1.14-4.17,2.17-3.3-.23-.86-.31.17-.05-.18-3.25,2-.56.31-.63,0-3.83-.07,0,.18h-.35l.24.86,3.56,1.72,1.15,4.16-7.79-.35L502,188l8.74,3.63.91,3.29.53,1.91a1.29,1.29,0,0,0,.59.77,1.52,1.52,0,0,0,1.28.21l0,0h0A1.51,1.51,0,0,0,515.1,196.91Z"/><path class="cls-5" d="M478.05,130.1l-.5.58c.93.81,1.87,1.65,2.79,2.51l.52-.56C479.94,131.77,479,130.92,478.05,130.1Z"/><path class="cls-6" d="M472.14,125.39l-.45.62c1,.73,2,1.5,3,2.28l.48-.6C474.16,126.91,473.15,126.13,472.14,125.39Z"/><path class="cls-7" d="M465.85,121.19l-.4.65c1.05.64,2.12,1.32,3.16,2l.43-.63C468,122.52,466.91,121.84,465.85,121.19Z"/><path class="cls-4" d="M452.33,114.43l-.28.71c1.16.46,2.32,1,3.45,1.46l.31-.7C454.68,115.4,453.5,114.9,452.33,114.43Z"/><path class="cls-8" d="M459.23,117.52l-.34.68c1.11.55,2.23,1.14,3.32,1.75l.37-.67C461.48,118.68,460.36,118.08,459.23,117.52Z"/><path class="cls-8" d="M497,153.41c.67,1.05,1.33,2.13,2,3.2l.66-.39c-.64-1.08-1.3-2.16-2-3.22Z"/><path class="cls-6" d="M504.21,166.58c.53,1.15,1,2.3,1.52,3.44l.71-.3c-.48-1.14-1-2.3-1.53-3.46Z"/><path class="cls-7" d="M500.83,159.87c.6,1.09,1.19,2.21,1.75,3.32l.68-.34c-.57-1.12-1.16-2.25-1.76-3.35Z"/><path class="cls-5" d="M509.06,176.83c0-.05-.39-1.35-1.23-3.6l-.72.27c.83,2.22,1.21,3.53,1.21,3.54Z"/><path class="cls-4" d="M492.77,147.21c.74,1,1.47,2,2.17,3.06l.63-.43c-.71-1-1.45-2.07-2.19-3.08Z"/><path class="cls-10" d="M488.69,140.84l-.58.5c.81.95,1.61,1.92,2.38,2.9l.6-.47C490.31,142.77,489.5,141.79,488.69,140.84Z"/><path class="cls-9" d="M483.58,135.27l-.54.54c.87.88,1.74,1.8,2.59,2.72l.56-.52C485.33,137.08,484.46,136.16,483.58,135.27Z"/><path class="cls-5" d="M110.31,386.34a1,1,0,0,0,0,.77l.59,1.45,1,2.51-3.77,6.47.52,1.32,4.74-4,1.27,3.18-1.41,2.79.26.66.23-.16.06.14,2.38-1.88.41-.29.5-.07,3-.29-.05-.14.28,0-.27-.66-3-1-1.28-3.17,6.16-.42-.53-1.31-7.2-2.08-1-2.51-.59-1.45a1,1,0,0,0-.54-.56,1.2,1.2,0,0,0-1-.05l0,0h0A1.19,1.19,0,0,0,110.31,386.34Z"/><path class="cls-6" d="M145.41,435.58l.34-.5c-.81-.55-1.62-1.13-2.42-1.72l-.36.49C143.78,434.44,144.6,435,145.41,435.58Z"/><path class="cls-7" d="M150.48,438.76l.3-.52c-.85-.49-1.71-1-2.55-1.52l-.32.51C148.76,437.75,149.62,438.26,150.48,438.76Z"/><path class="cls-8" d="M155.8,441.5l.25-.55c-.89-.41-1.78-.85-2.66-1.31l-.28.54C154,440.64,154.91,441.09,155.8,441.5Z"/><path class="cls-9" d="M167,445.61l.16-.58c-1-.26-1.91-.54-2.85-.84l-.18.58C165.11,445.06,166.07,445.35,167,445.61Z"/><path class="cls-4" d="M161.43,444.08l.21-.57c-.92-.34-1.85-.7-2.77-1.08l-.23.56C159.56,443.37,160.5,443.74,161.43,444.08Z"/><path class="cls-11" d="M128.42,418.94c-.62-.77-1.24-1.56-1.83-2.34l-.48.36c.6.79,1.22,1.58,1.84,2.36Z"/><path class="cls-7" d="M121.58,409.23c-.52-.86-1-1.72-1.5-2.57l-.53.3c.48.85,1,1.72,1.51,2.58Z"/><path class="cls-8" d="M124.84,414.2c-.57-.81-1.13-1.63-1.67-2.46l-.51.33c.55.83,1.11,1.66,1.68,2.47Z"/><path class="cls-6" d="M116.85,401.6s.43,1,1.29,2.72l.54-.27c-.85-1.67-1.26-2.67-1.27-2.68Z"/><path class="cls-4" d="M132.31,423.44c-.67-.72-1.34-1.47-2-2.21l-.46.4c.65.75,1.32,1.5,2,2.23Z"/><path class="cls-9" d="M136.09,428.09l.41-.44c-.72-.67-1.44-1.37-2.13-2.07l-.43.43C134.64,426.71,135.36,427.41,136.09,428.09Z"/><path class="cls-5" d="M140.6,432l.38-.47c-.76-.62-1.53-1.26-2.28-1.9l-.4.46C139.06,430.74,139.83,431.39,140.6,432Z"/><path class="cls-8" d="M431.94,556.23a2.87,2.87,0,0,0,2.16-.12l4-1.89L444.9,551l18.77,9.37,3.58-1.69L455.36,546.1,464,542l8,3.46,1.79-.85-.5-.61.37-.18L468,537.5l-.89-1.09-.29-1.38-1.35-8.38-.37.17L465,526l-1.79.86-2.37,8.43-8.64,4.14-2.26-17.13-3.57,1.73-4.52,20.48L435,547.84l-4,1.9a2.87,2.87,0,0,0-1.46,1.6,3.36,3.36,0,0,0,0,2.87s0,.06.05.09a1,1,0,0,0,0,.1A3.35,3.35,0,0,0,431.94,556.23Z"/><path class="cls-9" d="M563.31,449.33l-1.46-.86c-1.4,2.35-2.87,4.73-4.38,7.06l1.42.92C560.41,454.1,561.9,451.7,563.31,449.33Z"/><path class="cls-5" d="M571.28,434.58l-1.52-.74c-1.21,2.47-2.49,5-3.8,7.39l1.49.8C568.77,439.59,570.06,437.08,571.28,434.58Z"/><path class="cls-6" d="M578,419.23l-1.58-.61c-1,2.55-2.06,5.14-3.18,7.68l1.55.68C575.93,424.41,577,421.8,578,419.23Z"/><path class="cls-11" d="M587.48,387.09l-1.66-.34c-.56,2.71-1.17,5.44-1.84,8.11l1.64.41C586.29,392.58,586.92,389.82,587.48,387.09Z"/><path class="cls-7" d="M585.3,397.39l-1.63-.48c-.78,2.64-1.63,5.31-2.52,7.92l1.6.55C583.66,402.74,584.51,400,585.3,397.39Z"/><path class="cls-6" d="M519.84,499.79c-2,1.88-4.13,3.74-6.22,5.53l1.1,1.28c2.1-1.81,4.21-3.68,6.26-5.57Z"/><path class="cls-9" d="M493.9,520.65c-2.3,1.61-4.62,3.17-6.9,4.65l.92,1.42c2.3-1.49,4.64-3.06,7-4.68Z"/><path class="cls-5" d="M507.22,510.65c-2.15,1.73-4.36,3.45-6.57,5.11l1,1.35c2.23-1.67,4.45-3.4,6.62-5.15Z"/><path class="cls-4" d="M473.41,535.22c.11-.06,2.79-1.38,7.37-4.09l-.86-1.46c-4.51,2.67-7.23,4-7.26,4Z"/><path class="cls-7" d="M531.7,488.12c-1.9,2-3.86,4-5.83,5.94l1.19,1.21c2-2,4-4,5.88-6Z"/><path class="cls-11" d="M544,476.73l-1.31-1.08c-1.75,2.13-3.57,4.26-5.4,6.33l1.27,1.12C540.44,481,542.27,478.87,544,476.73Z"/><path class="cls-4" d="M554.19,463.4l-1.38-1c-1.58,2.25-3.24,4.51-4.92,6.71l1.35,1C550.93,467.94,552.6,465.66,554.19,463.4Z"/><path class="cls-12" d="M128.2,190.61c-3.54-1.4-8,.94-10.15,5.4a10.9,10.9,0,0,0-1,6.11,9.8,9.8,0,0,0-7.12,5.74c-2.2,4.61-1.08,9.75,2.52,11.47a5.8,5.8,0,0,0,1.81.52,11,11,0,0,0-.8,4.59,7.37,7.37,0,0,0-3.79,3.72,7.68,7.68,0,0,0-.73,4.31,6.91,6.91,0,0,0-5,4c-1.55,3.25-.76,6.87,1.78,8.08a4.08,4.08,0,0,0,1.28.37c-1.25,3.12-.41,6.43,2,7.58s5.4-.23,7.06-3h0l.16-.33.16-.33.15-.34,9.38-19.63h0a8.06,8.06,0,0,0,.43-1.44,11.43,11.43,0,0,0,.79-1.15l0,0,.22-.47.24-.47.22-.48L141.09,197h0c1.81-4.44.63-9.18-2.8-10.82S130.54,186.56,128.2,190.61Z"/><path class="cls-8" d="M132.11,451.89c-1.07,1.23-.76,3.37.74,4.87a4.67,4.67,0,0,0,2.32,1.29,4.2,4.2,0,0,0,1.31,3.69c1.55,1.55,3.79,1.82,5,.61a2.48,2.48,0,0,0,.47-.66,4.7,4.7,0,0,0,1.74,1,3.16,3.16,0,0,0,1,2.06,3.3,3.3,0,0,0,1.64.91,3,3,0,0,0,.92,2.6c1.09,1.09,2.67,1.28,3.52.43a1.76,1.76,0,0,0,.33-.46,2.19,2.19,0,1,0,3.12-3h0l-.11-.11L154,465l-.11-.11-6.6-6.59h0a3.47,3.47,0,0,0-.52-.38,4.94,4.94,0,0,0-.35-.48h0l-.16-.16-.16-.16-.16-.16-9.36-9.34h0c-1.54-1.36-3.62-1.56-4.77-.41S130.81,450.36,132.11,451.89Z"/><path class="cls-4" d="M549.49,354.54c3.87,0,7.27-3.79,7.68-8.8a11.06,11.06,0,0,0-1.23-6.18,10,10,0,0,0,4.68-8c.42-5.18-2.51-9.65-6.55-10a5.86,5.86,0,0,0-1.91.16,11.14,11.14,0,0,0-.9-4.65,7.48,7.48,0,0,0,2.26-4.91,7.83,7.83,0,0,0-.86-4.36,7,7,0,0,0,3.3-5.66c.3-3.65-1.77-6.8-4.62-7a4.12,4.12,0,0,0-1.34.11c.06-3.41-1.94-6.26-4.64-6.48s-5,2.17-5.6,5.45h0l0,.37c0,.12,0,.25,0,.37s0,.25,0,.38l-1.8,22h0a8.3,8.3,0,0,0,.11,1.53,11.51,11.51,0,0,0-.33,1.38h0l0,.53c0,.18,0,.35-.05.53s0,.36,0,.53l-2.56,31.26h0c-.11,4.87,2.73,8.95,6.58,9.26S548.73,359.24,549.49,354.54Z"/><path class="cls-6" d="M372.92,121.87a2.59,2.59,0,0,0-2.63-2.28,2.72,2.72,0,0,0-2.93-2.16,3.45,3.45,0,0,0-1.89.54,3.1,3.1,0,0,0-2.61-1.25c-1.62,0-2.93,1-2.93,2.29a1.82,1.82,0,0,0,.1.59,2.3,2.3,0,1,0-.09,4.55h10.27A2.61,2.61,0,0,0,372.92,121.87Z"/><path class="cls-12" d="M280.06,127.82c0-1.6-1.56-2.92-3.56-3.08-.11-1.63-1.84-2.93-4-2.93a4.68,4.68,0,0,0-2.56.73,4.2,4.2,0,0,0-3.54-1.69c-2.19,0-4,1.39-4,3.1a2.49,2.49,0,0,0,.13.8c-2,.13-3.64,1.46-3.64,3.09s1.54,2.9,3.52,3.08v0h13.91C278.44,130.78,280.06,129.45,280.06,127.82Z"/><path class="cls-8" d="M255.08,118.5a1.94,1.94,0,0,0-2-1.71,2,2,0,0,0-2.2-1.62,2.59,2.59,0,0,0-1.42.4,2.33,2.33,0,0,0-2-.94,2,2,0,0,0-2.2,1.72,1.37,1.37,0,0,0,.07.44,1.73,1.73,0,1,0-.06,3.41H253A2,2,0,0,0,255.08,118.5Z"/><path class="cls-6" d="M138.88,161.62c-1.2-.85-3-.37-4.18,1-1.28-.78-3.16-.16-4.28,1.42a4.26,4.26,0,0,0-.8,2.3,3.85,3.85,0,0,0-3.13,1.75c-1.16,1.64-1.06,3.7.22,4.61a2.29,2.29,0,0,0,.67.32c-1,1.59-.83,3.49.39,4.35s3,.38,4.16-1h0l.12-.17.12-.17.12-.17,7-9.9h0C140.25,164.39,140.1,162.48,138.88,161.62Z"/><path class="cls-12" d="M196.49,482.69a2.59,2.59,0,0,0,1,3.32,2.72,2.72,0,0,0,1.34,3.39,3.46,3.46,0,0,0,1.89.54,3.11,3.11,0,0,0,1.55,2.44c1.37.86,3,.68,3.7-.39a1.85,1.85,0,0,0,.23-.55,2.3,2.3,0,1,0,2.48-3.81h0l-.14-.09-.14-.09-.14-.09L200,482.19h0A2.61,2.61,0,0,0,196.49,482.69Z"/><path class="cls-12" d="M556.42,283.5c1.75,0,3.18-1.73,3.34-3.92,1.78-.14,3.19-2,3.17-4.36a5.12,5.12,0,0,0-.82-2.79,4.6,4.6,0,0,0,1.82-3.88c0-2.4-1.55-4.33-3.42-4.32a2.75,2.75,0,0,0-.87.15c-.16-2.23-1.63-4-3.41-4s-3.16,1.71-3.33,3.88h0v.24c0,.08,0,.16,0,.24s0,.17,0,.25l.12,14.47h0C553.16,281.76,554.64,283.52,556.42,283.5Z"/><path class="cls-7" d="M501.08,438c1.55.82,3.62,0,4.8-1.87,1.63.73,3.77-.28,4.86-2.33a5.11,5.11,0,0,0,.6-2.84,4.6,4.6,0,0,0,3.45-2.55c1.12-2.12.69-4.55-1-5.43a2.8,2.8,0,0,0-.84-.28c.92-2,.45-4.27-1.12-5.1s-3.59,0-4.78,1.83h0l-.11.22-.12.21-.11.22L500,432.84h0C499,434.89,499.5,437.13,501.08,438Z"/><path class="cls-13" d="M479,177.05l-5.84-4.63c0,.09,0,.18,0,.26-6.56-1-19.4-2.05-24.18,4.33a19.27,19.27,0,0,0-3.85,11.1L472,208.29h0a19.26,19.26,0,0,0,9.62-6.82C486.4,195.09,481.82,183.07,479,177.05Z"/><path class="cls-14" d="M445.17,188.12s0,0,0,0l-.13.17,0,.05L441.56,193l26.85,20.11,3.42-4.55,0-.05.12-.17Zm4.35,7.12a2.7,2.7,0,1,1-.54-3.78A2.7,2.7,0,0,1,449.51,195.24Zm6.21,4.66a2.7,2.7,0,1,1-.54-3.78A2.7,2.7,0,0,1,455.72,199.9Zm6.21,4.66a2.7,2.7,0,1,1-.54-3.78A2.7,2.7,0,0,1,461.94,204.56Zm6.21,4.66a2.7,2.7,0,1,1-.54-3.78A2.7,2.7,0,0,1,468.15,209.22Z"/><polygon class="cls-13" points="433.76 203.35 460.59 223.49 468.41 213.07 441.56 192.96 433.76 203.35"/><path class="cls-14" d="M488.36,158.54a2.3,2.3,0,0,0-3.17,3.24,3.47,3.47,0,0,0-4.35,5,5.4,5.4,0,0,0-6.57,1.74,5.51,5.51,0,0,0-1.08,3.87l5.84,4.63h0a5.52,5.52,0,0,0,3.67-2.17,5.4,5.4,0,0,0-.17-6.79,3.47,3.47,0,0,0,3.62-5.59,2.3,2.3,0,0,0,2.22-4Z"/><path class="cls-13" d="M464.5,227.29l-47.6-35.72,0,0-4.19,5.56v.1c0,.11,0,.21,0,.33a8.21,8.21,0,0,1,2.83-.77s.68,2.94-.75,4.89h0l-2.4,3.2q3,2.6,6,5.3l2.81-3.74,0,0c1.46-1.92,4.48-2.09,4.48-2.09s.68,2.94-.75,4.89h0l-3.12,4.16q3.55,3.43,6.9,7l4-5.35h0c1.47-1.92,4.48-2.09,4.48-2.09s.68,2.94-.75,4.89h0L431.85,224q3.31,3.78,6.37,7.76l6-8h0c1.47-1.92,4.48-2.09,4.48-2.09s.68,2.94-.75,4.89h0l-6.08,8.11-3.4-2.55q3.74,4.92,7,10.17L448.2,250l16.4-22.52-.15-.11Z"/><path class="cls-4" d="M412.68,197.11l4.19-5.56-.18-.14-47.27-35.47-.91,1.21-13.83,18a42.17,42.17,0,0,1,10.92,2.94c1.06.53,2.8.29,3.88.72l5.34-7.12h0c1.47-1.92,4.48-2.09,4.48-2.09s.68,2.94-.75,4.89h0l-4.46,5.94c3.32,1.08,5.88,2.86,8.92,4.22l3.34-4.31h0c1.47-1.92,4.48-2.09,4.48-2.09s.68,2.94-.75,4.89h0l-2.8,3.39.49.33c2.49,1.74,5.55,3.08,8,4.89l2.07-2.77h0c1.47-1.92,4.48-2.09,4.48-2.09s.68,2.94-.75,4.89h0l-2.07,2.76q3.16,2.4,6.27,4.89l2.16-2.88h0c1.47-1.92,4.48-2.09,4.48-2.09a8.52,8.52,0,0,1,.15,2.09C412.72,196.83,412.7,197,412.68,197.11Z"/><path class="cls-15" d="M443,190.36c1.32-1.76,0-5.15-.84-6.84a1.51,1.51,0,0,0,1-2.49,1,1,0,0,0,1-1.55.63.63,0,1,0-.28-1,.64.64,0,0,0,0,.76.95.95,0,0,0-1.2,1.39,1.51,1.51,0,0,0-2.13,1.61c-1.85-.31-5.48-.66-6.81,1.1a5.23,5.23,0,0,0-1,3.1l-7.68,10.25,7.65,5.75,7.69-10.24A5.22,5.22,0,0,0,443,190.36Zm-9.39-1.5a.77.77,0,1,1-.16-1.08A.77.77,0,0,1,433.57,188.86Zm1.78,1.33a.77.77,0,1,1-.15-1.08A.77.77,0,0,1,435.35,190.2Zm1.77,1.33a.77.77,0,1,1-.15-1.08A.77.77,0,0,1,437.12,191.53Zm1.78,1.33a.77.77,0,1,1-.16-1.08A.77.77,0,0,1,438.9,192.86Z"/><path class="cls-7" d="M428.5,113.62a2.3,2.3,0,0,0-3.17,3.23,3.46,3.46,0,0,0-4.35,5,5.39,5.39,0,0,0-6.57,1.73,5.47,5.47,0,0,0-1.05,4.12l5.85,4.45,0-.08a5.49,5.49,0,0,0,3.67-2.16,5.4,5.4,0,0,0-.17-6.79,3.46,3.46,0,0,0,3.62-5.58,2.3,2.3,0,0,0,2.22-4Z"/><path class="cls-4" d="M419.21,132.19l-5.85-4.45h0c-6.56-1-19.38-2.07-24.17,4.31a19.19,19.19,0,0,0-3.81,10.52l27,20.67a19.19,19.19,0,0,0,9.43-6.74C426.55,150.17,422,138.23,419.21,132.19Z"/><path class="cls-7" d="M385.38,142.58c0,.2,0,.4,0,.6l-.27.36-3.42,4.55,26.74,20.25,3.51-4.67.27-.36.18-.07Zm4.27,7.74a2.7,2.7,0,1,1-.65-3.83l.19.14A2.68,2.68,0,0,1,389.65,150.32Zm6.21,4.66a2.7,2.7,0,1,1-.65-3.83l.19.14A2.69,2.69,0,0,1,395.86,155Zm6.21,4.66a2.7,2.7,0,1,1-.65-3.83l.19.14A2.69,2.69,0,0,1,402.07,159.64Zm6.21,4.66a2.7,2.7,0,1,1-.65-3.83l.19.14A2.69,2.69,0,0,1,408.29,164.3Z"/><polygon class="cls-4" points="373.9 158.44 400.73 178.57 408.39 168.35 381.66 148.1 373.9 158.44"/><path class="cls-7" d="M463.84,129h0a1.07,1.07,0,0,0-.22-.11,1,1,0,0,0-1.23.32,1,1,0,0,0,0,1.26,1.56,1.56,0,0,0-2,2.28,2.48,2.48,0,0,0-3.5,2.64h0l1.45,1.13,5.59-7.42S463.87,129,463.84,129Z"/><path class="cls-4" d="M456.87,135.4c-3.06-.51-9-1.07-11.16,1.82a8.56,8.56,0,0,0-1.71,5.09l-33,44,6.08,4.56.18.14,41-54.47Zm-11.28,10.84a1.27,1.27,0,1,1-.25-1.77A1.27,1.27,0,0,1,445.59,146.24Zm2.91,2.19a1.27,1.27,0,1,1-.25-1.78A1.27,1.27,0,0,1,448.51,148.42Z"/><path class="cls-14" d="M464,130.47a1,1,0,0,0-.12-1.36l-5.59,7.42,1.38,1.07-.07-.15a2.47,2.47,0,0,0,1.56-4.09,1.56,1.56,0,0,0,1.64-2.54A1,1,0,0,0,464,130.47Z"/><path class="cls-13" d="M461,148.7c2.14-2.85,0-8.27-1.31-11.1l-1.38-1.07-41,54.47,0,0,6.26,4.7,33-44A8.59,8.59,0,0,0,461,148.7Zm-9.59,1.92a1.27,1.27,0,1,1-.25-1.77A1.27,1.27,0,0,1,451.42,150.61Zm2.91,2.19a1.27,1.27,0,1,1-.25-1.77A1.27,1.27,0,0,1,454.34,152.8Z"/><path class="cls-6" d="M421.38,162.56a.63.63,0,1,0-1,0,.95.95,0,0,0-1.21,1.39,1.51,1.51,0,0,0-2.13,1.61c-1.85-.31-5.48-.66-6.81,1.11a5.23,5.23,0,0,0-1,3.1l-7.26,9.69,7.66,5.74,7.27-9.68a5.21,5.21,0,0,0,2.69-1.87c1.32-1.77,0-5.15-.84-6.84a1.51,1.51,0,0,0,.95-2.5.95.95,0,0,0,1-1.54A.63.63,0,0,0,421.38,162.56Zm-11.23,9.6a.77.77,0,1,1-.15-1.08A.77.77,0,0,1,410.15,172.16Zm1.78,1.33a.77.77,0,1,1-.15-1.08A.77.77,0,0,1,411.92,173.49Zm1.77,1.33a.77.77,0,1,1-.15-1.08A.77.77,0,0,1,413.7,174.82Zm1.78,1.33a.77.77,0,1,1-.15-1.08A.77.77,0,0,1,415.47,176.15Z"/><path class="cls-4" d="M315,111.94H304.76l0,.2h-1.15a1.42,1.42,0,0,0-1.5,1.32s.51,1.94,1.19,2.43H315Z"/><path class="cls-6" d="M303.27,115.89a.52.52,0,0,0,.3.11h.5c-1.56,8.13-5,17.28-8.87,26H306.5c.6-2.27,3.74-14.34,3.95-17.74H315v-8.33Z"/><path class="cls-4" d="M315,10.58h-.2v6.49a.59.59,0,0,0-.39.54v6H314a1,1,0,0,0-1.07.94A.9.9,0,0,0,313,25h-.48a1.42,1.42,0,0,0-1.5,1.32v.92a1.2,1.2,0,0,0,.17.6,1.35,1.35,0,0,0-1,1.25s.6,4.71,1.36,5.26H315Z"/><path class="cls-9" d="M311.57,34.38a.25.25,0,0,0,.14.06h.19c.21,29-5.57,67.53-7.15,77.5H315V34.38Z"/><path class="cls-9" d="M291.51,149.78a302.35,302.35,0,0,1-15.29,27.17h16.32c.27-11.36,10.2-20.49,22.43-20.55H315v-6.62Z"/><path class="cls-4" d="M315,142.34H306.4l.1-.37H295.21l-.07.17h-3.57v7.54l-.05.1H315Z"/><path class="cls-13" d="M338.54,149.46v-7.33h-3.47L335,142H323.66l.14.37H315v7.44H338.7Z"/><path class="cls-12" d="M338.7,149.78H315v6.62h.1c12.28,0,22.27,9.16,22.55,20.55H354A304.51,304.51,0,0,1,338.7,149.78Z"/><path class="cls-13" d="M320,29.12a1.35,1.35,0,0,0-1-1.25,1.17,1.17,0,0,0,.16-.6v-.92A1.42,1.42,0,0,0,317.65,25h-.48a.92.92,0,0,0,.12-.45,1,1,0,0,0-1.07-.94h-.44v-6a.59.59,0,0,0-.39-.54V10.58H315v23.8h3.61C319.39,33.84,320,29.12,320,29.12Z"/><path class="cls-12" d="M325.45,111.94c-1.58-10-7.36-48.48-7.15-77.5h.2a.24.24,0,0,0,.14-.06H315v77.56Z"/><path class="cls-13" d="M328.25,113.46a1.42,1.42,0,0,0-1.5-1.32h-1.27l0-.2H315v4h12C327.73,115.4,328.25,113.46,328.25,113.46Z"/><path class="cls-15" d="M326.13,116h.62a.52.52,0,0,0,.3-.11H315v8.33h4.62s2.53,13.56,4,17.74H335C331.09,133.28,327.69,124.14,326.13,116Z"/><path class="cls-7" d="M494,247.4a.9.9,0,0,0-.58,0l-.78-2.35a.87.87,0,0,0,.51-.56l-.39-1.16a.8.8,0,0,0-.72-.11l-.79-2.39a1,1,0,0,0,.45-.39.56.56,0,0,0,.05-.16l-.39-1.17a.51.51,0,0,0-.13-.09.9.9,0,0,0-.58,0l-.53-1.6a.88.88,0,0,0,.5-.54l-.4-1.19a.82.82,0,0,0-.71-.1l-.36-1.08a.87.87,0,0,0,.49-.53l-.4-1.2a.82.82,0,0,0-.7-.09l0-.15a.63.63,0,0,0-.83-.35.67.67,0,0,0-.44.82l.07.21L485,234l0,0a2.37,2.37,0,0,1-.76.71.74.74,0,0,0-.92-.19l-.11,0,.15.46a.4.4,0,0,0-.19.23l-5.43,2,.21.63,5.43-2a.4.4,0,0,0,.29.05l.16.46.11,0c.43-.16.69-.52.59-.82l0-.08c.79-.12,1.45.1,1.61.58v0c.16.48-.23,1.09-.93,1.51a.75.75,0,0,0-.91-.18l-.11,0,.15.46a.42.42,0,0,0-.19.23l-5.43,2,.21.63,5.44-2a.37.37,0,0,0,.29.06l.15.46.11,0a1,1,0,0,0,.54-.43.47.47,0,0,0,0-.38v0a1.52,1.52,0,0,1,1.7.84l0,.05a1.64,1.64,0,0,1-.83,1.77c-.11-.29-.52-.4-.94-.24l-.11,0,.15.46a.4.4,0,0,0-.19.23l-5.45,2,.21.63,5.45-2a.36.36,0,0,0,.29.06l.15.46.11,0a1,1,0,0,0,.54-.43.47.47,0,0,0,.06-.32,1.77,1.77,0,0,1,1.81,1.16l0,.07a1.91,1.91,0,0,1-.73,2.1.73.73,0,0,0-.92-.19l-.11,0,.15.46a.4.4,0,0,0-.19.23l-5.47,2,.21.63,5.47-2a.36.36,0,0,0,.29.06l.15.46.11,0a.79.79,0,0,0,.6-.76,1.76,1.76,0,0,1,1.81,1.16l0,.07a1.92,1.92,0,0,1-.73,2.09.45.45,0,0,0-.25-.23,1,1,0,0,0-.68,0l-.11,0,.15.46a.39.39,0,0,0-.19.23l-5.49,2,.21.63,5.49-2a.39.39,0,0,0,.29.06l.15.46.11,0a.8.8,0,0,0,.6-.74,1.77,1.77,0,0,1,1.81,1.15l3.13-1.13-.39-1.18a1,1,0,0,0,.45-.39.53.53,0,0,0,.06-.19l-.38-1.13A.5.5,0,0,0,494,247.4Z"/><path class="cls-4" d="M506.09,243.38l0-.07c-.09-.28-.49-.4-.9-.26l-.78-2.35c.4-.17.65-.51.55-.8l0-.07.09,0-.21-.63-.09,0,0-.07c-.1-.28-.49-.4-.9-.26l-.79-2.38c.4-.16.64-.51.55-.8l0-.07.09,0-.21-.62-.09,0,0-.07a.43.43,0,0,0-.26-.27.94.94,0,0,0-.64,0l-.53-1.59a1,1,0,0,0,.5-.42.46.46,0,0,0,0-.38l0-.07.09,0-.21-.62-.09,0,0-.07a.44.44,0,0,0-.27-.27.93.93,0,0,0-.64,0l-.36-1.07c.4-.16.64-.51.55-.8l0-.07.09,0-.21-.63-.09,0,0-.07a.43.43,0,0,0-.26-.27.92.92,0,0,0-.64,0l0-.15a.56.56,0,0,0-.33-.34.67.67,0,0,0-.51,0,.72.72,0,0,0-.39.33.6.6,0,0,0-.05.48l.07.21-2.2.81,0,0a2.43,2.43,0,0,1-.76.71.73.73,0,0,0-.92-.19l-.11,0,.15.46a.4.4,0,0,0-.19.23L489.35,233l0-.07a.4.4,0,0,0-.15-.19l.4,1.2a.44.44,0,0,0,0-.24l0-.07,5.62-2.07a.37.37,0,0,0,.29.06l.15.46.11,0c.42-.16.69-.52.59-.82l0-.08c.79-.12,1.46.1,1.61.58v0c.16.48-.23,1.09-.92,1.52a.75.75,0,0,0-.91-.18l-.11,0,.15.46a.4.4,0,0,0-.19.23l-5.62,2.07,0-.07a.41.41,0,0,0-.14-.19l.4,1.19a.42.42,0,0,0,0-.24l0-.07,5.62-2.06a.38.38,0,0,0,.29.06l.15.46.11,0a1,1,0,0,0,.54-.43.49.49,0,0,0,0-.38h0a1.51,1.51,0,0,1,1.7.84l0,.05a1.64,1.64,0,0,1-.83,1.77c-.1-.29-.52-.39-.94-.24l-.11,0,.15.46a.42.42,0,0,0-.19.23l-5.62,2.07,0-.07a.41.41,0,0,0-.13-.18l.39,1.17a.43.43,0,0,0,0-.23l0-.07,5.62-2.07a.38.38,0,0,0,.29.05l.15.46.11,0c.39-.14.65-.47.6-.75a1.77,1.77,0,0,1,1.81,1.16l0,.06a1.91,1.91,0,0,1-.73,2.1.73.73,0,0,0-.92-.19l-.11,0,.15.46a.4.4,0,0,0-.19.23l-5.62,2.07,0-.07a.39.39,0,0,0-.12-.18l.39,1.16a.43.43,0,0,0,0-.22l0-.07,5.62-2.07a.38.38,0,0,0,.29.06l.15.46.11,0c.4-.15.66-.47.6-.76a1.77,1.77,0,0,1,1.81,1.16l0,.06a1.92,1.92,0,0,1-.73,2.1.46.46,0,0,0-.25-.23.94.94,0,0,0-.68,0l-.11,0,.15.46a.38.38,0,0,0-.19.23l-5.62,2.07,0-.07a.38.38,0,0,0-.11-.17l.38,1.13a.42.42,0,0,0,0-.2l0-.07,5.62-2.07a.36.36,0,0,0,.29.06l.15.46.11,0a1,1,0,0,0,.54-.43.51.51,0,0,0,.07-.31,1.77,1.77,0,0,1,1.81,1.16l0,.05,3.13-1.13-.41-1.23a1,1,0,0,0,.5-.42.47.47,0,0,0,0-.38l0-.07.09,0-.21-.62Z"/><path class="cls-4" d="M528.81,234.36,528,232a.9.9,0,0,0,.45-.46l-.44-1.31,0,0a.92.92,0,0,0-.57,0l-.79-2.39a.91.91,0,0,0,.44-.44l-.45-1.35,0,0a.89.89,0,0,0-.57,0l-.53-1.6a.92.92,0,0,0,.43-.41l-.46-1.37a.88.88,0,0,0-.58,0l-.36-1.08a1,1,0,0,0,.43-.38l-.48-1.42a.91.91,0,0,0-.56,0l-.05-.15a.63.63,0,0,0-.83-.35.72.72,0,0,0-.39.34.59.59,0,0,0-.05.48l.07.21-2.2.81,0,0a2.45,2.45,0,0,1-.76.71.45.45,0,0,0-.24-.21,1,1,0,0,0-.68,0l-.11,0,.15.46a.4.4,0,0,0-.19.23L513,224.34l0-.07a.45.45,0,0,0-.24-.25l.47,1.34a.45.45,0,0,0,0-.33l0-.07,5.62-2.07a.36.36,0,0,0,.29.05l.15.46.11,0c.42-.15.69-.52.59-.81l0-.07c.79-.11,1.46.11,1.61.58v0c.16.48-.23,1.09-.93,1.52a.74.74,0,0,0-.9-.18l-.11,0,.15.46a.4.4,0,0,0-.19.23L514,227.24l0-.07a.42.42,0,0,0-.19-.22l.43,1.25a.45.45,0,0,0,0-.27l0-.07,5.62-2.07a.37.37,0,0,0,.29.05l.15.46.11,0a1,1,0,0,0,.54-.43.49.49,0,0,0,0-.38v0a1.51,1.51,0,0,1,1.7.84l0,.05a1.65,1.65,0,0,1-.83,1.77.46.46,0,0,0-.26-.26.94.94,0,0,0-.68,0l-.11,0,.15.46a.39.39,0,0,0-.19.23l-5.62,2.07,0-.07a.4.4,0,0,0-.13-.18l.4,1.15a.43.43,0,0,0,0-.2l0-.07,5.62-2.07a.36.36,0,0,0,.29.05l.15.46.11,0a.8.8,0,0,0,.6-.75,1.77,1.77,0,0,1,1.81,1.16l0,.06a1.91,1.91,0,0,1-.73,2.1.73.73,0,0,0-.92-.19l-.11,0,.15.46a.4.4,0,0,0-.19.23l-5.62,2.07,0-.07,0,0,.25.73,5.62-2.07a.37.37,0,0,0,.29.06l.16.46.11,0c.4-.15.65-.48.6-.76a1.78,1.78,0,0,1,1.81,1.16l0,.06a1.91,1.91,0,0,1-.72,2.09.73.73,0,0,0-.93-.22l-.11,0,.15.46a.39.39,0,0,0-.19.23L517.93,239l.22.62,5.57-2a.36.36,0,0,0,.29.05l.15.46.11,0a.8.8,0,0,0,.6-.74,1.77,1.77,0,0,1,1.81,1.16l0,.06s0,.05,0,.07v0l3.14-1.14,0-.06-.43-1.3a.89.89,0,0,0,.46-.48l-.43-1.27A.83.83,0,0,0,528.81,234.36Z"/><path class="cls-7" d="M560.49,226.18l-4.66-14a1.27,1.27,0,0,0-.45.08,1.18,1.18,0,0,0-.78,1.43l.15.46-2.85,1-.11-.33c-.11-.34-.6-.47-1.09-.29l-.11,0,.14.42a.66.66,0,0,0-.3.31l-12.35,4.54a.73.73,0,0,0-.86-.32L538,222l6.93-2.55a3.91,3.91,0,0,1,5.2,2.17,4.21,4.21,0,0,1-2.78,5.1l-7,2.56,1.3,4,18.85-6.82Z"/><path class="cls-7" d="M540.36,229.32l-2.42-7.27.1,0-.81-2.45-.11,0-1.47-4.41a.63.63,0,0,0-.83-.34.73.73,0,0,0-.39.34.58.58,0,0,0,0,.48l.1.31-2.16.79a2.55,2.55,0,0,1-.82.76v0c-.1-.29-.52-.41-.94-.25l-.11,0,.15.46a.4.4,0,0,0-.19.23L524.77,220l0-.07a.45.45,0,0,0-.27-.27h0l.48,1.42h0a.47.47,0,0,0,0-.38l0-.07,5.62-2.07a.36.36,0,0,0,.29.05l.15.46.11,0a1,1,0,0,0,.54-.43.48.48,0,0,0,0-.38l-.06-.18c.85-.13,1.58.11,1.76.64v0c.18.53-.25,1.19-1,1.65v0c-.1-.29-.52-.41-.94-.25l-.11,0,.15.46a.39.39,0,0,0-.19.24l-5.62,2.06,0-.07a.45.45,0,0,0-.26-.25l.46,1.37a.47.47,0,0,0,0-.36l0-.07,5.62-2.07a.37.37,0,0,0,.29.05l.15.46.11,0c.43-.16.69-.52.58-.82l0-.12a1.63,1.63,0,0,1,1.84.9l0,.05a1.76,1.76,0,0,1-.9,1.91l0-.09c-.1-.29-.52-.41-.94-.25l-.11,0,.15.46a.41.41,0,0,0-.19.24l-5.62,2.06,0-.07a.44.44,0,0,0-.24-.25l.45,1.35a.47.47,0,0,0,0-.34l0-.07,5.62-2.07a.37.37,0,0,0,.29.05l.15.46.11,0c.42-.16.69-.52.59-.82l0,0a1.88,1.88,0,0,1,2,1.23l0,.06A2,2,0,0,1,535,228v0c-.1-.3-.52-.41-.94-.25l-.11,0,.15.46a.39.39,0,0,0-.19.23l-5.62,2.07,0-.07a.43.43,0,0,0-.22-.24l.44,1.31a.45.45,0,0,0,0-.31l0-.07,5.62-2.06a.38.38,0,0,0,.29.05l.15.46.11,0a1,1,0,0,0,.54-.43.47.47,0,0,0,0-.38l0,0a1.87,1.87,0,0,1,1.95,1.22l0,.06a2,2,0,0,1-.8,2.24l0-.07a.44.44,0,0,0-.26-.27,1,1,0,0,0-.68,0l-.11,0,.15.46a.39.39,0,0,0-.19.23l-5.62,2.07,0-.07a.42.42,0,0,0-.19-.22l.43,1.27a.43.43,0,0,0,0-.29l0-.07,5.62-2.07a.35.35,0,0,0,.29.06l.15.46.11,0c.42-.16.68-.52.59-.81v0a1.88,1.88,0,0,1,2,1.23l0,.06s0,0,0,.06,0,.08,0,.12l3.1-1.12-1.3-4Z"/><polygon class="cls-7" points="516.72 235.54 516.73 235.56 516.73 235.56 516.72 235.54"/><path class="cls-7" d="M517.88,239l0-.07c-.09-.27-.46-.39-.84-.28l-.78-2.35c.36-.17.58-.5.49-.78v0l0,0h0l-.25-.73a.68.68,0,0,0-.82-.25l-.79-2.39a1,1,0,0,0,.44-.39.57.57,0,0,0,.06-.18l-.4-1.15a.81.81,0,0,0-.71-.1l-.53-1.6a.88.88,0,0,0,.48-.51l-.43-1.25a.82.82,0,0,0-.65-.07l-.36-1.08a1,1,0,0,0,.44-.39l0-.06-.47-1.34h0a.93.93,0,0,0-.58,0l0-.15a.63.63,0,0,0-.83-.35.68.68,0,0,0-.45.82l.07.22-2.2.81,0,0a2.39,2.39,0,0,1-.76.71.47.47,0,0,0-.24-.21,1,1,0,0,0-.68,0l-.11,0,.15.46a.4.4,0,0,0-.19.23l-5.53,2,.21.63,5.53-2a.37.37,0,0,0,.29.05l.15.46.11,0c.43-.16.69-.52.59-.81l0-.08c.79-.12,1.45.1,1.61.58v0c.16.47-.24,1.09-.93,1.51a.75.75,0,0,0-.91-.18l-.11,0,.15.46a.38.38,0,0,0-.19.23l-5.53,2,.21.62,5.53-2a.37.37,0,0,0,.29.06l.15.46.11,0c.42-.16.68-.52.59-.82v0a1.52,1.52,0,0,1,1.7.84l0,.05a1.64,1.64,0,0,1-.83,1.77c-.1-.29-.52-.4-.94-.24l-.11,0,.15.46a.41.41,0,0,0-.19.23l-5.53,2,.21.62,5.53-2a.35.35,0,0,0,.29.06l.15.46.11,0a1,1,0,0,0,.54-.43.5.5,0,0,0,.06-.32,1.77,1.77,0,0,1,1.81,1.16l0,.06a1.91,1.91,0,0,1-.73,2.1.74.74,0,0,0-.92-.19l-.1,0,.15.46a.38.38,0,0,0-.19.23l-5.54,2,.21.63,5.53-2a.37.37,0,0,0,.29.05l.15.46.11,0c.4-.15.65-.48.6-.76a1.76,1.76,0,0,1,1.81,1.16l0,.06a1.91,1.91,0,0,1-.73,2.09.44.44,0,0,0-.25-.23,1,1,0,0,0-.67,0l-.11,0,.15.46a.43.43,0,0,0-.19.23l-5.53,2,.21.62,5.53-2a.38.38,0,0,0,.29.06l.15.46.11,0a.8.8,0,0,0,.6-.74,1.77,1.77,0,0,1,1.82,1.16l0,.07a.31.31,0,0,1,0,.05l3.14-1.13-.43-1.3c.37-.17.58-.5.49-.78l0-.07.05,0-.22-.62Z"/><path class="cls-4" d="M482.45,252.07l0-.07c-.09-.27-.45-.39-.83-.29l-.78-2.36c.36-.17.57-.5.48-.77l0-.07.15-.06-.21-.63-.15.06,0-.07c-.09-.27-.45-.39-.83-.29l-.79-2.39c.36-.17.57-.5.48-.77l0-.07.17-.06-.21-.63-.17.06,0-.07a.44.44,0,0,0-.27-.27.85.85,0,0,0-.56,0l-.53-1.6a1,1,0,0,0,.43-.39.47.47,0,0,0,0-.38l0-.07.18-.07-.21-.63-.19.07,0-.07c-.09-.27-.45-.39-.84-.29l-.36-1.08c.36-.17.57-.5.48-.76l0-.07.2-.07-.21-.63-.2.07,0-.07a.44.44,0,0,0-.26-.27.87.87,0,0,0-.57,0l0-.15a.63.63,0,0,0-.83-.35.68.68,0,0,0-.45.82l.07.21-2.2.81,0,0a2.38,2.38,0,0,1-.76.71.74.74,0,0,0-.92-.2l-.11,0,.15.46a.39.39,0,0,0-.19.23l-5.62,2.07,0-.07c-.09-.27-.46-.39-.84-.28l0-.15a.62.62,0,0,0-.83-.35.74.74,0,0,0-.4.34.61.61,0,0,0,0,.48l5.9,17.72,1.28-.46-.35-1.05c.36-.17.58-.5.49-.78l0-.07L476.5,255a.36.36,0,0,0,.29.05l.15.46.11,0a.8.8,0,0,0,.6-.74,1.77,1.77,0,0,1,1.79,1.09l3.13-1.13-.37-1.12a1,1,0,0,0,.43-.39.48.48,0,0,0,0-.38l0-.07.13,0-.21-.63Zm-16.58-7.83-.36-1.07a1,1,0,0,0,.44-.39.5.5,0,0,0,0-.38l0-.07,5.62-2.07a.38.38,0,0,0,.29.06l.15.46.11,0a1,1,0,0,0,.54-.43.48.48,0,0,0,0-.38l0-.08c.79-.12,1.46.11,1.62.58v0c.16.48-.23,1.09-.93,1.52a.47.47,0,0,0-.23-.19.93.93,0,0,0-.68,0l-.11,0,.16.46a.39.39,0,0,0-.19.23l-5.63,2.07,0-.07C466.63,244.25,466.27,244.14,465.87,244.25Zm1.14,3.42-.53-1.6a1,1,0,0,0,.44-.39.48.48,0,0,0,0-.38l0-.07,5.62-2.07a.37.37,0,0,0,.29.06l.15.46.11,0a1,1,0,0,0,.54-.43.48.48,0,0,0,0-.38h0a1.51,1.51,0,0,1,1.7.84l0,.05a1.64,1.64,0,0,1-.83,1.77c-.1-.29-.52-.4-.94-.24l-.11,0,.15.46a.4.4,0,0,0-.19.23L467.88,248l0-.07C467.77,247.68,467.4,247.56,467,247.67Zm1.4,4.21-.8-2.39a1,1,0,0,0,.44-.39.48.48,0,0,0,0-.39l0-.07,5.62-2.07a.38.38,0,0,0,.29.05l.15.46.11,0a1,1,0,0,0,.54-.43.52.52,0,0,0,.06-.32,1.77,1.77,0,0,1,1.81,1.16l0,.06a1.9,1.9,0,0,1-.73,2.1.74.74,0,0,0-.91-.19l-.11,0,.15.46a.43.43,0,0,0-.19.23l-5.62,2.07,0-.07a.43.43,0,0,0-.27-.27A.89.89,0,0,0,468.41,251.88Zm9,1.95a.44.44,0,0,0-.25-.23.93.93,0,0,0-.68,0l-.11,0,.15.46a.4.4,0,0,0-.19.23l-5.62,2.07,0-.07a.45.45,0,0,0-.27-.27.88.88,0,0,0-.58,0L469,253.7a1,1,0,0,0,.44-.39.49.49,0,0,0,0-.38l0-.07,5.62-2.07a.38.38,0,0,0,.29.06l.15.46.11,0a1,1,0,0,0,.54-.43.48.48,0,0,0,.06-.33,1.77,1.77,0,0,1,1.81,1.16l0,.07A1.91,1.91,0,0,1,477.37,253.82Z"/><path class="cls-14" d="M499.71,266.43l-.37-1.1a1,1,0,0,0,.44-.39.49.49,0,0,0,.06-.3l-.31-.93a.44.44,0,0,0-.22-.19.9.9,0,0,0-.58,0l-.56-1.66a.76.76,0,0,0,.5-.68l-.32-1a.46.46,0,0,0-.2-.17.91.91,0,0,0-.58,0l-.79-2.36a1,1,0,0,0,.45-.39.51.51,0,0,0,.06-.23l-.34-1a.74.74,0,0,0-.77-.17l-.8-2.42a.8.8,0,0,0,.51-.61l-.36-1.07a.74.74,0,0,0-.75-.14l-.35-1-.05-.16-3.13,1.13h0l0,.06s0,.08,0,.12a1.92,1.92,0,0,1-.74,2,.73.73,0,0,0-.92-.2l-.11,0,.15.46a.4.4,0,0,0-.19.23l-5.5,2,.21.63,5.5-2a.37.37,0,0,0,.29.05l.16.46.11,0a.81.81,0,0,0,.6-.73,1.77,1.77,0,0,1,1.82,1.16l0,.07a1.91,1.91,0,0,1-.73,2.1.75.75,0,0,0-.92-.19l-.11,0,.15.46a.39.39,0,0,0-.19.23l-5.52,2,.21.63,5.52-2a.38.38,0,0,0,.29.05l.15.46.11,0a1,1,0,0,0,.54-.43.48.48,0,0,0,.06-.33,1.76,1.76,0,0,1,1.81,1.16l0,.07a1.91,1.91,0,0,1-.73,2.1.73.73,0,0,0-.92-.2l-.11,0,.15.46a.4.4,0,0,0-.19.23l-5.54,2,.21.63,5.54-2a.38.38,0,0,0,.29.06l.15.46.11,0a1,1,0,0,0,.54-.43.49.49,0,0,0,.05-.36,1.51,1.51,0,0,1,1.7.84l0,.05a1.64,1.64,0,0,1-.84,1.77.45.45,0,0,0-.25-.23,1,1,0,0,0-.68,0l-.11,0,.16.46a.41.41,0,0,0-.2.23l-5.55,2,.21.63,5.55-2a.36.36,0,0,0,.29.06l.15.46.11,0c.41-.15.67-.5.59-.79.79-.12,1.46.11,1.61.58v0c.16.48-.23,1.09-.92,1.51a.44.44,0,0,0-.26-.26,1,1,0,0,0-.68,0l-.11,0,.15.46a.38.38,0,0,0-.19.23l-5.56,2,.21.63,5.57-2a.36.36,0,0,0,.29.05l.15.46.11,0a1,1,0,0,0,.54-.43.48.48,0,0,0,0-.38v0a2.28,2.28,0,0,1,1,0h0l2.24-.82.11.33a.56.56,0,0,0,.32.34.7.7,0,0,0,.51,0l.09,0a.73.73,0,0,0,.3-.29.6.6,0,0,0,0-.48l0-.15a1,1,0,0,0,.45-.39.51.51,0,0,0,.05-.32l-.29-.88A.69.69,0,0,0,499.71,266.43Z"/><path class="cls-13" d="M535.71,253.42a.89.89,0,0,0-.57,0l-.36-1.1a.81.81,0,0,0,.49-.61l-.37-1.09a.49.49,0,0,0-.16-.1.88.88,0,0,0-.57,0l-.56-1.66a1,1,0,0,0,.43-.39.53.53,0,0,0,.06-.18l-.39-1.15A.8.8,0,0,0,533,247l-.79-2.37a1,1,0,0,0,.43-.39.56.56,0,0,0,0-.15l-.4-1.19a.53.53,0,0,0-.12-.08.89.89,0,0,0-.57,0l-.81-2.42a1,1,0,0,0,.44-.39.53.53,0,0,0,0-.12l-.41-1.23a.81.81,0,0,0-.67-.08l-.34-1-3.14,1.14a1.92,1.92,0,0,1-.75,2,.74.74,0,0,0-.92-.2l-.11,0,.15.46a.4.4,0,0,0-.19.23l-5.53,2,.22.63,5.52-2a.37.37,0,0,0,.29.06l.16.46.11,0a1,1,0,0,0,.54-.43.47.47,0,0,0,.07-.29,1.76,1.76,0,0,1,1.82,1.16l0,.06a1.91,1.91,0,0,1-.73,2.1.75.75,0,0,0-.92-.19l-.11,0,.16.46a.4.4,0,0,0-.19.23l-5.48,2,.22.62,5.47-2a.39.39,0,0,0,.29.06l.15.46.11,0a1,1,0,0,0,.54-.43.46.46,0,0,0,.06-.33,1.77,1.77,0,0,1,1.81,1.16l0,.06a1.91,1.91,0,0,1-.73,2.1.49.49,0,0,0-.24-.22,1,1,0,0,0-.68,0l-.11,0,.15.46a.4.4,0,0,0-.19.23l-5.42,2,.22.62,5.42-2a.38.38,0,0,0,.29.06l.15.46.11,0c.41-.15.67-.5.59-.79a1.51,1.51,0,0,1,1.7.84l0,.05a1.65,1.65,0,0,1-.83,1.77.73.73,0,0,0-.93-.21l-.11,0,.15.46a.38.38,0,0,0-.19.23l-5.38,2,.22.62,5.38-2a.36.36,0,0,0,.28.06l.15.46.11,0a1,1,0,0,0,.54-.43.49.49,0,0,0,.05-.36c.79-.12,1.45.1,1.62.58v0c.16.47-.24,1.09-.92,1.51-.1-.3-.51-.4-.94-.25l-.11,0,.15.46a.39.39,0,0,0-.19.23l-5.35,2,.22.62,5.34-2a.37.37,0,0,0,.29.05l.15.46.11,0c.42-.16.69-.52.59-.82v0a2.28,2.28,0,0,1,1,0h0l2.24-.82.11.33a.55.55,0,0,0,.32.34.7.7,0,0,0,.51,0l.09,0a.75.75,0,0,0,.31-.29.62.62,0,0,0,0-.48l0-.15a1,1,0,0,0,.43-.38.53.53,0,0,0,.06-.26l-.34-1A.5.5,0,0,0,535.71,253.42Z"/><path class="cls-14" d="M547.58,251l-.27-.81.27.83Z"/><path class="cls-14" d="M545,243.16l-1.77-5.31,0,0-1.51-4.58-3.1,1.12a2,2,0,0,1-.83,2.05l0,0c-.1-.29-.52-.41-.94-.25l-.11,0,.15.46a.4.4,0,0,0-.19.23l-5.62,2.07,0-.07a.41.41,0,0,0-.17-.2l.41,1.23a.45.45,0,0,0,0-.27l0-.06,5.62-2.07a.39.39,0,0,0,.29.05l.15.46.11,0c.42-.15.69-.52.59-.82v0a1.88,1.88,0,0,1,2,1.23l0,.06a2,2,0,0,1-.79,2.24l0,0c-.1-.3-.52-.41-.94-.26l-.11,0,.15.46a.4.4,0,0,0-.19.23l-5.62,2.06,0-.07a.41.41,0,0,0-.15-.19l.4,1.19a.43.43,0,0,0,0-.23l0-.07,5.62-2.06a.39.39,0,0,0,.29.05l.15.46.11,0c.43-.16.69-.52.59-.82l0-.05a1.88,1.88,0,0,1,2,1.23l0,.07a2,2,0,0,1-.8,2.23l0,0c-.1-.29-.52-.41-.94-.25l-.11,0,.15.46a.39.39,0,0,0-.19.23l-5.62,2.07,0-.07a.4.4,0,0,0-.12-.18l.39,1.15a.45.45,0,0,0,0-.21l0-.07,5.62-2.07a.37.37,0,0,0,.29.05l.15.46.11,0a1,1,0,0,0,.54-.43.47.47,0,0,0,0-.38l0-.08a1.62,1.62,0,0,1,1.84.9l0,.05a1.76,1.76,0,0,1-.9,1.91l0-.06a.45.45,0,0,0-.26-.27,1,1,0,0,0-.68,0l-.11,0,.15.46a.4.4,0,0,0-.19.23L535,250.83l0-.07a.39.39,0,0,0-.1-.16l.37,1.09a.4.4,0,0,0,0-.16l0-.07,5.62-2.07a.38.38,0,0,0,.29.06l.15.46.11,0c.43-.16.69-.52.59-.81l0-.08c.85-.13,1.58.11,1.75.64v0c.18.53-.25,1.2-1,1.65l0-.1c-.1-.3-.52-.41-.94-.25l-.11,0,.16.46a.4.4,0,0,0-.19.23L536,253.76l0-.07a.4.4,0,0,0-.08-.12l.34,1a.43.43,0,0,0,0-.13l0-.07,5.62-2.07a.38.38,0,0,0,.29.06l.15.46.11,0a1,1,0,0,0,.54-.43A.47.47,0,0,0,543,252l0-.12a2.44,2.44,0,0,1,1,0l2.2-.81.14.42a.55.55,0,0,0,.32.34.7.7,0,0,0,.51,0l.09,0a.67.67,0,0,0,.36-.76l-.27-.83-1.18-3.54h0L545,243.15Z"/><path class="cls-14" d="M560.58,226.43l-18.85,6.82,1.51,4.58,6.92-2.54a2.86,2.86,0,0,1,3.8,1.58,2.74,2.74,0,0,1-.23,2.19,3.35,3.35,0,0,1-1.8,1.54L545,243.15l1.16,3.53c.41-.2.65-.56.57-.87l12.37-4.55,0,0a.63.63,0,0,0,.37,0l.14.42.11,0a1.17,1.17,0,0,0,.63-.5.55.55,0,0,0,.05-.44l-.13-.39,2.85-1,.15.46a1.09,1.09,0,0,0,1.46.61,1.44,1.44,0,0,0,.4-.23Z"/><path class="cls-14" d="M524.5,258l-.27.1,0-.07c-.09-.27-.46-.39-.84-.28l-.37-1.1a1,1,0,0,0,.44-.39.47.47,0,0,0,0-.38l0-.07.25-.09-.22-.62-.24.09,0-.07c-.09-.27-.46-.39-.84-.29l-.55-1.66c.37-.17.58-.5.49-.78l0-.07.2-.07-.22-.62-.2.07,0-.07a.43.43,0,0,0-.27-.27.89.89,0,0,0-.58,0l-.79-2.37c.36-.17.58-.5.49-.78l0-.07.15-.06-.22-.62-.15.05,0-.07c-.09-.28-.45-.39-.84-.28l-.8-2.42c.36-.17.58-.5.49-.78l0-.07.1,0-.22-.63-.1,0,0-.07c-.09-.27-.46-.39-.84-.29l-.36-1.07h0l-3.14,1.13a.16.16,0,0,0,0,0,1.91,1.91,0,0,1-.74,2,.73.73,0,0,0-.92-.2l-.11,0,.15.46a.4.4,0,0,0-.19.23l-5.54,2,.21.62,5.53-2a.38.38,0,0,0,.29.06l.15.46.11,0a.81.81,0,0,0,.61-.73,1.76,1.76,0,0,1,1.81,1.16l0,.06a1.91,1.91,0,0,1-.73,2.1.75.75,0,0,0-.92-.19l-.11,0,.15.46a.4.4,0,0,0-.19.23l-5.54,2,.21.62,5.54-2a.35.35,0,0,0,.29.06l.15.46.11,0a1,1,0,0,0,.54-.43.5.5,0,0,0,.06-.33,1.77,1.77,0,0,1,1.81,1.16l0,.06a1.91,1.91,0,0,1-.73,2.1.73.73,0,0,0-.92-.2l-.11,0,.15.46a.39.39,0,0,0-.19.23l-5.54,2,.21.63,5.54-2a.36.36,0,0,0,.29.06l.15.46.11,0a1,1,0,0,0,.54-.43.49.49,0,0,0,.05-.36,1.52,1.52,0,0,1,1.7.84l0,.05a1.65,1.65,0,0,1-.84,1.77.44.44,0,0,0-.25-.23,1,1,0,0,0-.68,0l-.11,0,.15.46a.43.43,0,0,0-.19.23l-5.54,2,.21.63,5.54-2a.36.36,0,0,0,.29.05l.15.46.11,0a1,1,0,0,0,.54-.43.48.48,0,0,0,.05-.36c.8-.12,1.46.1,1.62.58v0c.16.47-.23,1.09-.92,1.51a.44.44,0,0,0-.26-.26,1,1,0,0,0-.68,0l-.11,0,.15.46a.39.39,0,0,0-.2.23l-5.54,2,.21.63,5.54-2a.36.36,0,0,0,.29.05l.15.46.11,0a1,1,0,0,0,.54-.43.49.49,0,0,0,0-.38v0a2.29,2.29,0,0,1,1,0h0l2.24-.82.11.32a.55.55,0,0,0,.32.34.68.68,0,0,0,.51,0,.67.67,0,0,0,.45-.81l0-.15c.36-.17.58-.5.49-.77l0-.07.28-.1Z"/><path class="cls-13" d="M512.51,262.39l-.08,0,0-.07c-.1-.28-.49-.4-.9-.26l-.37-1.09a1,1,0,0,0,.5-.41.47.47,0,0,0,0-.38l0-.07.08,0-.21-.63-.08,0,0-.07c-.1-.28-.49-.4-.9-.27l-.55-1.66c.4-.16.64-.52.55-.8l0-.07.08,0-.21-.63-.09,0,0-.07a.45.45,0,0,0-.26-.27,1,1,0,0,0-.64,0l-.79-2.36c.4-.16.65-.52.55-.8l0-.07.09,0-.21-.62-.09,0,0-.07c-.1-.29-.49-.4-.9-.27l-.8-2.41c.4-.16.64-.51.55-.8l0-.07.08,0-.21-.62-.09,0,0-.07c-.1-.28-.49-.4-.9-.26l-.35-1.06,0-.09-3.13,1.13h0s0,.07,0,.1a1.92,1.92,0,0,1-.74,2,.74.74,0,0,0-.92-.2l-.11,0,.15.46a.41.41,0,0,0-.19.23l-5.62,2.07,0-.07a.42.42,0,0,0-.09-.14l.36,1.07a.41.41,0,0,0,0-.17l0-.07,5.62-2.07a.39.39,0,0,0,.29.05l.15.46.11,0a.81.81,0,0,0,.61-.73,1.77,1.77,0,0,1,1.81,1.16l0,.06a1.91,1.91,0,0,1-.73,2.1.74.74,0,0,0-.91-.19l-.11,0,.15.46a.4.4,0,0,0-.19.23l-5.62,2.07,0-.07A.41.41,0,0,0,497,256l.34,1a.45.45,0,0,0,0-.15l0-.07,5.62-2.07a.37.37,0,0,0,.29.06l.15.46.11,0a1,1,0,0,0,.54-.43.5.5,0,0,0,.06-.33,1.77,1.77,0,0,1,1.81,1.16l0,.06a1.91,1.91,0,0,1-.73,2.09.73.73,0,0,0-.92-.2l-.11,0,.15.46a.4.4,0,0,0-.19.23l-5.62,2.06,0-.06a.4.4,0,0,0-.06-.1l.32,1a.38.38,0,0,0,0-.1l0-.07,5.62-2.07a.36.36,0,0,0,.29.05l.15.46.11,0a1,1,0,0,0,.54-.43.48.48,0,0,0,.05-.36,1.51,1.51,0,0,1,1.7.84l0,.05a1.64,1.64,0,0,1-.83,1.77.47.47,0,0,0-.25-.23,1,1,0,0,0-.68,0l-.11,0,.15.46a.39.39,0,0,0-.19.23l-5.63,2.07,0-.07a.43.43,0,0,0,0-.08l.31.93a.47.47,0,0,0,0-.09l0-.07,5.62-2.07a.38.38,0,0,0,.29.06l.15.46.11,0a1,1,0,0,0,.54-.43.47.47,0,0,0,.05-.36c.8-.12,1.46.1,1.62.58v0c.16.47-.23,1.09-.92,1.51A.44.44,0,0,0,507,264a.93.93,0,0,0-.68,0l-.11,0,.15.46a.39.39,0,0,0-.19.23l-5.62,2.07,0-.07,0,0,.29.88a.48.48,0,0,0,0-.07l0-.07,5.62-2.07a.36.36,0,0,0,.29.06l.15.46.11,0a1,1,0,0,0,.54-.43.47.47,0,0,0,.05-.39v0a2.34,2.34,0,0,1,1,0h0l2.24-.83.11.33a.55.55,0,0,0,.32.34.68.68,0,0,0,.51,0l.09,0a.71.71,0,0,0,.3-.29.62.62,0,0,0,.05-.48l-.05-.14c.4-.16.64-.52.55-.8l0-.07.08,0Z"/><path class="cls-13" d="M488.79,271.12l0-.07c-.09-.27-.45-.39-.83-.29l-.36-1.1a1,1,0,0,0,.43-.39.47.47,0,0,0,0-.39l0-.07.07,0-.21-.63-.07,0,0-.07a.43.43,0,0,0-.27-.27.87.87,0,0,0-.57,0l-.56-1.67c.36-.17.57-.5.48-.77l0-.07.08,0-.21-.63-.08,0,0-.07c-.09-.27-.45-.39-.83-.29L485,262a1,1,0,0,0,.43-.39.47.47,0,0,0,0-.38l0-.07.1,0-.21-.63-.1,0,0-.07c-.09-.27-.45-.39-.83-.29l-.8-2.42a1,1,0,0,0,.43-.39.48.48,0,0,0,0-.38l0-.07.12,0-.21-.63-.12,0,0-.07c-.09-.27-.44-.39-.83-.29l-.34-1-.08-.24-3.13,1.13,0,.07,0,.07a1,1,0,0,1,0,.13,1.92,1.92,0,0,1-.75,2,.45.45,0,0,0-.24-.22.93.93,0,0,0-.68,0l-.11,0,.15.46a.41.41,0,0,0-.19.23l-5.62,2.07,0-.07c-.09-.27-.46-.39-.84-.29l-.34-1-.1-.31-1.28.46.11.32,5.93,17.83a.56.56,0,0,0,.32.34.69.69,0,0,0,.51,0,.68.68,0,0,0,.44-.82l0-.15c.36-.17.58-.5.49-.78l0-.07,5.62-2.07a.38.38,0,0,0,.29.05l.15.46.11,0c.42-.15.68-.52.58-.81v0a2.29,2.29,0,0,1,1,0h0l2.24-.82.11.33a.55.55,0,0,0,.32.34.71.71,0,0,0,.51,0l.09,0a.72.72,0,0,0,.3-.29.58.58,0,0,0,0-.48l0-.15c.36-.17.57-.5.48-.77l0-.07.06,0-.21-.63Zm-16.17-6.62-.8-2.42a1,1,0,0,0,.44-.39.48.48,0,0,0,0-.38l0-.06,5.62-2.07a.36.36,0,0,0,.29.05l.15.46.11,0a.82.82,0,0,0,.61-.73,1.77,1.77,0,0,1,1.82,1.16l0,.07a1.92,1.92,0,0,1-.73,2.1.45.45,0,0,0-.24-.21.94.94,0,0,0-.68,0l-.11,0,.16.46a.4.4,0,0,0-.19.23l-5.62,2.07,0-.07C473.37,264.51,473,264.39,472.62,264.5Zm1.39,4.19-.79-2.36c.36-.17.58-.5.49-.78l0-.07,5.62-2.07a.36.36,0,0,0,.29.05l.16.46.11,0c.4-.15.65-.48.6-.76a1.77,1.77,0,0,1,1.81,1.16l0,.07a1.91,1.91,0,0,1-.73,2.09.74.74,0,0,0-.92-.2l-.11,0,.15.46a.4.4,0,0,0-.19.23L474.88,269l0-.07C474.76,268.7,474.4,268.59,474,268.69Zm1.16,3.49-.55-1.67c.36-.17.58-.5.49-.77l0-.07,5.62-2.07a.36.36,0,0,0,.29.05l.15.46.11,0c.41-.15.67-.51.59-.8a1.52,1.52,0,0,1,1.7.84v.05a1.64,1.64,0,0,1-.83,1.77.73.73,0,0,0-.93-.21l-.11,0,.15.46a.39.39,0,0,0-.19.23L476,272.53l0-.07C475.92,272.19,475.56,272.07,475.17,272.17Zm8.55.72c-.1-.29-.52-.4-.94-.25l-.11,0,.15.46a.41.41,0,0,0-.19.23L477,275.45l0-.07a.44.44,0,0,0-.27-.26.89.89,0,0,0-.58,0l-.37-1.1c.36-.17.58-.5.49-.78l0-.07,5.62-2.07a.37.37,0,0,0,.29.05l.15.46.11,0c.41-.15.67-.5.59-.79.79-.12,1.45.1,1.62.58v0C484.8,271.87,484.41,272.47,483.72,272.9Z"/><path class="cls-7" d="M472.66,276.64l-.68.25-.27-.8.68-.25a2.93,2.93,0,0,0,2-3.49,2.73,2.73,0,0,0-3.65-1.42l-.68.25-.29-.86.68-.25a3.12,3.12,0,0,0,1.89-3.87,2.89,2.89,0,0,0-3.77-1.79l-.68.25-.28-.84.68-.25a3.11,3.11,0,0,0,1.91-3.76h0c0-.07-.07-.14-.1-.21l-15.51,5.61.21.4h0l1.19,2.28,9.31-3.32a.34.34,0,0,0,0,.08l.28.85,0,.07L456.61,269l2.65,5.06,8.25-2.94a.53.53,0,0,0,0,.08l.28.85,0,.07-8,3,2.23,4.25,7.34-2.62s0,.05,0,.08l.29.85,0,.07-7.11,2.69.56,1.07L475.66,277A3.08,3.08,0,0,0,472.66,276.64Z"/><path class="cls-7" d="M468.6,258.06a2.91,2.91,0,0,0-2.14,0l-.68.25-.26-.77.68-.25a3.12,3.12,0,0,0,1.65-1.44,3.06,3.06,0,0,0,.23-2.43,2.88,2.88,0,0,0-3.76-1.78l-.68.25-.29-.86.68-.25a3.33,3.33,0,0,0,1.79-1.51,2.46,2.46,0,0,0,.21-2,2.3,2.3,0,0,0-1.34-1.41,3.14,3.14,0,0,0-2.3,0l-.68.25-.27-.8.68-.25a3.24,3.24,0,0,0,2.17-2.29c-2.2.81-8.29,3.83-12.7,6l7.58-2.7a.25.25,0,0,0,0,.08l.28.85a.3.3,0,0,0,0,.07l-11.22,4.25,0,.14a1,1,0,0,1-.41,1l1.73,3.3,11.4-4,0,.08.28.85,0,.07-11.11,4.2,2.59,5,10.33-3.69a.31.31,0,0,0,0,.08l.28.85,0,.07L453.46,263l1.15,2.2,15.51-5.61A2.85,2.85,0,0,0,468.6,258.06Z"/><path class="cls-4" d="M105.4,296.1s0,0,0,.09l-4.93,4.26,1.17,1.33,4.94-4.3a1.28,1.28,0,0,0,1.36-1.58l-2.86-.19.31.36Z"/><path class="cls-13" d="M106.79,294.89h0l-5.83-6.71-1.34,1.16,5.5,6.35,2.86.19A1.3,1.3,0,0,0,106.79,294.89Z"/><path class="cls-4" d="M117.81,296.55c0,.14,0,.28,0,.42a11.13,11.13,0,0,1-22.2-1.56c0-.12,0-.23,0-.34l-1.48-.1-1,13.51h0L93,311l1.74.12,0-.39,22.42,1.58,1.1-15.69Z"/><polygon class="cls-7" points="118.32 296.58 117.22 312.27 117.25 312.27 117.32 311.22 172.4 315.1 172.08 319.6 178.7 320.06 180.06 300.71 118.32 296.58"/><path class="cls-6" d="M51.7,292.13l0,.49c2.68.62,20,8,21,8.5v.13l7.53.53,10.44,6.5h0l2.6.18,1-13.51Z"/><path class="cls-15" d="M95.23,279.65l-.17,2.47-2.61-.18-11.24,5v0l-7.54-.53v.11c-1.08.38-19.22,5.25-22,5.49v.12L94.16,295l1.1-15.32Z"/><path class="cls-13" d="M96.95,280.15l0-.38-1.71-.12L94.16,295l1.48.1a11.12,11.12,0,0,1,22.17,1.48l.51,0,1-14.86Z"/><polygon class="cls-14" points="181.33 282.63 174.72 282.17 174.4 286.67 119.33 282.79 119.41 281.73 119.36 281.72 118.32 296.58 180.06 300.71 181.33 282.63"/><polygon class="cls-7" points="346.61 514.62 346.61 514.61 346.23 514.64 346.61 514.62"/><path class="cls-7" d="M349.84,521a5,5,0,0,0-4.51-4.67l0-1.58-.85.06,3,40.66-.24-8.74-.42-15.22a1.8,1.8,0,0,0,.42-1.29L347,526.1a1.38,1.38,0,0,0,0-.23A5,5,0,0,0,349.84,521Z"/><path class="cls-4" d="M345.31,514.7l.93-.06.38,0a.65.65,0,0,0-.09-1.29l-1.24.09h0l-.92.06.1,1.29.85-.06Z"/><path class="cls-7" d="M356.15,458.66l-15.54,1.07h0l-.25,0,4,53.72.92-.06-.6-36.81a3.34,3.34,0,0,0,2.49-1.4s5.32-4,5.14-9.82a3.81,3.81,0,0,0,1.46-3.76A2.93,2.93,0,0,0,356.15,458.66Z"/><path class="cls-14" d="M340.36,459.75l-15.26,1a2.93,2.93,0,0,0,2.76,2.61,3.8,3.8,0,0,0,2,3.52c.61,5.77,6.43,9,6.43,9a3.35,3.35,0,0,0,2.66,1l4.43,36.54,1-.07Z"/><path class="cls-13" d="M344.36,513.48l-1,.07h0l-1.24.08a.64.64,0,0,0,.09,1.29l1.3-.09h0l1-.07Z"/><path class="cls-14" d="M347.72,562.83l0-.68-.18-6.72-3-40.66-1,.07.19,1.57a5,5,0,0,0-.28,9.71,1.34,1.34,0,0,0,0,.23l.28,4.07a1.81,1.81,0,0,0,.59,1.23l1.66,15.14,1.69,15.38,0,.67v-.33Z"/><polygon class="cls-4" points="188.04 461.21 185.65 463.88 190.36 468.26 192.77 465.57 188.04 461.21"/><polygon class="cls-4" points="176.15 474.45 173.55 477.33 176.75 480.24 179.35 477.39 176.15 474.45"/><polygon class="cls-4" points="170.84 480.36 168.37 483.1 171.1 485.56 173.54 482.86 170.84 480.36"/><polygon class="cls-4" points="162.78 492.9 161.05 491.25 159.07 493.45 160.85 495.02 162.78 492.9"/><polygon class="cls-4" points="168.4 487.66 166.15 485.58 163.72 488.29 165.99 490.32 168.4 487.66"/><polygon class="cls-4" points="181.97 467.96 179.42 470.8 185.41 476.28 185.39 476.24 183.44 474.47 185.97 471.69 182.72 468.65 181.97 467.96"/><path class="cls-4" d="M201.38,457.54l1.88,1.64-7.36-6.72-3.69,4.11,5.53,5Z"/><path class="cls-7" d="M167.58,491.86l-1.64-1.49,0,0-2.27-2-2.67,3,1.73,1.64,0-.05,1.42,1.23a6.55,6.55,0,0,0,2.37.78,10.38,10.38,0,0,0,1.9-.33Z"/><path class="cls-7" d="M162.32,496.51l-1.55-1.4.07-.08-1.77-1.57-5,5.55.34-.06,1.31-.24,2.26-2.48,1.91,1.71a5.75,5.75,0,0,0,2,.66,2.63,2.63,0,0,1,1.18.2Z"/><path class="cls-7" d="M172.7,487.1,171,485.61l0-.05-2.72-2.46-2.23,2.48,2.26,2.08h0l1.31,1.13a7.47,7.47,0,0,0,2.6.88,2.22,2.22,0,0,1,1.42.36Z"/><path class="cls-7" d="M178.56,482l-1.84-1.68,0,0-3.2-2.91-2.72,3,2.71,2.51,0,0c.83.74,1.4,1.23,1.4,1.23a8.29,8.29,0,0,0,3,1,3.85,3.85,0,0,1,1.76.29Z"/><path class="cls-7" d="M185.41,476.28l-6-5.48-3.27,3.64,3.2,2.94,0,0c1,.87,1.69,1.49,1.69,1.49a9.82,9.82,0,0,0,3.53,1.17,6.73,6.73,0,0,1,2.17.23Z"/><path class="cls-7" d="M192.16,469.9l-1.82-1.66-4.69-4.37L182,468l.74.7,3.25,3,0,0c.79.72,1.33,1.18,1.33,1.18s2.54,1.36,3.85,1.28a13,13,0,0,1,2.5.11Z"/><path class="cls-7" d="M199.74,463.53l-2.09-1.9.08-.09-5.53-5L188,461.21l4.73,4.36,0,0c.88.77,1.46,1.3,1.46,1.3s2.92,1.54,4.45,1.47a10.06,10.06,0,0,1,2.75.25Z"/><path class="cls-7" d="M231.09,449.61a24.41,24.41,0,0,1,.08-2.64l-2.68-2.44,5.79-6.36-3.1-5.24-10.26-8.31L201,446.8l-5.09,5.67,7.36,6.72.13.12s3.52,1.88,5.34,1.79a19.45,19.45,0,0,1,3.48.14l-2.11-6-2.71-2.47,0,0,3.3-3.63a3.38,3.38,0,0,1,.28,1c7,4.74,21.74,8.36,22.87,7.66s-3.05-5.76-2.84-6.16A4.28,4.28,0,0,0,231.09,449.61Z"/><polygon class="cls-13" points="170.84 480.36 170.84 480.35 170.63 480.17 170.84 480.36"/><polygon class="cls-13" points="188.04 461.21 183.5 457.03 181.06 459.71 185.65 463.88 188.04 461.21"/><polygon class="cls-13" points="181.97 467.96 178.04 464.4 175.49 467.21 179.42 470.8 181.97 467.96"/><path class="cls-13" d="M176.15,474.45l-3.2-2.94,0,0-2.62,2.88,3.19,2.9Z"/><polygon class="cls-13" points="159.14 489.51 157.13 491.73 159.07 493.45 161.05 491.25 161 491.2 159.14 489.51"/><polygon class="cls-13" points="163.75 483.47 161.32 486.14 163.72 488.29 166.15 485.58 166.13 485.56 163.75 483.47"/><polygon class="cls-13" points="168.04 477.88 165.59 480.58 168.37 483.1 170.84 480.36 170.63 480.17 168.04 477.88"/><path class="cls-13" d="M195.9,452.47l-5.47-5,.16.2a.35.35,0,0,0,.07.08l-3.72,4.09,5.27,4.74Z"/><path class="cls-14" d="M178,464.39h0L182,468l3.68-4.09-4.58-4.17-.05.06-1.86-1.69-4-1.52a9.55,9.55,0,0,0,.22,3.21C175.78,462.11,177.31,463.42,178,464.39Z"/><path class="cls-14" d="M172.94,471.51l3.2,2.94,3.27-3.64-3.93-3.6,0,0-2-1.81L169.8,464a13.89,13.89,0,0,0,.33,2.8c.39,2.19,1.83,3.42,2.5,4.31Z"/><path class="cls-14" d="M157.1,491.76l-1.57-1.43-2.09-.79s0,.3.24,1.55a5.32,5.32,0,0,0,1.42,2.45c.07.09,1,.94,1.31,1.24l-2.25,2.47-.1,1.75h0l5-5.55-1.95-1.72Z"/><path class="cls-14" d="M161.32,486.14v0l-1.66-1.51-2.44-.92a3.74,3.74,0,0,0-.24,2.36,6.3,6.3,0,0,0,1.65,2.88,4.77,4.77,0,0,0,.53.54h0L161,491.2l.05,0,2.67-3Z"/><path class="cls-14" d="M165.58,480.58l0,0-1.67-1.52-2.71-1a10.22,10.22,0,0,1,.41,1.87,6.81,6.81,0,0,0,1.87,3.17,3,3,0,0,0,.3.36h0l2.38,2.09h0l2.23-2.48Z"/><path class="cls-14" d="M170.36,474.44l0,0-1.88-1.71-3.13-1.17s0,.43.36,2.3a7.7,7.7,0,0,0,2.1,3.63c.05.08.16.18.28.32l0,0,2.6,2.29.21.18,2.71-3Z"/><path class="cls-14" d="M183.5,457l4.54,4.19,4.16-4.63-5.27-4.74,0,0-2.15-2-4.61-1.73a13.2,13.2,0,0,0,.35,3.57c.47,2.64,2.13,4.16,3,5.25Z"/><path class="cls-14" d="M206.79,413.18,201,419.54l-4.15-3.77-1.23.45a3.29,3.29,0,0,1-2-.5c-.91-.64-5.11-1.67-5.41-1.17s2.4,9.6,3.87,12.9,4.07,8.81,4.82,9.09a8.23,8.23,0,0,1,1.56.84l-3.5,3.85-.08.08-2.79-2.54-5.55-2.1s-.3,1.15.27,4.47c.56,3.18,2.58,5,3.63,6.31l5.47,5L201,446.8l19.92-22.18Z"/><polygon class="cls-13" points="175.04 341.75 175.03 341.75 174.1 342.1 175.04 341.75"/><polygon class="cls-4" points="137.9 403.61 137.93 403.67 142.17 401.97 137.9 403.61"/><path class="cls-15" d="M176.18,344.74l-1.14-3-.93.35-21.5,8.31,7.89,20.6,3-1.21-2.57-19.06ZM156.72,355l2.14-.82,1.87,11.28Z"/><polygon class="cls-15" points="135.1 381.13 135.16 381.28 139.81 379.4 139.79 379.33 131.89 358.72 127.19 360.45 135.1 381.13"/><path class="cls-13" d="M170,328.62,151.07,336l-7.34-19.16-2,.78,3.27,8.54L140.13,328a23.54,23.54,0,0,0-1.56-9.25l-1.92.74c5.34,14-4.64,24.88-7.8,28.38L126.07,349s0,.07-.07.09l-7.83,3,0,.11-4.47,3-.07,0,.09.23.08,0,2.29-.23.56,1.46-4.94,3.31-.06-.16-.54.26.3.78.58-.17-.06-.16,5.95-.65.56,1.46-1.88,1.28-.07,0,.09.23.08,0,5.4-.6,0,.09,5.06-1.94,0,.08,4.71-1.73-.05-.13,2.59-1,1.09-.83,17-6.53.07.18,21.5-8.31-24.92,9.37,24.92-9.37.93-.36Z"/><path class="cls-13" d="M140,330l5.6-2.14,2.57,6.7-10.77,4.12A28.87,28.87,0,0,0,140,330Z"/><path class="cls-13" d="M132,347.16a52.78,52.78,0,0,0,4.13-6.15l12.62-4.83,1.51,4Z"/><path class="cls-13" d="M145.58,327.84,140,330a28.87,28.87,0,0,1-2.6,8.68l10.77-4.12Z"/><path class="cls-13" d="M148.79,336.18,136.17,341a52.78,52.78,0,0,1-4.13,6.15l18.26-7Z"/><path class="cls-6" d="M163.69,370.36l-.06-.16-.15-.38h0l-3,1.21.13.34,6.66,17.4,7.16-2.58Zm1.2,5.93,6.14,9.65-2.14.82Z"/><path class="cls-4" d="M195.38,397.23l-6.17-16.12-14.69,5.17-.07-.11-7.16,2.58,1.35,3.51-17,6.51-1.37.1-2.6,1,0-.08L143,401.66h0l-.79.3-4.25,1.7h0l-4.41,3.18-.07,0,.09.23.08,0,2.24-.31.56,1.48-4.87,3.5-.06-.14-.54.24.3.77.56-.17-.06-.15,5.89-.84.57,1.48-1.87,1.33-.07,0,.09.23.08,0,5.32-.74,0,.11,7.83-3,.11,0,2.78-1.07c4.7.49,19.44,1.94,24.84,16l1.6-.61.29-.2a23.62,23.62,0,0,0-4.95-7.91l4.76-1.82,3.24,8.45,2-.78L177,403.81Zm-40,11,18.26-7,1.56,4.08-12.46,4.77A58,58,0,0,0,155.42,408.22Zm23,5.44-5.53,2.12a27.62,27.62,0,0,0-7.67-4.76l10.64-4.07Z"/><polygon class="cls-6" points="139.81 379.4 135.16 381.28 142.97 401.65 147.62 399.8 139.81 379.4"/><path class="cls-15" d="M291.5,487.76l-.25,0a2.47,2.47,0,0,0-.51,4.92H291l.47-4.88Z"/><path class="cls-6" d="M291.52,487.76l-.47,4.88a2.47,2.47,0,0,0,.47-4.88Z"/><polygon class="cls-12" points="265.44 507.72 265.54 507.73 265.44 507.72 265.44 507.72"/><path class="cls-12" d="M278.34,509.1l-1.35,13s-.34,1.46-1.37,1.35-1.05-1.61-1.05-1.61l1.35-13-2.55-.27-1.35,13h0s-.32,1.46-1.37,1.35-1.06-1.61-1.06-1.61l1.35-13-5.06-.54L264,525.83l2,.2v.07l13.61,1.38v0l2,.2,1.87-18Z"/><path class="cls-12" d="M290.68,496.34h-.33a6.18,6.18,0,0,1,1.28-12.3l.24,0,2.43-25-25-2.6L266,488.39l1.47.15h0l-.87,8.37,23.83,2.52Zm-.79-35.58,3.23.34-.76,7.32-3.23-.34ZM272.83,459l3.23.34-.76,7.32-3.23-.34Zm.36,31a1.63,1.63,0,0,1-3.23-.34l.57-5.5,3.23.34Zm4.83.5a1.68,1.68,0,0,1-1.75,1.27,1.71,1.71,0,0,1-1.48-1.61l.57-5.5,3.23.34Zm2.12-23.33-3.23-.34.75-7.32,3.23.34Z"/><path class="cls-15" d="M266.56,496.91l-1.12,10.81h.1l.35,0h0l5.06.54v0l2.42.25v0l2.55.27v0l2.42.25v0l5.06.54v-.06l5.76.6.17,0,1-10.78Zm19.13,10.37-1.48-.15.69-6.68,1.48.15Zm3,.31-1.47-.15.69-6.68,1.47.15Z"/><polygon class="cls-15" points="265.96 526.1 265.64 529.15 266.68 529.26 266.47 531.33 267.38 532.51 268.53 531.54 268.75 529.48 279.25 530.57 279.57 527.49 265.96 526.1"/><polygon class="cls-6" points="295.95 529.15 295.62 532.27 306.11 533.36 305.89 535.43 306.83 536.61 307.97 535.64 308.19 533.58 309.22 533.68 309.55 530.57 311.51 530.77 311.51 530.74 295.59 529.12 295.95 529.15"/><path class="cls-9" d="M307,525.17s-.33,1.46-1.37,1.35-1.05-1.6-1.05-1.6l1.34-12.86-2.53-.27L302,524.66s-.32,1.46-1.36,1.35-1.06-1.61-1.06-1.61l1.34-12.88-5.07-.54-1.87,18,1.61.17,15.92,1.62,1.86-17.87-5.08-.55Z"/><path class="cls-6" d="M290.38,499.43l-1,10.78,6.52.68v.1l5.07.54v-.12l2.42.25v.13l2.53.27v-.13l2.42.25v.14l5.08.55,0-.16.78.08,1.12-10.73Zm1.36,8.48-1.48-.15.69-6.69,1.48.15Zm3,.31-1.48-.15.69-6.68,1.48.15Z"/><path class="cls-9" d="M316.16,493.61l.34,0,3.32-31.94-25.34-2.63-.18,0-2.43,25h0a6.17,6.17,0,0,1-1.2,12.27l-.3,3.08,24.9,2.63ZM307,462.53l3.24.34-.76,7.32-3.23-.34Zm-9.75,6.39-3.23-.34.76-7.32,3.23.34ZM307,493.5a1.64,1.64,0,0,1-3.23-.34l.57-5.5,3.24.34Zm4.84.5a1.63,1.63,0,0,1-3.23-.34l.57-5.5,3.23.34Zm-.8-23.64.76-7.32,3.22.34-.76,7.32Z"/><path class="cls-9" d="M179.91,263.15l4,1.54,0-.09-4-1.5Z"/><path class="cls-9" d="M179.91,263.15l-.56,1.48c-4.21-1.69-11.59-4.57-13.77-5l-1.49,3.8a32.86,32.86,0,0,0,6.82,3.91c1.84.84,4.48,2.11,6.54,3-.14.44-.1.49-.23.91a15.46,15.46,0,0,0-5.31-1.32c-2.92-.22-6-2.5-6.26-2.6a8.64,8.64,0,0,0-3.38.18,1.74,1.74,0,0,0-2.83-1.14c-.51.34-1.79,6.14-2.09,6.91a9.21,9.21,0,0,0,.47,4.3c.32.33,1-.33,1.59-1a.35.35,0,0,0,0,.1c.07.15,2.62,1.56,3,2.59.33.88,9.21,3.95,11.82,4.53-.38,3.66.37,4.64.37,4.64l9.22-23.78Zm-5,16c-3.55-1.26-11.62-4.94-12.46-5.16s-1.31-1.08-2-.34c.24-.73.5-1.53.74-2.31,2.27,1.2,10.5,4.38,14.35,6C175.51,277.51,175,279,174.93,279.15Z"/><path class="cls-4" d="M165.57,259.65l.68-1.69-5.69-2.14c-.8,2.49-1.53,4.79-1.66,5.13-.26.67,1.92,2.62,3,2.62s1.72.57,2.12-.19l.08.07,1.49-3.8Z"/><path class="cls-13" d="M169,251.13c-.08-.63-1.66-2-2.73-2.45s-2.66-1.21-3.59.92c-.45,1-1.31,3.63-2.1,6.08l0,.14,5.69,2.14,0-.09.7-1.76,0,0,2-5Z"/><path class="cls-12" d="M188,246.57c-2.48-.45-8.14-1.33-9.16-2.2a9.55,9.55,0,0,0-4.07-1.83c-1.6-.46-3-1.81-4-1.06s-1.52,2.6-1.79,3.57-.29,1.05,2.06,2.13,5.16,2.94,5.61,2.94,5,1.41,7.73,2.26c-.61,1.21-1.37,2.74-1.39,2.79-3.73-1.16-10-3.11-11.69-3.57a16.89,16.89,0,0,0-2.17-.47l-2,5c.92.4,9.25,4.2,13.36,5.77l-.46,1.21,4,1.5,9-23.18S191.18,241.78,188,246.57Z"/><path class="cls-4" d="M390.94,508.34c-.2-.06-.36-.35-.46-.32a1,1,0,0,0-.51.36c-.08.16-.17.2-.11.35s.28.29.37.4.57-.07.75-.14a.5.5,0,0,0,.26-.25C391.32,508.65,391.3,508.43,390.94,508.34Z"/><polygon class="cls-4" points="383.18 457.67 382.68 455.98 383.64 455.04 381.8 447.78 369.63 452.6 373.62 462.35 380.88 459.42 383.18 457.67"/><path class="cls-5" d="M408.93,491.44s-.8-.66-1.8-1.4a22.76,22.76,0,0,0-3.57-1.78,22,22,0,0,1-2.31,1.13,7.33,7.33,0,0,1-2.72.91c-.83,0-5.11.63-5.11.63l-2.76-8.75s-.78.21-1-.36a1.88,1.88,0,0,0-.84-.86l-8.21-21.33.28-.21-7.26,2.93,18.94,46.26a1.87,1.87,0,0,0,.4-.18c.18-.13.5-.2.38.12a1.36,1.36,0,0,1-.47.83l.32.78c1.47-1,.85-2.77.43-4.09s-1-4.62-1-4.62a15.57,15.57,0,0,0,1.64-.65c1.16-.51,2.65-2.08,3.61-2.24a10.69,10.69,0,0,0,3.29-1.9c.44-.39,7.5-3.08,8.2-3.36l-.38-1.85Z"/><path class="cls-4" d="M416.27,490.2c-.42-.54-3.86.08-5,.45s-2.2.73-2.36.78l.38,1.85,0,0a5.88,5.88,0,0,1,2.14.06,6,6,0,0,0,2.57-.75c.59-.29.2-.72.2-.72a11.16,11.16,0,0,0,1.22-.48C415.94,491.14,416.71,490.73,416.27,490.2Z"/><polygon class="cls-13" points="369.63 452.6 357.15 457.55 360.77 464.11 362.12 464.13 362.91 465.7 365.94 465.38 365.97 465.44 373.62 462.35 369.63 452.6"/><path class="cls-13" d="M368.82,506.52a10.92,10.92,0,0,1-1.57.95,16.55,16.55,0,0,0-3.92,2.8c-.86,1-.25,1.29.09,1.36A12.28,12.28,0,0,0,366,510.5s-.65.69-.6.94,1.65-1,2.2-1.42a5,5,0,0,0,1.06-1.12l.8-.59.24-.1-1-1.95Z"/><path class="cls-16" d="M392.87,509.36a1.63,1.63,0,0,1-.29.21,2.71,2.71,0,0,1-2,.34c-.41-.19-1-1.52-1.15-1.78a5.88,5.88,0,0,1-.36-2.21c.15-.46.41-.92.62-.89s.46.22.69.14.49-.21.54.05,0,1-.27,1.1-.34.14-.46.1a.54.54,0,0,0-.31,0,.48.48,0,0,0,.24.44,1.55,1.55,0,0,0,.55.16s.22.56.4.54a.78.78,0,0,0,.33-.11,5.69,5.69,0,0,0,.38,1.06c.12.12.17.26.42.18l.35-.11-18.94-46.26L366,465.44l3.5,7-.56.49,2.67,6.46-.34.79,7.85,16.4a27,27,0,0,0-3.39,2.1c-1.49,1.14-6.15,2.77-6.15,2.77a3,3,0,0,0-.91,1.5,7.32,7.32,0,0,0,.12,3.35l1,1.95c1-.43,5.07-2.11,6.45-2.66a24.07,24.07,0,0,1,6.55-.92,13,13,0,0,0,4-.94,7.63,7.63,0,0,1,.87,1.22c.15.37.94,2.23,1.86,4.3s2.69,1.6,3.65,1l.07-.05Z"/><rect class="cls-1" x="501.44" y="312.68" width="2.16" height="1.38" transform="matrix(1, -0.05, 0.05, 1, -15.1, 25.63)"/><polygon class="cls-1" points="499.34 298.07 498.87 297.07 496.83 296.97 497.17 297.93 499.34 298.07"/><polygon class="cls-1" points="499.32 305.27 501.47 305.16 501.28 303.84 499.12 303.95 499.32 305.27"/><path class="cls-1" d="M495.32,318.36a1.78,1.78,0,0,0-2-1.41l-3.17.16a2.38,2.38,0,0,0-.71.14c0,.46.08.93.12,1.4v.12c0,.45.08.9.12,1.36a2.46,2.46,0,0,0,.61,0l3.17-.16a1.79,1.79,0,0,0,1.86-1.56s0,0,0-.07A.23.23,0,0,0,495.32,318.36Z"/><path class="cls-1" d="M491.43,306.07a1.58,1.58,0,1,0-.15-3.06l-3.16.16a2.46,2.46,0,0,0-.68.13c.17.91.35,1.89.53,2.92h.31Z"/><polygon class="cls-1" points="493.83 289.11 493.52 288.67 491.7 288.53 492.04 289 493.83 289.11"/><path class="cls-1" d="M487.51,302l3.17.07a1.86,1.86,0,0,0,2-1.49,1.69,1.69,0,0,0-1.85-1.58l-3.16-.07a2.36,2.36,0,0,0-1.1.24c.17.8.37,1.73.58,2.79Z"/><path class="cls-1" d="M489.18,307.41a2.3,2.3,0,0,0-1,.27c.14.88.28,1.78.41,2.72a2.4,2.4,0,0,0,.72.07l3.16-.16a1.58,1.58,0,1,0-.15-3.06Z"/><polygon class="cls-1" points="496.52 292.58 496.17 292.01 494.39 292 494.57 292.53 496.52 292.58"/><path class="cls-1" d="M493.07,312.13l-3.16.16a2.34,2.34,0,0,0-1,.27q.17,1.31.32,2.68a2.35,2.35,0,0,0,.82.11l3.16-.16a1.58,1.58,0,1,0-.15-3.06Z"/><rect class="cls-1" x="502.1" y="322.17" width="2.16" height="1.38" transform="translate(-15.36 25.3) rotate(-2.84)"/><path class="cls-1" d="M493.78,321.84l-3.9.2h-.06c.06,1.06.11,2.13.15,3.21H490l3.9-.19a1.65,1.65,0,1,0-.16-3.22Z"/><rect class="cls-1" x="501.82" y="331.81" width="2.16" height="1.38" transform="translate(-16.01 25.58) rotate(-2.87)"/><path class="cls-1" d="M495.55,328.67a1.78,1.78,0,0,0-2-1.44l-3.16.16-.36,0q0,1.49,0,3a2.35,2.35,0,0,0,.53,0l3.16-.16A1.77,1.77,0,0,0,495.55,328.67Z"/><path class="cls-1" d="M493.34,336.76l-3.72.18c-.1,1-.21,1.91-.35,2.86l4.21-.21a1.45,1.45,0,1,0-.14-2.83Z"/><path class="cls-1" d="M492.64,340.79l-3.55.18c-.16.94-.34,1.88-.54,2.79l4.23-.21a1.43,1.43,0,1,0-.14-2.76Z"/><path class="cls-1" d="M493.85,332.13l-3.91.2c0,1-.1,2-.17,2.93L494,335a1.49,1.49,0,1,0-.15-2.91Z"/><path class="cls-9" d="M489.57,318.77v-.12c0-.46-.07-.94-.12-1.4a2.38,2.38,0,0,1,.71-.14l3.17-.16a1.78,1.78,0,0,1,2,1.41.23.23,0,0,1,0,0s0,0,0,.07l14.07-.76a.22.22,0,0,0,0,0,79,79,0,0,0-1.51-9.19l-.89.1-.33-.34-1.08,0-.25-1.22-1.15-3.83,1.51-1.51C497.21,282.39,490,286.1,490,286.1l-3.13-.28a4.54,4.54,0,0,0-4.1-.59l-3.1-.3a2.26,2.26,0,0,0-.84-.74c4.12,6.25,7.18,19.16,8,34.73Zm-2.14-15.47a2.46,2.46,0,0,1,.68-.13l3.16-.16a1.58,1.58,0,1,1,.15,3.06l-3.16.16H488C487.78,305.19,487.6,304.21,487.43,303.3Zm5.79,11.9-3.16.16a2.35,2.35,0,0,1-.82-.11q-.15-1.37-.32-2.68a2.34,2.34,0,0,1,1-.27l3.16-.16a1.58,1.58,0,1,1,.15,3.06ZM503.63,314l-2.16.11-.07-1.38,2.16-.11Zm-2.16-8.85-2.16.11-.19-1.32,2.16-.11Zm-2.6-8.08.46,1-2.17-.15-.34-1Zm-2.7-5.06.35.57-1.94-.05-.19-.53Zm-1.81,16.67a1.77,1.77,0,0,1-1.86,1.63l-3.16.16a2.4,2.4,0,0,1-.72-.07c-.13-.94-.27-1.85-.41-2.72a2.3,2.3,0,0,1,1-.27l3.16-.16A1.77,1.77,0,0,1,494.36,308.69Zm-.84-20,.31.45L492,289l-.34-.47Zm-5.83,10.27,3.16.07a1.69,1.69,0,0,1,1.85,1.58,1.86,1.86,0,0,1-2,1.49l-3.17-.07-.34,0c-.21-1.06-.41-2-.58-2.79A2.36,2.36,0,0,1,487.7,298.93Z"/><path class="cls-12" d="M509.39,317.69l-14.07.76a1.79,1.79,0,0,1-1.86,1.56l-3.17.16a2.46,2.46,0,0,1-.61,0c0-.46-.08-.91-.12-1.36l-2.72.15c.15,2.75.23,5.57.23,8.47a146,146,0,0,1-1.57,21.86,2.88,2.88,0,0,1,.5.3l.45-1.15.88-.2.53-2.12,6.14-2,.52.28.69-.24,1.16.35.34-.94,1.32-.22.39-1.09a67.44,67.44,0,0,0,7.48-3l.8-.55,1.16.25C510.24,332.23,510.06,323.93,509.39,317.69Zm-16.61,25.85-4.23.21c.2-.92.38-1.85.54-2.79l3.55-.18a1.43,1.43,0,1,1,.14,2.76Zm.7-4-4.21.21c.14-.95.25-1.9.35-2.86l3.72-.18a1.45,1.45,0,1,1,.14,2.83ZM494,335l-4.23.21c.07-1,.13-1.95.17-2.93l3.91-.2A1.49,1.49,0,1,1,494,335Zm-4-4.62q0-1.49,0-3l.36,0,3.16-.16a1.58,1.58,0,1,1,.15,3.06l-3.16.16A2.35,2.35,0,0,1,490,330.42Zm3.94-5.36-3.9.19H490c0-1.08-.08-2.15-.15-3.21h.06l3.9-.2a1.65,1.65,0,1,1,.16,3.22Zm7.91,8.18-.07-1.38,2.16-.11.07,1.38Zm.28-9.63-.07-1.38,2.16-.11.07,1.38Z"/><path class="cls-9" d="M475.9,319.51c-.68-14.82-2.68-27.63-5.47-36.17a1.62,1.62,0,0,0-.32.2l-2.11.11-7.13.36,1.34,14.85,1.89,21.06v.23Zm-4.6-.46-4.56.23-.18-3.6,4.56-.23c1.64-.08,3,.66,3.05,1.65S472.94,319,471.3,319.05Zm2.5-7.46c.05,1-1.24,1.86-2.87,1.95l-4.46.22-.18-3.6,4.46-.22C472.39,309.86,473.75,310.6,473.8,311.6ZM470.33,308l-4.12.21h0l-.18-3.6h0l4.12-.21c1.4-.07,2.57.68,2.62,1.67S471.73,308,470.33,308Zm-.15-8.48c1.46,0,2.6.89,2.55,1.89s-1.27,1.76-2.73,1.71l-4.06-.13-.18-3.61h.11Z"/><path class="cls-2" d="M479.49,325.32l3.64-.18a1.84,1.84,0,1,0-.18-3.6l-3.63.18a2.7,2.7,0,0,0-1.05.27q.08,1.57.14,3.15A2.62,2.62,0,0,0,479.49,325.32Z"/><path class="cls-6" d="M476.41,284.25l-5-.65a.72.72,0,0,0-1-.26c2.79,8.54,4.79,21.35,5.47,36.17l2.22-.12v-.17c0-.81-.09-1.62-.14-2.42a2.56,2.56,0,0,1,1.36-.46l3.63-.18a2.05,2.05,0,0,1,2.32,1.69,1.57,1.57,0,0,1-.33,1c0,.05-.1.1-.14.15l2-.11c-.83-15.57-3.88-28.48-8-34.73A3,3,0,0,0,476.41,284.25Zm8.61,28.4a2.05,2.05,0,0,1-2.14,1.91l-3.63.18a2.58,2.58,0,0,1-1.44-.34q-.09-1.39-.2-2.73a2.55,2.55,0,0,1,1.46-.53l3.63-.18A2.05,2.05,0,0,1,485,312.65Zm-2.68-3.13-3.64.18a2.63,2.63,0,0,1-1.27-.25q-.12-1.5-.25-2.91a2.59,2.59,0,0,1,1.34-.44l3.63-.18a1.84,1.84,0,1,1,.18,3.6Zm-.38-8.23a1.94,1.94,0,0,1,2.09,1.83,2.09,2.09,0,0,1-2.25,1.77l-3.54-.05a2.4,2.4,0,0,1-1.25-.36c-.08-.92-.17-1.81-.25-2.65a2.44,2.44,0,0,1,1.66-.59Z"/><path class="cls-15" d="M486.85,318.92l-2,.11a2.44,2.44,0,0,1-1.66.74l-3.63.18a2.58,2.58,0,0,1-1.37-.3c0-.08,0-.17,0-.25l-2.22.12c.17,3.64.26,7.41.26,11.26,0,8-.38,15.66-1.07,22.62a.66.66,0,0,0,.85-.38l1.26-.27.1-1.75c1.48-.89,6.65-2,6.65-2l.7,0a1.86,1.86,0,0,1,.86.2,146,146,0,0,0,1.57-21.86C487.08,324.49,487,321.66,486.85,318.92Zm-7.54,2.81,3.63-.18a1.84,1.84,0,1,1,.18,3.6l-3.64.18a2.62,2.62,0,0,1-1.09-.17q-.06-1.59-.14-3.15A2.7,2.7,0,0,1,479.31,321.72Zm6,6.8a2.05,2.05,0,0,1-2.14,1.91l-3.64.18a2.66,2.66,0,0,1-1-.14q0-1.62-.08-3.25a2.63,2.63,0,0,1,.92-.21l3.63-.18A2.06,2.06,0,0,1,485.34,328.52Zm-3.28,19.24-3.41.35a3.5,3.5,0,0,1-.6,0c.07-.75.13-1.51.19-2.29h.1l3.4-.36c1.15-.12,2.15.29,2.24.92S483.21,347.64,482.06,347.77Zm.82-3.21-3.62.38a3.15,3.15,0,0,1-1,0c.06-1,.11-1.94.15-2.93l.39-.07,3.62-.38c1.22-.13,2.31.45,2.42,1.29S484.1,344.42,482.88,344.55Zm.17-3.82-3.64.18a2.73,2.73,0,0,1-.91-.1q.05-1.63.08-3.3a2.72,2.72,0,0,1,.66-.11l3.64-.18a1.81,1.81,0,1,1,.18,3.52Zm.13-4.92-3.63.18a2.78,2.78,0,0,1-1-.12q0-1.61,0-3.25a2.67,2.67,0,0,1,.79-.15l3.63-.18a1.81,1.81,0,1,1,.18,3.52Z"/><path class="cls-12" d="M462.34,354.59c4.1.56,4.1.56,7.95-.23s4.71-1,4.71-1l.09,0c.69-7,1.07-14.6,1.07-22.62,0-3.85-.09-7.61-.26-11.26l-11.81.64Zm4.78-27.88,3.79-.19c1.48-.08,2.73.67,2.78,1.67s-1.11,1.86-2.6,1.93l-3.79.19Zm.78,15.56,3.34-.39c1.55-.19,2.91.29,3,1.07s-1,1.55-2.6,1.73l-3.63.43Zm3.84,8.89-3.38.48-.12-2.31,3.06-.43c1.52-.21,2.85.12,3,.74S473.26,350.95,471.74,351.16Zm0-2.94-3.54.42-.11-2.3,3.3-.39c1.52-.18,2.84.19,2.94.81S473.28,348,471.75,348.22Zm.06-7.54-4,.2-.18-3.6,4-.2c1.63-.08,3,.66,3,1.65S473.45,340.6,471.81,340.68Zm-.45-5.12-3.8.19-.18-3.6,3.8-.19c1.63-.08,3,.66,3,1.65S473,335.47,471.36,335.56Zm-.45-14.72c1.64-.08,3,.66,3.05,1.65s-1.24,1.87-2.87,1.95l-4.08.2-.18-3.6Z"/><path class="cls-13" d="M474.87,375.42l3.47,1.32c-1-1-2-1.95-3-2.91l-1.82.28Z"/><path class="cls-4" d="M458.52,369.18l-1.54-1.3-.17.65Z"/><path class="cls-4" d="M472.13,362.55l-2.64,0a80.56,80.56,0,0,1,9,6.86l1.95-.23A97.15,97.15,0,0,0,472.13,362.55Z"/><path class="cls-5" d="M498.54,369.88a131.47,131.47,0,0,0-37.69-13.33l2-4.94-6.72-2.73-6.82,16.8,7.49,2.85.17-.65-.53-.44,1.57-3.87c.55-.13,1.17-.24,1.75-.36h0l2.16-.31-.09-.06c.8-.12,1.59-.24,2.35-.27,1.25-.07,3.17-.08,5.25-.07l0,0,2.64,0h0l3.94.08c2.06.67,4.26,1.47,6.51,2.33l.06,0,5.76,2.38,0,0c1,.42,1.89.8,2.87,1.26-.43,0-.91,0-1.39-.07h0l-2.23,0,0,0c-.16,0-.3,0-.47,0-1.12.1-3.66.32-6.63.61l-.06-.05-1.95.23,0,0c-2.37.25-4.87.55-7.12.91l-.07-.06-1.81.31.06.05a3.12,3.12,0,0,1-.35.06c-1.46.28-3.13.53-4.83.75l7.58,2.89.25,0,1.21-.19h0l1.82-.28h0c2.45-.38,4.85-.71,7.12-1h0l1.91-.21h0l-2.13.19,2.13-.19h0c2.71-.3,5.24-.5,7.53-.55h2.29a28.88,28.88,0,0,1,3.28.22l1.47.22a92.21,92.21,0,0,1,11.57,7.63,29.37,29.37,0,0,0-9.41-1.09l-.07,0-1.72.22,0,0c-1.81.3-4.29.67-7,1.06l0,0-1.85.2.08.08-1.43.2,7.76,3c2.18-.22,4.22-.38,6.06-.47h0l2.36-.14-2.36.14,0,0,1.75-.11v0c5-.18,8.22,0,8.22,0l2.58,3.28-3.19-.07,2.35,3.1a18.76,18.76,0,0,0-2.42.08l12.34,4.71C525.07,390.42,515.75,379.14,498.54,369.88Z"/><path class="cls-4" d="M488.4,367.38,482.64,365c1.73,1.16,3.39,2.35,5,3.56l2.23,0Z"/><path class="cls-4" d="M461.95,362.91l-2.16.31a77.61,77.61,0,0,1,9.78,7.36l1.81-.31A88.29,88.29,0,0,0,461.95,362.91Z"/><polygon class="cls-5" points="493.95 384.15 493.92 384.16 493.92 384.16 493.95 384.15"/><path class="cls-13" d="M478.34,376.74l-3.47-1.32c2.25,2.14,4.44,4.31,6.47,6.39l1.78-.25C481.62,380,480,378.37,478.34,376.74Z"/><path class="cls-16" d="M524.51,394.35l-12.34-4.71-.47.06-2,.25,0,0-1.63.15,0,.07c-1.56.2-3.56.42-6,.73l0-.05-1.72.23h0l2.16-.22-2.16.22,0,0-3.77.46c-1.38.18-2.72.26-4,.3l0,0-1.92,0,.07.08c-1,0-2,0-2.93-.11-3.12-.93-6-2-8.84-3l0,0-3.32-1.29.07.07c-1.44-.6-2.86-1.2-4.19-1.8.74,0,1.56,0,2.43,0l0,0,2-.05h0l0,0c2.44,0,5.31-.21,8.66-.51l0,0,1.86-.14-.06-.07c2.19-.23,4.57-.5,7.14-.84l.36,0,0,0h0l1.87-.28-1.87.28,1.78-.19-.06-.06,1.13-.12-7.76-3c-1.94.27-3.94.54-5.88.78l0,0-1.78.25,0,0c-2.49.29-4.8.55-6.59.7-.65.05-1.3.07-2,.09l0,0-2,0,0,0c-2.25,0-4.41-.19-6.14-.37l7.18,3.64-7.18-3.64-.18,0a117.33,117.33,0,0,1-10.3-6.05h.18l-2.42-2.2,2.42,2.2c1.83-.1,5.06-.33,9-.73l0,0,1.86-.21h0c2.16-.25,4.47-.55,6.84-.92l-7.58-2.89c-1,.13-2,.25-3,.35l0,0-2,.17.07.06-.22,0h0c-2.17.21-4,.37-4.88.43L453.25,375l1.19-2.56h0l1.47-3.61.5.42.35-.75-7.41-2.83-5.72,14.08,6.72,2.73,2-4.94h0a131.37,131.37,0,0,0,36.31,16.71c19.1,5.45,33.83,3.72,35.8.41h0a.29.29,0,0,0,0-.05l0,0v0C524.5,394.48,524.51,394.41,524.51,394.35Zm-50.37-7.49.63.38Z"/><path class="cls-13" d="M470.75,382.6l2,0c-2.31-2.28-4.95-4.85-7.58-7.32l-1.86.21C465.84,377.83,468.42,380.33,470.75,382.6Z"/><path class="cls-4" d="M504.63,383.24l-1.78.07c1.16,1.39,2.26,2.81,3.15,4l2.46.93C507.44,386.8,506.13,385.07,504.63,383.24Z"/><path class="cls-13" d="M508.46,388.23,506,387.3l.05.07c.77,1,1.44,2,2,2.78l1.64-.18c-.35-.51-.75-1.05-1.19-1.66Z"/><path class="cls-13" d="M493.85,384.11c2.64,2.75,4.94,5.25,6.49,7l1.79-.2c-1.42-1.59-3.73-4.13-6.44-7Z"/><path class="cls-13" d="M484.54,385.17c2.49,2.64,4.69,5.06,6.14,6.69h1.94c-1.29-1.48-3.56-4-6.22-6.85Z"/><path class="cls-13" d="M475.92,385.68l-2,0c.59.59,1.27,1.23,1.76,1.74l3.25,1.23C478.21,388,477.19,386.93,475.92,385.68Z"/><path class="cls-4" d="M484.35,372.64l-1.91.21c2.76,2.53,5.5,5.28,8,7.8l1.95-.29C489.91,377.86,487.12,375.21,484.35,372.64Z"/><path class="cls-4" d="M494,372.08h-2.15a100.14,100.14,0,0,1,7.4,7.22l1.78-.25C499,376.82,496.63,374.45,494,372.08Z"/><path class="cls-13" d="M459.52,372l2-.2c-1-.92-2-1.82-3-2.61l-1.79-.68-.35.75C457.33,370,458.42,371,459.52,372Z"/><path class="cls-5" d="M224.13,202.89l-1.5,1.27-4.27-5A1.92,1.92,0,0,1,219,197l.08-.06,0,0-4-4.68-23.95,20.37,0,0-16.11,13.71,15.72,18.47,40-34.06.06-.05-6.69-7.84Zm-33.86,15.76,3.36,4L190.83,225l-3.36-4Zm-8.81,7.5,2.81-2.39,3.36,4-2.81,2.39Zm8.68,10.2-3.36-4,2.81-2.39,3.36,4Zm6-5.11-3.36-4,2.81-2.39,3.36,4Zm6.91-10.41L195,211.33l2.65-2.26,8.09,9.51Zm5.05-4.3L200,207l2.65-2.25,8.09,9.51Zm5.06-4.31-8.09-9.51,2.64-2.25,8.09,9.51Zm5.05-4.3-8.09-9.51,2.65-2.26,8.09,9.51Z"/><path class="cls-5" d="M210.37,186.72l-.93.79-5.73-6.74a1.1,1.1,0,0,1,0-1.64l.12-.09h0l-.18-.21-13.86,11.84,6.66,7.83,1.57-1.33-5.72-6.72a1.1,1.1,0,0,1,0-1.64,1.19,1.19,0,0,1,1.68.2l5.72,6.73,2.11-1.78-5.73-6.73a1.1,1.1,0,0,1,0-1.63,1.19,1.19,0,0,1,1.67.2l5.73,6.74-.82.7,7.7-6.51,0,0Zm-4.72,4L199.92,184a1.1,1.1,0,0,1,0-1.63,1.19,1.19,0,0,1,1.68.2l5.73,6.74Z"/><path class="cls-5" d="M184.83,156.73l-11.07-13-.46.39,5.85,6.87a2,2,0,0,0-.41,1.51l-.19.16a.86.86,0,0,0,.76,1.49l3.57,4.19Z"/><path class="cls-5" d="M187.88,188.11l13.71-11.73h0l-.78.66-4.15-4.88a.82.82,0,0,1,.08-1.25l.12-.08h0l-10-11.75-3.16,2.7h0a16.09,16.09,0,0,0-1.47,8.19c.3,3.12,2.35,6.42,3.43,7.93l-1.3,1.11a1.38,1.38,0,0,0-.15,2,1.39,1.39,0,0,0,1.19.49l4.3,5-1.65,1.41A1.61,1.61,0,0,0,187.88,188.11Zm5.74-14.55a.89.89,0,0,1,1.29.08l4.15,4.88-1.37,1.17-4.15-4.88A.81.81,0,0,1,193.62,173.57Zm-3.1,2.64a.89.89,0,0,1,1.29.08l4.15,4.88-1.37,1.17-4.15-4.88A.81.81,0,0,1,190.53,176.2Zm-3.18,3.89a.81.81,0,0,1,.09-1.25.89.89,0,0,1,1.28.08l4.15,4.88L191.49,185Z"/><path class="cls-4" d="M184.83,156.73l-1.95,1.64,0,0-.71.6.74.87a1.28,1.28,0,0,0,.1,1.52,1.26,1.26,0,0,0,.63.38l3.16-2.7Z"/><path class="cls-16" d="M216.76,169.66l5.66,6.65L224,175l-6.62-7.77.06-.11-13.73,11.73.18.21a1.22,1.22,0,0,1,1.53.31l5.72,6.72,2.1-1.81-5.71-6.71a1.09,1.09,0,0,1,0-1.63,1.18,1.18,0,0,1,1.67.2l5.7,6.7L217,181l-5.69-6.68a1.1,1.1,0,0,1,0-1.64,1.19,1.19,0,0,1,1.68.2l5.68,6.68,2.09-1.8-5.67-6.66a1.1,1.1,0,0,1,0-1.63A1.19,1.19,0,0,1,216.76,169.66Z"/><path class="cls-16" d="M186.62,155.22,183,151a.86.86,0,0,0-.14-.89.87.87,0,0,0-1.22-.1l-.19.16a2,2,0,0,0-1.56.16l-5.85-6.87-.31.26,0,0,11.07,13Z"/><path class="cls-13" d="M189.56,155.86a1.25,1.25,0,0,0-1.47-.34l-.74-.87-.7.59,0,0-1.8,1.51,2,2.36,3-2.57A1.2,1.2,0,0,0,189.56,155.86Z"/><path class="cls-16" d="M207.33,163.08l4.14,4.87,1.79-1.53-4.27-5a1.4,1.4,0,0,0-.29-1.27,1.38,1.38,0,0,0-2-.15l-1.3,1.1c-1.33-1.3-4.26-3.84-7.27-4.65a16.29,16.29,0,0,0-8.33.14s0,0,0,0l-3,2.57,10,11.75A.9.9,0,0,1,198,171l4.15,4.88-.59.5h0l5.4-4.62-4.15-4.88a.82.82,0,0,1,.07-1.24.89.89,0,0,1,1.3.06l4.15,4.87,1.72-1.47L206,164.25A.81.81,0,0,1,206,163,.89.89,0,0,1,207.33,163.08Zm-2.05,10.16-1.38,1.18-4.15-4.88a.82.82,0,0,1,.09-1.25.89.89,0,0,1,1.3.07Z"/><path class="cls-16" d="M270.65,176.83,255,158.39l-39.8,33.9,3.92,4.6a1.9,1.9,0,0,1,2.1-.13l4.27,5-1.27,1.08,6.69,7.84,39.79-33.86ZM253.31,165l3.36,4-2.8,2.38-3.36-4Zm-26.09,35.27-8.09-9.51,2.65-2.26,8.09,9.51Zm5.06-4.31-8.09-9.51,2.65-2.26,8.09,9.51Zm5.06-4.31-8.09-9.51,2.64-2.24,8.09,9.51Zm5.05-4.3-8.09-9.51,2.65-2.25,8.09,9.51Zm2.11-14.86,2.8-2.39,3.36,4-2.8,2.39Zm8.68,10.2-3.36-4,2.8-2.39,3.36,4Zm6-5.11-3.36-4,2.8-2.38,3.36,4Z"/><polygon class="cls-13" points="254.93 158.36 238.82 172.07 235.95 168.69 228.42 175.09 226.63 172.99 224.1 175.14 223.97 174.98 222.42 176.31 222.5 176.4 220.81 177.84 220.74 177.76 218.65 179.56 218.7 179.62 217.01 181.06 216.97 181.01 214.87 182.82 214.91 182.86 213.23 184.28 213.21 184.25 211.11 186.06 211.12 186.08 210.4 186.7 215.17 192.29 254.96 158.39 254.93 158.36"/><polygon class="cls-4" points="210.4 186.68 202.69 193.19 201.84 193.91 201.84 193.91 199.72 195.69 199.73 195.71 198.04 197.14 198.03 197.13 196.46 198.45 196.54 198.54 194.02 200.68 195.81 202.79 188.29 209.19 191.13 212.53 215.18 192.26 210.4 186.68"/><path class="cls-4" d="M201.55,176.35,187.8,188.06a1.65,1.65,0,0,0,2,2.55v0l13.92-11.81Z"/><path class="cls-13" d="M217.25,165.22a1.64,1.64,0,0,0-2.3-.18l-1.65,1.4,0,0-1.79,1.53h0l-1.38,1.17h0l-1.72,1.47h0L207,171.77h0l-5.5,4.62,2.18,2.44,13.73-11.73A1.63,1.63,0,0,0,217.25,165.22Z"/><path class="cls-17" d="M385.76,447.71l15.81,15.62,3.66-3.52,1-1,4,1.44,1.17,1.35c.63,1.69,1.47,1.27,1.47,1.27s4.79,4.89,9.57,6.2c5.84,1.61,8.55.46,8.55.46l7.35,6.49s2.13,1.17,3.47.95a4.63,4.63,0,0,0-1.28-3.94c-1.73-1.89-6.65-6.6-6.65-6.6a21.9,21.9,0,0,0-.17-5.84L417,444.09l0,0-13.76-13.72Zm29.65,10.12a1.87,1.87,0,0,1-2.6,0L410,455l2.52-2.53,2.79,2.77A1.79,1.79,0,0,1,415.4,457.84Zm5.27-5.31a1.85,1.85,0,0,1-2.6,0l-2.79-2.77,2.52-2.53,2.78,2.77A1.8,1.8,0,0,1,420.67,452.53Z"/><path class="cls-18" d="M446.28,468.2c2.38,1.62,8.53,5.63,12.24,6.23,6.23,1,12.16.43,14.85,1.52s7.92,6.61,7.92,6.61,4.35,4.32,7.51,4l2.93,2.87.53-.17-30.16-30.58A34.26,34.26,0,0,1,446.28,468.2Z"/><path class="cls-14" d="M434.68,461.65c.65.63,1.48,1.3,2,1.26a7.78,7.78,0,0,1,2.28.39l2.69,2.2s1.51,2.43,2.53,2.35,1.5-.08,1.5-.08l.72.49a34.12,34.12,0,0,0,15.73-9.58l-2.33-2.36-.31.32-.26.27-.74.73-3.53-3.51.74-.74.26-.27.34-.36-2-2.08C448.75,456.83,441.77,460.75,434.68,461.65Zm11.14,4.41-3.54-3.52a30.31,30.31,0,0,0,3.25-1.49l3.54,3.51A29.4,29.4,0,0,1,445.82,466.06Zm6-3.1-3.54-3.51a38,38,0,0,0,3.48-2.52l3.54,3.51A41.42,41.42,0,0,1,451.79,463Z"/><path class="cls-18" d="M403.2,430.45l3.75,3.64,8.17,8.1,1.92,1.9,16.67,16.54h0l.06.07c.13.15.49.54.92,1,7.09-.9,14.07-4.81,19.53-11l-4.06-4.14-6.07,1.23-4.39-4.35-10.16,2.07-1.59-1.58,12.44-2,4.09,4.17,4.53-.78L434.89,431.1a3.44,3.44,0,0,1-.9.26,4.7,4.7,0,0,1-3.27-1,4.17,4.17,0,0,1-.34-.28l-9.76-9.68-.86-.86,1.16-1.16.71-.72L419,415l-12.12,11.82Zm13.21-7.52,2,2,6.58,6.53s1.88,1.87.8,3.88a3.63,3.63,0,0,1-.63.84,3.73,3.73,0,0,1-.85.65c-2,1.09-3.93-.71-3.93-.71l-4.23-4.2-4.34-4.31Z"/><path class="cls-19" d="M434.66,399.47l13.53,13.94,0,0,16.31,16.9a21.87,21.87,0,0,0,5.84.25s4.64,5,6.51,6.74a4.63,4.63,0,0,0,3.93,1.34c.25-1.33-.9-3.49-.9-3.49l-6.39-7.44s1.18-2.69-.35-8.56c-1.25-4.8-6.07-9.65-6.07-9.65s.43-.84-1.25-1.49l-1.34-1.18-1.38-4.06,1-.94,3.57-3.62-15.4-16Zm24.7,12.41L456.62,409l2.56-2.48,2.74,2.84a1.87,1.87,0,0,1,0,2.6A1.79,1.79,0,0,1,459.36,411.88Zm-5.39,5.2-2.73-2.82,2.56-2.49,2.73,2.83a1.85,1.85,0,0,1,0,2.6A1.8,1.8,0,0,1,454,417.09Z"/><path class="cls-20" d="M471.85,443c1.59,2.4,5.51,8.61,6.06,12.33.92,6.24.26,12.16,1.31,14.87s6.5,8,6.5,8,4.26,4.41,3.89,7.56l2.83,3s-.11.35-.18.53L462.11,458.7A34.26,34.26,0,0,0,471.85,443Z"/><path class="cls-7" d="M454.23,450.72l2,2.07.36-.34.27-.25.75-.73,3.46,3.58-.74.73-.27.26-.33.3,2.33,2.36a34.1,34.1,0,0,0,9.8-15.6l-.48-.73s0-.48.1-1.5-2.32-2.56-2.32-2.56L467,435.59a7.77,7.77,0,0,1-.36-2.29c.05-.47-.62-1.31-1.23-2C464.46,438.41,460.45,445.33,454.23,450.72Zm13.95-5-3.46-3.59a30.36,30.36,0,0,0,1.53-3.23l3.47,3.59A29.63,29.63,0,0,1,468.18,445.77ZM464,451.91l-3.46-3.59a38.25,38.25,0,0,0,2.56-3.44l3.46,3.59A41.22,41.22,0,0,1,464,451.91Z"/><path class="cls-20" d="M431,403l-12,12,2.67,2.71.73-.7,1.18-1.14.84.87,9.55,9.89s.11.12.27.34a4.7,4.7,0,0,1,1,3.29,3.47,3.47,0,0,1-.27.89L449,445.35l.82-4.42-4.11-4.15,2.14-12.42,1.56,1.61-2.21,10.13,4.29,4.45-1.31,6,4.08,4.12c6.22-5.38,10.23-12.31,11.22-19.38-.41-.44-.79-.8-.94-.93l-.07-.06h0l-16.31-16.9-1.88-1.95-8-8.28-3.59-3.8Zm.74,5,4.25,4.4,4.14,4.29s1.78,1.95.65,3.94a3.92,3.92,0,0,1-1.51,1.47c-2,1.05-3.87-.85-3.87-.85l-6.44-6.67-2-2Z"/><path class="cls-18" d="M224.48,502.91a28.14,28.14,0,0,0-4.06-1.51c.09.1,2.22,1.85,3.36,2.72l.8-1.31Z"/><path class="cls-18" d="M223.71,506.36a29.88,29.88,0,0,0-3.68,2.21c.84-.1,4.14-.9,4.57-1l0,0Z"/><polygon class="cls-18" points="223.69 504.46 219.23 504.43 223.72 505.85 223.74 505.55 223.69 504.46"/><polygon class="cls-21" points="223.49 505.75 223.52 505.76 223.5 505.45 223.49 505.75"/><path class="cls-18" d="M242.32,441.5s9.7,5.2,9.63,5.29l6.34,3.44,4.26-7.81-16-8.44Z"/><path class="cls-16" d="M257.16,449.49,250.82,446a5,5,0,0,1-1.52,1.17c-.94.44-7.79,14.44-7.79,14.44a6.16,6.16,0,0,1-1.84,1.17c-.55,0-4.27,9.48-4.54,9.5s-2,0-2.9,0-4.58,3.27-4.58,3.27a7,7,0,0,1-1.67.4,7.48,7.48,0,0,0-2.91,1.66,1.87,1.87,0,0,0-.52,1.54l-2.25,1.7.06.81,2.94,4.07,3-1.52a12.12,12.12,0,0,1,1.32,3.08c.28,1.37-1.17,3.51-1.13,5.44a4.52,4.52,0,0,0,1.21,2.52c-.17,1-.42,2.45-.58,3a7.18,7.18,0,0,1-1.62,2.74,5,5,0,0,0-.82,1.7c-.16.12-.25.11-.36.2a9.83,9.83,0,0,0-.8,1.85,4.49,4.49,0,0,0,.13,1.93l1,1.23c.13.13.27.24.41.36l.94-1.71c-.2-.24-.8-.42-1-1a2.1,2.1,0,0,1,.13-1.69c.17-.16,1.1,1.86,1.26,2l0,0,.4-.74c-.17-.45-.34-1-.34-1s.39.13.75.21l.68-1.24h0s-.8-.48-.71-.69.76-.82,1-.77.12.47,0,.87ZM223.53,484.9l-2.45-3.45,1.58-1.2a2.32,2.32,0,0,0,1.39.43,5.17,5.17,0,0,0,2.22-1.3,8.92,8.92,0,0,0,.46-1.25l5.06-3.07.29.73-3,6.41Z"/><path class="cls-20" d="M225.74,530c-.13.26-.4.63-.65.64a1.58,1.58,0,0,0-1.47.74c-.37.69-.65,1.06-.95,1.2a4.79,4.79,0,0,1-.87.25l1.74.27L221,534.26a15,15,0,0,0,4.1.58c.9-.15,1.64-.53,2-2.08a3.91,3.91,0,0,0,.16-1.75l.14.06-2-1.31Z"/><path class="cls-20" d="M225.13,508.32,223,513.2l3.35-4.1,0,0-1.28-.83Z"/><path class="cls-20" d="M232.59,509.7a6.71,6.71,0,0,0,.24-1c-.5-.42-1.26-1.12-1.26-1.12s0,0,0-.09l-.68,1.14A16.61,16.61,0,0,0,232.59,509.7Z"/><path class="cls-20" d="M228.58,514.28c.07.23.37-4.51.37-4.51h0l-1.64-.34C227.4,509.71,228.5,514.06,228.58,514.28Z"/><path class="cls-20" d="M231.54,511.64l.48-.48-1.46-2.2-1,.54Z"/><path class="cls-5" d="M228.17,502.59c-.07.34-.18.63-.32.59l-.68,1.24a1.19,1.19,0,0,0,.5,0c.21-.08.63-1.09.75-1.25a.3.3,0,0,1,.45-.09,1.71,1.71,0,0,0,.46.16l0-.57.13-.23a.76.76,0,0,1,.27.11.37.37,0,0,0,.46-.1c.11-.07-.25-.17-.43-.27s-.11-.38-.11-.38l.38-.68c.11-.2.27-.14.49,0s.93.61.94,1.19a3.54,3.54,0,0,1-.79,1.81,4.06,4.06,0,0,1-1.47,0c-.17,0-.47.37-.55.63s.56.8.56.8c.17.57-1.9.39-2.09.22a2.17,2.17,0,0,1-.32-.64l-.4.74c.18.15.69.72,1.17.72s2.06-.22,2.62-.29.07,1.06.07,1.06a4,4,0,0,1-2.86.22,3.85,3.85,0,0,1-1.34-1l0,0-.94,1.71c.09.08,2.41,1.67,3.87,1.47.65-.1,2.56-1.05,2.78-2.43,0-.11,0-.11,0-.18,0-.25,0-.62,0-.89a5.28,5.28,0,0,0,.66-2l1.26-1.81a2.27,2.27,0,0,1,.62,1,4.83,4.83,0,0,1,0,2.94,5.81,5.81,0,0,0-.68,2.41A11.84,11.84,0,0,1,233,511a7.82,7.82,0,0,1-.34.8l-.17.3,0,0-.2.37c-1.07,2.09-1.54,6.35-1.94,7.08s-1.22,2.34-2,3.51a4.07,4.07,0,0,0-.33,2.77,3.2,3.2,0,0,1-.87.46.9.9,0,0,0-.46.43c-1-.3-1.72-.3-1.93.07a.53.53,0,0,0,0,.43l-.44.8a.54.54,0,0,0-.37.24c-.24.42.33,1.2,1.3,1.94l2,1.19c1.27.54,2.36.64,2.61.19a.52.52,0,0,0,0-.4l.47-.85a.53.53,0,0,0,.32-.23c.18-.33-.12-.87-.7-1.45a1.88,1.88,0,0,0,.17-1.27h0a3.84,3.84,0,0,0,1.32-1.43,3.7,3.7,0,0,0,.49-2.43,8.14,8.14,0,0,1,.56-1.16,7.48,7.48,0,0,0,.48-2.42,17.19,17.19,0,0,1,1.7-3.2,25.66,25.66,0,0,0,2.25-6.21,40.11,40.11,0,0,0,3.39-2.36c1.69-1.31.84-4.92.84-4.92a39.06,39.06,0,0,1,1.55-6.33c.75-1.67,7.12-14.31,8.93-16.77s6.83-10.71,7.36-11.81,2.27-6,4.55-9.27c.89-1.29,1.9-3,2.82-4.51l-9.35-5.07Z"/><polygon class="cls-20" points="257.16 449.49 273.29 458.38 277.39 450.26 261.36 441.79 257.16 449.49"/><path class="cls-8" d="M318.79,465.55C237,465.55,170.45,399,170.45,317.22S237,168.88,318.79,168.88s148.33,66.54,148.33,148.34S400.58,465.55,318.79,465.55Zm0-280.86c-73.07,0-132.52,59.45-132.52,132.52s59.45,132.52,132.52,132.52,132.52-59.45,132.52-132.52S391.86,184.69,318.79,184.69Z"/><path class="cls-11" d="M318.79,455C242.81,455,181,393.2,181,317.22s61.81-137.79,137.79-137.79,137.79,61.81,137.79,137.79S394.77,455,318.79,455Zm0-265.8a128,128,0,1,0,128,128A128.15,128.15,0,0,0,318.79,189.21Z"/></g></g></g></svg>