<svg xmlns="http://www.w3.org/2000/svg" xmlns:xlink="http://www.w3.org/1999/xlink" viewBox="0 0 640 620.83"><defs><style>.cls-1{fill:none;}.cls-2{fill:#fff;}.cls-3{clip-path:url(#clip-path);}.cls-4{fill:#fabc14;}.cls-5{fill:#9c509e;}.cls-6{fill:#774939;}.cls-7{fill:#ed2726;}.cls-8{fill:#f26b23;}.cls-9{fill:#00abd6;}.cls-10{fill:#c9d1b7;}.cls-11{fill:#db6220;}.cls-12{fill:#0d9dc5;}.cls-13{fill:#e3ab15;}.cls-14{fill:#d72423;}.cls-15{fill:#694031;}.cls-16{fill:#8f4890;}.cls-17{fill:#69462c;}.cls-18{fill:#e2aa15;}.cls-19{fill:#785033;}.cls-20{fill:#f9bb14;}.cls-21{fill:#8e488f;}</style><clipPath id="clip-path"><rect class="cls-1" x="33.93" width="575.64" height="324"/></clipPath></defs><title>资源 2</title><g id="图层_2" data-name="图层 2"><g id="图层_1-2" data-name="图层 1"><rect class="cls-2" width="640" height="324"/><g class="cls-3"><path class="cls-4" d="M379.1,592a3,3,0,0,0,2.27.29l4.49-1.21,7.76-2.06,17.74,13.39,4.06-1.06-10-15.36,9.81-2.61,7.71,5.16,2-.53-.4-.73.42-.12-4.68-7.68-.72-1.31,0-1.49.21-9-.42.11,0-.83-2,.55-4.1,8.33-9.8,2.64,1-18.29-4.05,1.11-8.67,20.47-7.75,2.1-4.49,1.21a3,3,0,0,0-1.83,1.38,3.57,3.57,0,0,0-.52,3s0,.07,0,.11a1.07,1.07,0,0,0,0,.11A3.55,3.55,0,0,0,379.1,592Z"/><path class="cls-5" d="M536.64,506.06l-1.35-1.18c-1.91,2.18-3.91,4.38-5.93,6.51l1.3,1.24C532.7,510.47,534.71,508.26,536.64,506.06Z"/><path class="cls-6" d="M547.8,492.23l-1.44-1.07c-1.74,2.34-3.55,4.69-5.39,7l1.4,1.13C544.21,497,546,494.59,547.8,492.23Z"/><path class="cls-7" d="M557.78,477.53l-1.53-.94c-1.53,2.47-3.14,5-4.79,7.39l1.49,1C554.61,482.53,556.24,480,557.78,477.53Z"/><path class="cls-4" d="M573.86,445.88l-1.66-.68c-1.1,2.72-2.28,5.44-3.48,8.09l1.63.74C571.56,451.36,572.74,448.62,573.86,445.88Z"/><path class="cls-8" d="M566.49,462l-1.6-.81c-1.32,2.6-2.72,5.21-4.15,7.77l1.56.88C563.75,467.3,565.16,464.66,566.49,462Z"/><path class="cls-7" d="M481.59,550.23c-2.49,1.56-5,3.09-7.55,4.56l.9,1.55c2.54-1.48,5.1-3,7.6-4.59Z"/><path class="cls-5" d="M450.54,566.95c-2.71,1.23-5.43,2.41-8.09,3.51l.68,1.66c2.68-1.11,5.42-2.29,8.15-3.54Z"/><path class="cls-6" d="M466.34,559.11c-2.57,1.39-5.21,2.75-7.84,4.05l.8,1.61c2.64-1.31,5.3-2.68,7.89-4.08Z"/><path class="cls-9" d="M426.37,578.17c.13,0,3.18-.9,8.47-2.83l-.62-1.68c-5.22,1.91-8.31,2.78-8.34,2.79Z"/><path class="cls-8" d="M496.21,540.36c-2.37,1.72-4.8,3.42-7.23,5.06l1,1.49c2.44-1.65,4.89-3.36,7.28-5.09Z"/><path class="cls-4" d="M511.26,530.88l-1.15-1.37c-2.23,1.88-4.54,3.75-6.85,5.55l1.11,1.41C506.69,534.65,509,532.77,511.26,530.88Z"/><path class="cls-9" d="M524.42,519l-1.25-1.28c-2.08,2-4.25,4.07-6.42,6l1.2,1.33C520.14,523.05,522.32,521,524.42,519Z"/><path class="cls-9" d="M124,434.5a1.29,1.29,0,0,0-.12,1l.53,1.91.9,3.3-5.65,7.59.47,1.73,6.51-4.29,1.14,4.17-2.17,3.3.23.86.31-.17.05.18,3.25-2,.56-.31.63,0,3.83.07,0-.18h.35l-.24-.86L131,449l-1.15-4.16,7.79.35-.48-1.72-8.74-3.63-.91-3.29-.53-1.91a1.29,1.29,0,0,0-.59-.77,1.52,1.52,0,0,0-1.28-.21l0,0h0A1.51,1.51,0,0,0,124,434.5Z"/><path class="cls-5" d="M161.09,501.31l.5-.58c-.93-.81-1.87-1.65-2.79-2.51l-.52.56C159.2,499.64,160.15,500.49,161.09,501.31Z"/><path class="cls-6" d="M167,506l.45-.62c-1-.73-2-1.5-3-2.28l-.48.6C165,504.5,166,505.28,167,506Z"/><path class="cls-7" d="M173.29,510.22l.4-.65c-1.05-.64-2.12-1.32-3.16-2l-.43.63C171.16,508.89,172.23,509.57,173.29,510.22Z"/><path class="cls-4" d="M186.81,517l.28-.71c-1.16-.46-2.32-1-3.45-1.46l-.31.7C184.47,516,185.64,516.51,186.81,517Z"/><path class="cls-8" d="M179.91,513.89l.34-.68c-1.11-.55-2.23-1.14-3.32-1.75l-.37.67C177.66,512.73,178.79,513.33,179.91,513.89Z"/><path class="cls-8" d="M142.13,478c-.67-1.05-1.33-2.13-2-3.2l-.66.39c.64,1.08,1.3,2.16,2,3.22Z"/><path class="cls-6" d="M134.93,464.83c-.53-1.15-1-2.3-1.52-3.44l-.71.3c.48,1.14,1,2.3,1.53,3.46Z"/><path class="cls-7" d="M138.31,471.54c-.6-1.09-1.19-2.21-1.75-3.32l-.68.34c.57,1.12,1.16,2.25,1.76,3.35Z"/><path class="cls-5" d="M130.08,454.58c0,.05.39,1.35,1.23,3.6l.72-.27c-.83-2.22-1.21-3.53-1.21-3.54Z"/><path class="cls-4" d="M146.37,484.2c-.74-1-1.47-2-2.17-3.06l-.63.43c.71,1,1.45,2.07,2.19,3.08Z"/><path class="cls-10" d="M150.45,490.57l.58-.5c-.81-.95-1.61-1.92-2.38-2.9l-.6.47C148.84,488.64,149.64,489.62,150.45,490.57Z"/><path class="cls-9" d="M155.57,496.14l.54-.54c-.87-.88-1.74-1.8-2.59-2.72l-.56.52C153.81,494.33,154.69,495.25,155.57,496.14Z"/><path class="cls-5" d="M528.83,245.07a1,1,0,0,0,0-.77l-.59-1.45-1-2.51,3.77-6.47-.52-1.32-4.74,4-1.27-3.18,1.41-2.79-.26-.66-.23.16-.06-.14L523,231.78l-.41.29-.5.07-3,.29.05.14-.28,0,.27.66,3,1,1.28,3.17-6.16.42.53,1.31,7.2,2.08,1,2.51.59,1.45a1,1,0,0,0,.54.56,1.2,1.2,0,0,0,1,.05l0,0h0A1.19,1.19,0,0,0,528.83,245.07Z"/><path class="cls-6" d="M493.73,195.83l-.34.5c.81.55,1.62,1.13,2.42,1.72l.36-.49C495.37,197,494.55,196.39,493.73,195.83Z"/><path class="cls-7" d="M488.66,192.65l-.3.52c.85.49,1.71,1,2.55,1.52l.32-.51C490.39,193.66,489.52,193.15,488.66,192.65Z"/><path class="cls-8" d="M483.34,189.91l-.25.55c.89.41,1.78.85,2.66,1.31l.28-.54C485.14,190.77,484.24,190.32,483.34,189.91Z"/><path class="cls-9" d="M472.11,185.8l-.16.58c1,.26,1.91.54,2.85.84l.18-.58C474,186.35,473.07,186.06,472.11,185.8Z"/><path class="cls-4" d="M477.72,187.33l-.21.57c.92.34,1.85.7,2.77,1.08l.23-.56C479.59,188,478.65,187.67,477.72,187.33Z"/><path class="cls-11" d="M510.72,212.47c.62.77,1.24,1.56,1.83,2.34l.48-.36c-.6-.79-1.22-1.58-1.84-2.36Z"/><path class="cls-7" d="M517.56,222.18c.52.86,1,1.72,1.5,2.57l.53-.3c-.48-.85-1-1.72-1.51-2.58Z"/><path class="cls-8" d="M514.3,217.21c.57.81,1.13,1.63,1.67,2.46l.51-.33c-.55-.83-1.11-1.66-1.68-2.47Z"/><path class="cls-6" d="M522.29,229.81s-.43-1-1.29-2.72l-.54.27c.85,1.67,1.26,2.67,1.27,2.68Z"/><path class="cls-4" d="M506.83,208c.67.72,1.34,1.47,2,2.21l.46-.4c-.65-.75-1.32-1.5-2-2.23Z"/><path class="cls-9" d="M503.06,203.32l-.41.44c.72.67,1.44,1.37,2.13,2.07l.43-.43C504.5,204.7,503.78,204,503.06,203.32Z"/><path class="cls-5" d="M498.54,199.4l-.38.47c.76.62,1.53,1.26,2.28,1.9l.4-.46C500.08,200.67,499.31,200,498.54,199.4Z"/><path class="cls-8" d="M207.2,75.18a2.87,2.87,0,0,0-2.16.12l-4,1.89-6.85,3.25-18.77-9.37-3.58,1.69,11.89,12.54-8.65,4.11-8-3.46-1.79.85.5.61-.37.18,5.67,6.32L172,95l.29,1.38,1.35,8.38.37-.17.16.77,1.79-.86,2.37-8.43,8.64-4.14,2.26,17.13,3.57-1.73,4.52-20.48,6.83-3.28,4-1.9a2.87,2.87,0,0,0,1.46-1.6,3.36,3.36,0,0,0,0-2.87s0-.06-.05-.09a1,1,0,0,0,0-.1A3.35,3.35,0,0,0,207.2,75.18Z"/><path class="cls-9" d="M75.83,182.08l1.46.86c1.4-2.35,2.87-4.73,4.38-7.06L80.25,175C78.73,177.31,77.24,179.71,75.83,182.08Z"/><path class="cls-5" d="M67.86,196.83l1.52.74c1.21-2.47,2.49-5,3.8-7.39l-1.49-.8C70.37,191.82,69.08,194.33,67.86,196.83Z"/><path class="cls-6" d="M61.13,212.18l1.58.61c1-2.55,2.06-5.14,3.18-7.68l-1.55-.68C63.21,207,62.14,209.61,61.13,212.18Z"/><path class="cls-11" d="M51.66,244.32l1.66.34c.56-2.71,1.17-5.44,1.84-8.11l-1.64-.41C52.85,238.83,52.22,241.59,51.66,244.32Z"/><path class="cls-7" d="M53.85,234l1.63.48c.78-2.64,1.63-5.31,2.52-7.92l-1.6-.55C55.49,228.67,54.63,231.36,53.85,234Z"/><path class="cls-6" d="M119.3,131.62c2-1.88,4.13-3.74,6.22-5.53l-1.1-1.28c-2.1,1.81-4.21,3.68-6.26,5.57Z"/><path class="cls-9" d="M145.24,110.76c2.3-1.61,4.62-3.17,6.9-4.65l-.92-1.42c-2.3,1.49-4.64,3.06-7,4.68Z"/><path class="cls-5" d="M131.93,120.76c2.15-1.73,4.36-3.45,6.57-5.11l-1-1.35c-2.23,1.67-4.45,3.4-6.62,5.15Z"/><path class="cls-4" d="M165.73,96.19c-.11.06-2.79,1.38-7.37,4.09l.86,1.46c4.51-2.67,7.23-4,7.26-4Z"/><path class="cls-7" d="M107.44,143.29c1.9-2,3.86-4,5.83-5.94l-1.19-1.21c-2,2-4,4-5.88,6Z"/><path class="cls-11" d="M95.11,154.68l1.31,1.08c1.75-2.13,3.57-4.26,5.4-6.33l-1.27-1.12C98.7,150.39,96.87,152.54,95.11,154.68Z"/><path class="cls-4" d="M85,168l1.38,1c1.58-2.25,3.24-4.51,4.92-6.71l-1.35-1C88.22,163.47,86.55,165.75,85,168Z"/><path class="cls-12" d="M510.95,440.8c3.54,1.4,8-.94,10.15-5.4a10.9,10.9,0,0,0,1-6.11,9.8,9.8,0,0,0,7.12-5.74c2.2-4.61,1.08-9.75-2.52-11.47a5.8,5.8,0,0,0-1.81-.52,11,11,0,0,0,.8-4.59,7.37,7.37,0,0,0,3.79-3.72,7.68,7.68,0,0,0,.73-4.31,6.91,6.91,0,0,0,5-4c1.55-3.25.76-6.87-1.78-8.08a4.08,4.08,0,0,0-1.28-.37c1.25-3.12.41-6.43-2-7.58s-5.4.23-7.06,3h0l-.16.33-.16.33-.15.34-9.38,19.63h0a8.06,8.06,0,0,0-.43,1.44,11.43,11.43,0,0,0-.79,1.15l0,0-.22.47-.24.47-.22.48-13.31,27.84h0c-1.81,4.44-.63,9.18,2.8,10.82S508.6,444.85,510.95,440.8Z"/><path class="cls-8" d="M507,179.53c1.07-1.23.76-3.37-.74-4.87a4.67,4.67,0,0,0-2.32-1.29,4.2,4.2,0,0,0-1.31-3.69c-1.55-1.55-3.79-1.82-5-.61a2.48,2.48,0,0,0-.47.66,4.7,4.7,0,0,0-1.74-1,3.16,3.16,0,0,0-1-2.06,3.3,3.3,0,0,0-1.64-.91,3,3,0,0,0-.92-2.6c-1.09-1.09-2.67-1.28-3.52-.43a1.76,1.76,0,0,0-.33.46,2.19,2.19,0,1,0-3.12,3h0l.11.11.11.11.11.11,6.6,6.59h0a3.47,3.47,0,0,0,.52.38,4.94,4.94,0,0,0,.35.48h0l.16.16.16.16.16.16,9.36,9.34h0c1.54,1.36,3.62,1.56,4.77.41S508.33,181.05,507,179.53Z"/><path class="cls-4" d="M89.65,276.87c-3.87,0-7.27,3.79-7.68,8.8a11.06,11.06,0,0,0,1.23,6.18,10,10,0,0,0-4.68,8c-.42,5.18,2.51,9.65,6.55,10a5.86,5.86,0,0,0,1.91-.16,11.14,11.14,0,0,0,.9,4.65,7.48,7.48,0,0,0-2.26,4.91,7.83,7.83,0,0,0,.86,4.36,7,7,0,0,0-3.3,5.66c-.3,3.65,1.77,6.8,4.62,7a4.12,4.12,0,0,0,1.34-.11c-.06,3.41,1.94,6.26,4.64,6.48s5-2.17,5.6-5.45h0l0-.37c0-.12,0-.25,0-.37s0-.25,0-.38l1.8-22h0a8.3,8.3,0,0,0-.11-1.53,11.51,11.51,0,0,0,.33-1.38h0l0-.53c0-.18,0-.35.05-.53s0-.36,0-.53l2.56-31.26h0c.11-4.87-2.73-8.95-6.58-9.26S90.41,272.17,89.65,276.87Z"/><path class="cls-6" d="M266.22,509.54a2.59,2.59,0,0,0,2.63,2.28,2.72,2.72,0,0,0,2.93,2.16,3.45,3.45,0,0,0,1.89-.54,3.1,3.1,0,0,0,2.61,1.25c1.62,0,2.93-1,2.93-2.29a1.82,1.82,0,0,0-.1-.59,2.3,2.3,0,1,0,.09-4.55H268.93A2.61,2.61,0,0,0,266.22,509.54Z"/><path class="cls-12" d="M359.08,503.59c0,1.6,1.56,2.92,3.56,3.08.11,1.63,1.84,2.93,4,2.93a4.68,4.68,0,0,0,2.56-.73,4.2,4.2,0,0,0,3.54,1.69c2.19,0,4-1.39,4-3.1a2.49,2.49,0,0,0-.13-.8c2-.13,3.64-1.46,3.64-3.09s-1.54-2.9-3.52-3.08v0H362.75C360.7,500.63,359.08,502,359.08,503.59Z"/><path class="cls-8" d="M384.06,512.91a1.94,1.94,0,0,0,2,1.71,2,2,0,0,0,2.2,1.62,2.59,2.59,0,0,0,1.42-.4,2.33,2.33,0,0,0,2,.94,2,2,0,0,0,2.2-1.72,1.37,1.37,0,0,0-.07-.44,1.73,1.73,0,1,0,.06-3.41h-7.7A2,2,0,0,0,384.06,512.91Z"/><path class="cls-6" d="M500.26,469.79c1.2.85,3,.37,4.18-1,1.28.78,3.16.16,4.28-1.42a4.26,4.26,0,0,0,.8-2.3,3.85,3.85,0,0,0,3.13-1.75c1.16-1.64,1.06-3.7-.22-4.61a2.29,2.29,0,0,0-.67-.32c1-1.59.83-3.49-.39-4.35s-3-.38-4.16,1h0l-.12.17-.12.17-.12.17-7,9.9h0C498.9,467,499,468.93,500.26,469.79Z"/><path class="cls-12" d="M442.65,148.72a2.59,2.59,0,0,0-1-3.32,2.72,2.72,0,0,0-1.34-3.39,3.46,3.46,0,0,0-1.89-.54,3.11,3.11,0,0,0-1.55-2.44c-1.37-.86-3-.68-3.7.39a1.85,1.85,0,0,0-.23.55,2.3,2.3,0,1,0-2.48,3.81h0l.14.09.14.09.14.09,8.29,5.18h0A2.61,2.61,0,0,0,442.65,148.72Z"/><path class="cls-12" d="M82.72,347.91c-1.75,0-3.18,1.73-3.34,3.92-1.78.14-3.19,2-3.17,4.36A5.12,5.12,0,0,0,77,359a4.6,4.6,0,0,0-1.82,3.88c0,2.4,1.55,4.33,3.42,4.32a2.75,2.75,0,0,0,.87-.15c.16,2.23,1.63,4,3.41,4s3.16-1.71,3.33-3.88h0v-.24c0-.08,0-.16,0-.24s0-.17,0-.25l-.12-14.47h0C86,349.65,84.51,347.89,82.72,347.91Z"/><path class="cls-7" d="M138.07,193.44c-1.55-.82-3.62,0-4.8,1.87-1.63-.73-3.77.28-4.86,2.33a5.11,5.11,0,0,0-.6,2.84,4.6,4.6,0,0,0-3.45,2.55c-1.12,2.12-.69,4.55,1,5.43a2.8,2.8,0,0,0,.84.28c-.92,2-.45,4.27,1.12,5.1s3.59,0,4.78-1.83h0l.11-.22.12-.21.11-.22,6.78-12.79h0C140.11,196.52,139.64,194.28,138.07,193.44Z"/><path class="cls-13" d="M160.13,454.36,166,459c0-.09,0-.18,0-.26,6.56,1,19.4,2.05,24.18-4.33a19.27,19.27,0,0,0,3.85-11.1l-26.83-20.18h0a19.26,19.26,0,0,0-9.62,6.82C152.74,436.32,157.32,448.34,160.13,454.36Z"/><path class="cls-14" d="M194,443.29s0,0,0,0l.13-.17,0-.05,3.44-4.58-26.85-20.11-3.42,4.55,0,.05-.12.17Zm-4.35-7.12a2.7,2.7,0,1,1,.54,3.78A2.7,2.7,0,0,1,189.63,436.17Zm-6.21-4.66a2.7,2.7,0,1,1,.54,3.78A2.7,2.7,0,0,1,183.42,431.51Zm-6.21-4.66a2.7,2.7,0,1,1,.54,3.78A2.7,2.7,0,0,1,177.21,426.85ZM171,422.19a2.7,2.7,0,1,1,.54,3.78A2.7,2.7,0,0,1,171,422.19Z"/><polygon class="cls-13" points="205.38 428.06 178.55 407.92 170.73 418.35 197.58 438.45 205.38 428.06"/><path class="cls-14" d="M150.78,472.87a2.3,2.3,0,0,0,3.17-3.24,3.47,3.47,0,0,0,4.35-5,5.4,5.4,0,0,0,6.57-1.74A5.51,5.51,0,0,0,166,459l-5.84-4.63h0a5.52,5.52,0,0,0-3.67,2.17,5.4,5.4,0,0,0,.17,6.79,3.47,3.47,0,0,0-3.62,5.59,2.3,2.3,0,0,0-2.22,4Z"/><path class="cls-13" d="M174.64,404.12l47.6,35.72,0,0,4.19-5.56v-.1c0-.11,0-.21,0-.33a8.21,8.21,0,0,1-2.83.77s-.68-2.94.75-4.89h0l2.4-3.2q-3-2.6-6-5.3L218.05,425l0,0c-1.46,1.92-4.48,2.09-4.48,2.09s-.68-2.94.75-4.89h0l3.12-4.16q-3.55-3.43-6.9-7l-4,5.35h0c-1.47,1.92-4.48,2.09-4.48,2.09s-.68-2.94.75-4.89h0l4.57-6.09q-3.31-3.78-6.37-7.76l-6,8h0c-1.47,1.92-4.48,2.09-4.48,2.09s-.68-2.94.75-4.89h0l6.08-8.11,3.4,2.55q-3.74-4.92-7-10.17l-2.66-7.65-16.4,22.52.15.11Z"/><path class="cls-4" d="M226.46,434.3l-4.19,5.56.18.14,47.27,35.47.91-1.21,13.83-18a42.17,42.17,0,0,1-10.92-2.94c-1.06-.53-2.8-.29-3.88-.72l-5.34,7.12h0c-1.47,1.92-4.48,2.09-4.48,2.09s-.68-2.94.75-4.89h0l4.46-5.94c-3.32-1.08-5.88-2.86-8.92-4.22L252.75,451h0c-1.47,1.92-4.48,2.09-4.48,2.09s-.68-2.94.75-4.89h0l2.8-3.39-.49-.33c-2.49-1.74-5.55-3.08-8-4.89l-2.07,2.77h0c-1.47,1.92-4.48,2.09-4.48,2.09s-.68-2.94.75-4.89h0l2.07-2.76q-3.16-2.4-6.27-4.89l-2.16,2.88h0c-1.47,1.92-4.48,2.09-4.48,2.09a8.52,8.52,0,0,1-.15-2.09C226.43,434.58,226.44,434.44,226.46,434.3Z"/><path class="cls-15" d="M196.19,441c-1.32,1.76,0,5.15.84,6.84a1.51,1.51,0,0,0-1,2.49,1,1,0,0,0-1,1.55.63.63,0,1,0,.28,1,.64.64,0,0,0,0-.76.95.95,0,0,0,1.2-1.39,1.51,1.51,0,0,0,2.13-1.61c1.85.31,5.48.66,6.81-1.1a5.23,5.23,0,0,0,1-3.1l7.68-10.25-7.65-5.75-7.69,10.24A5.22,5.22,0,0,0,196.19,441Zm9.39,1.5a.77.77,0,1,1,.16,1.08A.77.77,0,0,1,205.57,442.55Zm-1.78-1.33a.77.77,0,1,1,.15,1.08A.77.77,0,0,1,203.8,441.21ZM202,439.88a.77.77,0,1,1,.15,1.08A.77.77,0,0,1,202,439.88Zm-1.78-1.33a.77.77,0,1,1,.16,1.08A.77.77,0,0,1,200.25,438.55Z"/><path class="cls-7" d="M210.64,517.79a2.3,2.3,0,0,0,3.17-3.23,3.46,3.46,0,0,0,4.35-5,5.39,5.39,0,0,0,6.57-1.73,5.47,5.47,0,0,0,1.05-4.12l-5.85-4.45,0,.08a5.49,5.49,0,0,0-3.67,2.16,5.4,5.4,0,0,0,.17,6.79,3.46,3.46,0,0,0-3.62,5.58,2.3,2.3,0,0,0-2.22,4Z"/><path class="cls-4" d="M219.94,499.22l5.85,4.45h0c6.56,1,19.38,2.07,24.17-4.31a19.19,19.19,0,0,0,3.81-10.52l-27-20.67a19.19,19.19,0,0,0-9.43,6.74C212.6,481.24,217.12,493.18,219.94,499.22Z"/><path class="cls-7" d="M253.76,488.83c0-.2,0-.4,0-.6l.27-.36,3.42-4.55-26.74-20.25-3.51,4.67-.27.36-.18.07Zm-4.27-7.74a2.7,2.7,0,1,1,.65,3.83l-.19-.14A2.68,2.68,0,0,1,249.49,481.09Zm-6.21-4.66a2.7,2.7,0,1,1,.65,3.83l-.19-.14A2.69,2.69,0,0,1,243.28,476.43Zm-6.21-4.66a2.7,2.7,0,1,1,.65,3.83l-.19-.14A2.69,2.69,0,0,1,237.07,471.77Zm-6.21-4.66a2.7,2.7,0,1,1,.65,3.83l-.19-.14A2.69,2.69,0,0,1,230.86,467.11Z"/><polygon class="cls-4" points="265.24 472.97 238.42 452.84 230.75 463.06 257.49 483.31 265.24 472.97"/><path class="cls-7" d="M175.3,502.39h0a1.07,1.07,0,0,0,.22.11,1,1,0,0,0,1.23-.32,1,1,0,0,0,0-1.26,1.56,1.56,0,0,0,2-2.28,2.48,2.48,0,0,0,3.5-2.64h0l-1.45-1.13-5.59,7.42S175.27,502.36,175.3,502.39Z"/><path class="cls-4" d="M182.27,496c3.06.51,9,1.07,11.16-1.82a8.56,8.56,0,0,0,1.71-5.09l33-44L222,440.55l-.18-.14-41,54.47Zm11.28-10.84a1.27,1.27,0,1,1,.25,1.77A1.27,1.27,0,0,1,193.55,485.17ZM190.63,483a1.27,1.27,0,1,1,.25,1.78A1.27,1.27,0,0,1,190.63,483Z"/><path class="cls-14" d="M175.11,500.94a1,1,0,0,0,.12,1.36l5.59-7.42-1.38-1.07.07.15a2.47,2.47,0,0,0-1.56,4.09,1.56,1.56,0,0,0-1.64,2.54A1,1,0,0,0,175.11,500.94Z"/><path class="cls-13" d="M178.13,482.72c-2.14,2.85,0,8.27,1.31,11.1l1.38,1.07,41-54.47,0,0-6.26-4.7-33,44A8.59,8.59,0,0,0,178.13,482.72Zm9.59-1.92a1.27,1.27,0,1,1,.25,1.77A1.27,1.27,0,0,1,187.72,480.8Zm-2.91-2.19a1.27,1.27,0,1,1,.25,1.77A1.27,1.27,0,0,1,184.8,478.61Z"/><path class="cls-6" d="M217.77,468.85a.63.63,0,1,0,1,0,.95.95,0,0,0,1.21-1.39,1.51,1.51,0,0,0,2.13-1.61c1.85.31,5.48.66,6.81-1.11a5.23,5.23,0,0,0,1-3.1l7.26-9.69-7.66-5.74-7.27,9.68a5.21,5.21,0,0,0-2.69,1.87c-1.32,1.77,0,5.15.84,6.84a1.51,1.51,0,0,0-.95,2.5.95.95,0,0,0-1,1.54A.63.63,0,0,0,217.77,468.85Zm11.23-9.6a.77.77,0,1,1,.15,1.08A.77.77,0,0,1,229,459.25Zm-1.78-1.33a.77.77,0,1,1,.15,1.08A.77.77,0,0,1,227.22,457.92Zm-1.77-1.33a.77.77,0,1,1,.15,1.08A.77.77,0,0,1,225.45,456.59Zm-1.78-1.33a.77.77,0,1,1,.15,1.08A.77.77,0,0,1,223.67,455.26Z"/><path class="cls-4" d="M324.12,519.47h10.26l0-.2h1.15a1.42,1.42,0,0,0,1.5-1.32s-.51-1.94-1.19-2.43H324.12Z"/><path class="cls-6" d="M335.87,515.52a.52.52,0,0,0-.3-.11h-.5c1.56-8.13,5-17.28,8.87-26H332.65c-.6,2.27-3.74,14.34-3.95,17.74h-4.58v8.33Z"/><path class="cls-4" d="M324.12,620.83h.2v-6.49a.59.59,0,0,0,.39-.54v-6h.45a1,1,0,0,0,1.07-.94.9.9,0,0,0-.12-.45h.48a1.42,1.42,0,0,0,1.5-1.32v-.92a1.2,1.2,0,0,0-.17-.6,1.35,1.35,0,0,0,1-1.25s-.6-4.71-1.36-5.26h-3.45Z"/><path class="cls-9" d="M327.57,597a.25.25,0,0,0-.14-.06h-.19c-.21-29,5.57-67.53,7.15-77.5H324.12V597Z"/><path class="cls-9" d="M347.63,481.63a302.35,302.35,0,0,1,15.29-27.17H346.61c-.27,11.36-10.2,20.49-22.43,20.55h-.05v6.62Z"/><path class="cls-4" d="M324.12,489.07h8.63l-.1.37h11.29l.07-.17h3.57v-7.54l.05-.1H324.12Z"/><path class="cls-13" d="M300.6,481.95v7.33h3.47l.08.17h11.33l-.14-.37h8.78v-7.44H300.45Z"/><path class="cls-12" d="M300.45,481.63h23.67V475H324c-12.28,0-22.27-9.16-22.55-20.55H285.15A304.51,304.51,0,0,1,300.45,481.63Z"/><path class="cls-13" d="M319.16,602.29a1.35,1.35,0,0,0,1,1.25,1.17,1.17,0,0,0-.16.6v.92a1.42,1.42,0,0,0,1.49,1.32H322a.92.92,0,0,0-.12.45,1,1,0,0,0,1.07.94h.44v6a.59.59,0,0,0,.39.54v6.49h.36V597h-3.61C319.75,597.58,319.16,602.29,319.16,602.29Z"/><path class="cls-12" d="M313.7,519.47c1.58,10,7.36,48.48,7.15,77.5h-.2a.24.24,0,0,0-.14.06h3.61V519.47Z"/><path class="cls-13" d="M310.9,517.95a1.42,1.42,0,0,0,1.5,1.32h1.27l0,.2h10.42v-4h-12C311.41,516,310.9,517.95,310.9,517.95Z"/><path class="cls-15" d="M313,515.41h-.62a.52.52,0,0,0-.3.11h12v-8.33H319.5s-2.53-13.56-4-17.74H304.15C308.05,498.13,311.45,507.27,313,515.41Z"/><path class="cls-7" d="M145.19,384a.9.9,0,0,0,.58,0l.78,2.35a.87.87,0,0,0-.51.56l.39,1.16a.8.8,0,0,0,.72.11l.79,2.39a1,1,0,0,0-.45.39.56.56,0,0,0-.05.16l.39,1.17a.51.51,0,0,0,.13.09.9.9,0,0,0,.58,0l.53,1.6a.88.88,0,0,0-.5.54l.4,1.19a.82.82,0,0,0,.71.1l.36,1.08a.87.87,0,0,0-.49.53l.4,1.2a.82.82,0,0,0,.7.09l0,.15a.63.63,0,0,0,.83.35.67.67,0,0,0,.44-.82l-.07-.21,2.2-.81,0,0a2.37,2.37,0,0,1,.76-.71.74.74,0,0,0,.92.19l.11,0-.15-.46a.4.4,0,0,0,.19-.23l5.43-2-.21-.63-5.43,2a.4.4,0,0,0-.29-.05l-.16-.46-.11,0c-.43.16-.69.52-.59.82l0,.08c-.79.12-1.45-.1-1.61-.58v0c-.16-.48.23-1.09.93-1.51a.75.75,0,0,0,.91.18l.11,0-.15-.46a.42.42,0,0,0,.19-.23l5.43-2-.21-.63-5.44,2a.37.37,0,0,0-.29-.06l-.15-.46-.11,0a1,1,0,0,0-.54.43.47.47,0,0,0,0,.38v0a1.52,1.52,0,0,1-1.7-.84l0-.05a1.64,1.64,0,0,1,.83-1.77c.11.29.52.4.94.24l.11,0-.15-.46a.4.4,0,0,0,.19-.23l5.45-2-.21-.63-5.45,2a.36.36,0,0,0-.29-.06l-.15-.46-.11,0a1,1,0,0,0-.54.43.47.47,0,0,0-.06.32,1.77,1.77,0,0,1-1.81-1.16l0-.07a1.91,1.91,0,0,1,.73-2.1.73.73,0,0,0,.92.19l.11,0-.15-.46a.4.4,0,0,0,.19-.23l5.47-2-.21-.63-5.47,2a.36.36,0,0,0-.29-.06l-.15-.46-.11,0a.79.79,0,0,0-.6.76,1.76,1.76,0,0,1-1.81-1.16l0-.07a1.92,1.92,0,0,1,.73-2.09.45.45,0,0,0,.25.23,1,1,0,0,0,.68,0l.11,0-.15-.46a.39.39,0,0,0,.19-.23l5.49-2-.21-.63-5.49,2a.39.39,0,0,0-.29-.06l-.15-.46-.11,0a.8.8,0,0,0-.6.74,1.77,1.77,0,0,1-1.81-1.15L144.77,381l.39,1.18a1,1,0,0,0-.45.39.53.53,0,0,0-.06.19l.38,1.13A.5.5,0,0,0,145.19,384Z"/><path class="cls-4" d="M133,388l0,.07c.09.28.49.4.9.26l.78,2.35c-.4.17-.65.51-.55.8l0,.07-.09,0,.21.63.09,0,0,.07c.1.28.49.4.9.26l.79,2.38c-.4.16-.64.51-.55.8l0,.07-.09,0,.21.62.09,0,0,.07a.43.43,0,0,0,.26.27.94.94,0,0,0,.64,0l.53,1.59a1,1,0,0,0-.5.42.46.46,0,0,0,0,.38l0,.07-.09,0,.21.62.09,0,0,.07a.44.44,0,0,0,.27.27.93.93,0,0,0,.64,0l.36,1.07c-.4.16-.64.51-.55.8l0,.07-.09,0,.21.63.09,0,0,.07a.43.43,0,0,0,.26.27.92.92,0,0,0,.64,0l0,.15a.56.56,0,0,0,.33.34.67.67,0,0,0,.51,0,.72.72,0,0,0,.39-.33.6.6,0,0,0,.05-.48l-.07-.21,2.2-.81,0,0a2.43,2.43,0,0,1,.76-.71.73.73,0,0,0,.92.19l.11,0-.15-.46a.4.4,0,0,0,.19-.23l5.62-2.07,0,.07a.4.4,0,0,0,.15.19l-.4-1.2a.44.44,0,0,0,0,.24l0,.07L144,399.82a.37.37,0,0,0-.29-.06l-.15-.46-.11,0c-.42.16-.69.52-.59.82l0,.08c-.79.12-1.46-.1-1.61-.58v0c-.16-.48.23-1.09.92-1.52a.75.75,0,0,0,.91.18l.11,0-.15-.46a.4.4,0,0,0,.19-.23l5.62-2.07,0,.07a.41.41,0,0,0,.14.19l-.4-1.19a.42.42,0,0,0,0,.24l0,.07L143,396.92a.38.38,0,0,0-.29-.06l-.15-.46-.11,0a1,1,0,0,0-.54.43.49.49,0,0,0,0,.38h0a1.51,1.51,0,0,1-1.7-.84l0-.05a1.64,1.64,0,0,1,.83-1.77c.1.29.52.39.94.24l.11,0-.15-.46a.42.42,0,0,0,.19-.23l5.62-2.07,0,.07a.41.41,0,0,0,.13.18l-.39-1.17a.43.43,0,0,0,0,.23l0,.07-5.62,2.07a.38.38,0,0,0-.29-.05l-.15-.46-.11,0c-.39.14-.65.47-.6.75a1.77,1.77,0,0,1-1.81-1.16l0-.06a1.91,1.91,0,0,1,.73-2.1.73.73,0,0,0,.92.19l.11,0-.15-.46a.4.4,0,0,0,.19-.23l5.62-2.07,0,.07a.39.39,0,0,0,.12.18l-.39-1.16a.43.43,0,0,0,0,.22l0,.07-5.62,2.07a.38.38,0,0,0-.29-.06l-.15-.46-.11,0c-.4.15-.66.47-.6.76a1.77,1.77,0,0,1-1.81-1.16l0-.06a1.92,1.92,0,0,1,.73-2.1.46.46,0,0,0,.25.23.94.94,0,0,0,.68,0l.11,0-.15-.46a.38.38,0,0,0,.19-.23l5.62-2.07,0,.07a.38.38,0,0,0,.11.17l-.38-1.13a.42.42,0,0,0,0,.2l0,.07-5.62,2.07a.36.36,0,0,0-.29-.06l-.15-.46-.11,0a1,1,0,0,0-.54.43.51.51,0,0,0-.07.31,1.77,1.77,0,0,1-1.81-1.16l0-.05L133,385.3l.41,1.23a1,1,0,0,0-.5.42.47.47,0,0,0,0,.38l0,.07-.09,0,.21.62Z"/><path class="cls-4" d="M110.34,397.05l.78,2.36a.9.9,0,0,0-.45.46l.44,1.31,0,0a.92.92,0,0,0,.57,0l.79,2.39a.91.91,0,0,0-.44.44l.45,1.35,0,0a.89.89,0,0,0,.57,0l.53,1.6a.92.92,0,0,0-.43.41l.46,1.37a.88.88,0,0,0,.58,0l.36,1.08a1,1,0,0,0-.43.38l.48,1.42a.91.91,0,0,0,.56,0l.05.15a.63.63,0,0,0,.83.35.72.72,0,0,0,.39-.34.59.59,0,0,0,.05-.48l-.07-.21,2.2-.81,0,0a2.45,2.45,0,0,1,.76-.71.45.45,0,0,0,.24.21,1,1,0,0,0,.68,0l.11,0-.15-.46a.4.4,0,0,0,.19-.23l5.62-2.07,0,.07a.45.45,0,0,0,.24.25L126,406a.45.45,0,0,0,0,.33l0,.07-5.62,2.07a.36.36,0,0,0-.29-.05l-.15-.46-.11,0c-.42.15-.69.52-.59.81l0,.07c-.79.11-1.46-.11-1.61-.58v0c-.16-.48.23-1.09.93-1.52a.74.74,0,0,0,.9.18l.11,0-.15-.46a.4.4,0,0,0,.19-.23l5.62-2.07,0,.07a.42.42,0,0,0,.19.22l-.43-1.25a.45.45,0,0,0,0,.27l0,.07-5.62,2.07a.37.37,0,0,0-.29-.05l-.15-.46-.11,0a1,1,0,0,0-.54.43.49.49,0,0,0,0,.38v0a1.51,1.51,0,0,1-1.7-.84l0-.05a1.65,1.65,0,0,1,.83-1.77.46.46,0,0,0,.26.26.94.94,0,0,0,.68,0l.11,0-.15-.46a.39.39,0,0,0,.19-.23l5.62-2.07,0,.07a.4.4,0,0,0,.13.18l-.4-1.15a.43.43,0,0,0,0,.2l0,.07-5.62,2.07a.36.36,0,0,0-.29-.05l-.15-.46-.11,0a.8.8,0,0,0-.6.75,1.77,1.77,0,0,1-1.81-1.16l0-.06a1.91,1.91,0,0,1,.73-2.1.73.73,0,0,0,.92.19l.11,0-.15-.46a.4.4,0,0,0,.19-.23l5.62-2.07,0,.07,0,0-.25-.73L116.82,398a.37.37,0,0,0-.29-.06l-.16-.46-.11,0c-.4.15-.65.48-.6.76a1.78,1.78,0,0,1-1.81-1.16l0-.06a1.91,1.91,0,0,1,.72-2.09.73.73,0,0,0,.93.22l.11,0-.15-.46a.39.39,0,0,0,.19-.23l5.58-2.05-.22-.62-5.57,2a.36.36,0,0,0-.29-.05l-.15-.46-.11,0a.8.8,0,0,0-.6.74,1.77,1.77,0,0,1-1.81-1.16l0-.06s0-.05,0-.07v0l-3.14,1.14,0,.06.43,1.3a.89.89,0,0,0-.46.48l.43,1.27A.83.83,0,0,0,110.34,397.05Z"/><path class="cls-7" d="M78.65,405.23l4.66,14a1.27,1.27,0,0,0,.45-.08,1.18,1.18,0,0,0,.78-1.43l-.15-.46,2.85-1,.11.33c.11.34.6.47,1.09.29l.11,0-.14-.42a.66.66,0,0,0,.3-.31l12.35-4.54a.73.73,0,0,0,.86.32l-.81-2.45-6.93,2.55a3.91,3.91,0,0,1-5.2-2.17,4.21,4.21,0,0,1,2.78-5.1l7-2.56-1.3-4L78.57,405Z"/><path class="cls-7" d="M98.79,402.09l2.42,7.27-.1,0,.81,2.45.11,0,1.47,4.41a.63.63,0,0,0,.83.34.73.73,0,0,0,.39-.34.58.58,0,0,0,0-.48l-.1-.31,2.16-.79a2.55,2.55,0,0,1,.82-.76v0c.1.29.52.41.94.25l.11,0-.15-.46a.4.4,0,0,0,.19-.23l5.62-2.07,0,.07a.45.45,0,0,0,.27.27h0l-.48-1.42h0a.47.47,0,0,0,0,.38l0,.07-5.62,2.07a.36.36,0,0,0-.29-.05l-.15-.46-.11,0a1,1,0,0,0-.54.43.48.48,0,0,0,0,.38l.06.18c-.85.13-1.58-.11-1.76-.64v0c-.18-.53.25-1.19,1-1.65v0c.1.29.52.41.94.25l.11,0-.15-.46a.39.39,0,0,0,.19-.24l5.62-2.06,0,.07a.45.45,0,0,0,.26.25l-.46-1.37a.47.47,0,0,0,0,.36l0,.07-5.62,2.07a.37.37,0,0,0-.29-.05l-.15-.46-.11,0c-.43.16-.69.52-.58.82l0,.12a1.63,1.63,0,0,1-1.84-.9l0-.05a1.76,1.76,0,0,1,.9-1.91l0,.09c.1.29.52.41.94.25l.11,0-.15-.46a.41.41,0,0,0,.19-.24l5.62-2.06,0,.07a.44.44,0,0,0,.24.25l-.45-1.35a.47.47,0,0,0,0,.34l0,.07-5.62,2.07a.37.37,0,0,0-.29-.05L106,406l-.11,0c-.42.16-.69.52-.59.82l0,0a1.88,1.88,0,0,1-2-1.23l0-.06a2,2,0,0,1,.8-2.24v0c.1.3.52.41.94.25l.11,0-.15-.46a.39.39,0,0,0,.19-.23l5.62-2.07,0,.07a.43.43,0,0,0,.22.24l-.44-1.31a.45.45,0,0,0,0,.31l0,.07L105,402.31a.38.38,0,0,0-.29-.05l-.15-.46-.11,0a1,1,0,0,0-.54.43.47.47,0,0,0,0,.38l0,0a1.87,1.87,0,0,1-1.95-1.22l0-.06a2,2,0,0,1,.8-2.24l0,.07a.44.44,0,0,0,.26.27,1,1,0,0,0,.68,0l.11,0-.15-.46a.39.39,0,0,0,.19-.23l5.62-2.07,0,.07a.42.42,0,0,0,.19.22l-.43-1.27a.43.43,0,0,0,0,.29l0,.07-5.62,2.07a.35.35,0,0,0-.29-.06l-.15-.46-.11,0c-.42.16-.68.52-.59.81v0a1.88,1.88,0,0,1-2-1.23l0-.06s0,0,0-.06,0-.08,0-.12l-3.1,1.12,1.3,4Z"/><polygon class="cls-7" points="122.42 395.87 122.42 395.85 122.42 395.85 122.42 395.87"/><path class="cls-7" d="M121.26,392.37l0,.07c.09.27.46.39.84.28l.78,2.35c-.36.17-.58.5-.49.78v0l0,0h0l.25.73a.68.68,0,0,0,.82.25l.79,2.39a1,1,0,0,0-.44.39.57.57,0,0,0-.06.18l.4,1.15a.81.81,0,0,0,.71.1l.53,1.6a.88.88,0,0,0-.48.51l.43,1.25a.82.82,0,0,0,.65.07l.36,1.08a1,1,0,0,0-.44.39l0,.06.47,1.34h0a.93.93,0,0,0,.58,0l0,.15a.63.63,0,0,0,.83.35.68.68,0,0,0,.45-.82l-.07-.22,2.2-.81,0,0a2.39,2.39,0,0,1,.76-.71.47.47,0,0,0,.24.21,1,1,0,0,0,.68,0l.11,0-.15-.46a.4.4,0,0,0,.19-.23l5.53-2-.21-.63-5.53,2a.37.37,0,0,0-.29-.05l-.15-.46-.11,0c-.43.16-.69.52-.59.81l0,.08c-.79.12-1.45-.1-1.61-.58v0c-.16-.47.24-1.09.93-1.51a.75.75,0,0,0,.91.18l.11,0-.15-.46a.38.38,0,0,0,.19-.23l5.53-2-.21-.62-5.53,2a.37.37,0,0,0-.29-.06l-.15-.46-.11,0c-.42.16-.68.52-.59.82v0a1.52,1.52,0,0,1-1.7-.84l0-.05a1.64,1.64,0,0,1,.83-1.77c.1.29.52.4.94.24l.11,0-.15-.46a.41.41,0,0,0,.19-.23l5.53-2-.21-.62-5.53,2a.35.35,0,0,0-.29-.06l-.15-.46-.11,0a1,1,0,0,0-.54.43.5.5,0,0,0-.06.32A1.77,1.77,0,0,1,127,397l0-.06a1.91,1.91,0,0,1,.73-2.1.74.74,0,0,0,.92.19l.1,0-.15-.46a.38.38,0,0,0,.19-.23l5.54-2-.21-.63-5.53,2a.37.37,0,0,0-.29-.05l-.15-.46-.11,0c-.4.15-.65.48-.6.76a1.76,1.76,0,0,1-1.81-1.16l0-.06a1.91,1.91,0,0,1,.73-2.09.44.44,0,0,0,.25.23,1,1,0,0,0,.67,0l.11,0-.15-.46a.43.43,0,0,0,.19-.23l5.53-2-.21-.62-5.53,2a.38.38,0,0,0-.29-.06l-.15-.46-.11,0a.8.8,0,0,0-.6.74,1.77,1.77,0,0,1-1.82-1.16l0-.07a.31.31,0,0,1,0-.05l-3.14,1.13.43,1.3c-.37.17-.58.5-.49.78l0,.07-.05,0,.22.62Z"/><path class="cls-4" d="M156.69,379.34l0,.07c.09.27.45.39.83.29l.78,2.36c-.36.17-.57.5-.48.77l0,.07-.15.06.21.63.15-.06,0,.07c.09.27.45.39.83.29l.79,2.39c-.36.17-.57.5-.48.77l0,.07-.17.06.21.63.17-.06,0,.07a.44.44,0,0,0,.27.27.85.85,0,0,0,.56,0l.53,1.6a1,1,0,0,0-.43.39.47.47,0,0,0,0,.38l0,.07-.18.07.21.63.19-.07,0,.07c.09.27.45.39.84.29l.36,1.08c-.36.17-.57.5-.48.76l0,.07-.2.07.21.63.2-.07,0,.07a.44.44,0,0,0,.26.27.87.87,0,0,0,.57,0l0,.15a.63.63,0,0,0,.83.35.68.68,0,0,0,.45-.82l-.07-.21,2.2-.81,0,0a2.38,2.38,0,0,1,.76-.71.74.74,0,0,0,.92.2l.11,0-.15-.46a.39.39,0,0,0,.19-.23l5.62-2.07,0,.07c.09.27.46.39.84.28l0,.15a.62.62,0,0,0,.83.35.74.74,0,0,0,.4-.34.61.61,0,0,0,0-.48L169.66,372l-1.28.46.35,1.05c-.36.17-.58.5-.49.78l0,.07-5.62,2.07a.36.36,0,0,0-.29-.05l-.15-.46-.11,0a.8.8,0,0,0-.6.74,1.77,1.77,0,0,1-1.79-1.09l-3.13,1.13.37,1.12a1,1,0,0,0-.43.39.48.48,0,0,0,0,.38l0,.07-.13,0,.21.63Zm16.58,7.83.36,1.07a1,1,0,0,0-.44.39.5.5,0,0,0,0,.38l0,.07-5.62,2.07a.38.38,0,0,0-.29-.06l-.15-.46-.11,0a1,1,0,0,0-.54.43.48.48,0,0,0,0,.38l0,.08c-.79.12-1.46-.11-1.62-.58v0c-.16-.48.23-1.09.93-1.52a.47.47,0,0,0,.23.19.93.93,0,0,0,.68,0l.11,0-.16-.46a.39.39,0,0,0,.19-.23l5.63-2.07,0,.07C172.51,387.16,172.88,387.27,173.27,387.16Zm-1.14-3.42.53,1.6a1,1,0,0,0-.44.39.48.48,0,0,0,0,.38l0,.07-5.62,2.07a.37.37,0,0,0-.29-.06l-.15-.46-.11,0a1,1,0,0,0-.54.43.48.48,0,0,0,0,.38h0a1.51,1.51,0,0,1-1.7-.84l0-.05a1.64,1.64,0,0,1,.83-1.77c.1.29.52.4.94.24l.11,0-.15-.46a.4.4,0,0,0,.19-.23l5.62-2.07,0,.07C171.38,383.73,171.74,383.85,172.13,383.74Zm-1.4-4.21.8,2.39a1,1,0,0,0-.44.39.48.48,0,0,0,0,.39l0,.07-5.62,2.07a.38.38,0,0,0-.29-.05l-.15-.46-.11,0a1,1,0,0,0-.54.43.52.52,0,0,0-.06.32,1.77,1.77,0,0,1-1.81-1.16l0-.06a1.9,1.9,0,0,1,.73-2.1.74.74,0,0,0,.91.19l.11,0-.15-.46a.43.43,0,0,0,.19-.23l5.62-2.07,0,.07a.43.43,0,0,0,.27.27A.89.89,0,0,0,170.73,379.53Zm-9-1.95a.44.44,0,0,0,.25.23.93.93,0,0,0,.68,0l.11,0-.15-.46a.4.4,0,0,0,.19-.23l5.62-2.07,0,.07a.45.45,0,0,0,.27.27.88.88,0,0,0,.58,0l.78,2.35a1,1,0,0,0-.44.39.49.49,0,0,0,0,.38l0,.07L164,380.62a.38.38,0,0,0-.29-.06l-.15-.46-.11,0a1,1,0,0,0-.54.43.48.48,0,0,0-.06.33,1.77,1.77,0,0,1-1.81-1.16l0-.07A1.91,1.91,0,0,1,161.77,377.59Z"/><path class="cls-14" d="M139.43,365l.37,1.1a1,1,0,0,0-.44.39.49.49,0,0,0-.06.3l.31.93a.44.44,0,0,0,.22.19.9.9,0,0,0,.58,0l.56,1.66a.76.76,0,0,0-.5.68l.32,1a.46.46,0,0,0,.2.17.91.91,0,0,0,.58,0l.79,2.36a1,1,0,0,0-.45.39.51.51,0,0,0-.06.23l.34,1a.74.74,0,0,0,.77.17l.8,2.42a.8.8,0,0,0-.51.61l.36,1.07a.74.74,0,0,0,.75.14l.35,1,.05.16,3.13-1.13h0l0-.06s0-.08,0-.12a1.92,1.92,0,0,1,.74-2,.73.73,0,0,0,.92.2l.11,0-.15-.46a.4.4,0,0,0,.19-.23l5.5-2-.21-.63-5.5,2a.37.37,0,0,0-.29-.05l-.16-.46-.11,0a.81.81,0,0,0-.6.73,1.77,1.77,0,0,1-1.82-1.16l0-.07a1.91,1.91,0,0,1,.73-2.1.75.75,0,0,0,.92.19l.11,0-.15-.46a.39.39,0,0,0,.19-.23l5.52-2-.21-.63-5.52,2a.38.38,0,0,0-.29-.05l-.15-.46-.11,0a1,1,0,0,0-.54.43.48.48,0,0,0-.06.33,1.76,1.76,0,0,1-1.81-1.16l0-.07a1.91,1.91,0,0,1,.73-2.1.73.73,0,0,0,.92.2l.11,0-.15-.46a.4.4,0,0,0,.19-.23l5.54-2-.21-.63-5.54,2a.38.38,0,0,0-.29-.06l-.15-.46-.11,0a1,1,0,0,0-.54.43.49.49,0,0,0-.05.36,1.51,1.51,0,0,1-1.7-.84l0-.05a1.64,1.64,0,0,1,.84-1.77.45.45,0,0,0,.25.23,1,1,0,0,0,.68,0l.11,0-.16-.46a.41.41,0,0,0,.2-.23l5.55-2-.21-.63-5.55,2a.36.36,0,0,0-.29-.06l-.15-.46-.11,0c-.41.15-.67.5-.59.79-.79.12-1.46-.11-1.61-.58v0c-.16-.48.23-1.09.92-1.51a.44.44,0,0,0,.26.26,1,1,0,0,0,.68,0l.11,0-.15-.46a.38.38,0,0,0,.19-.23l5.56-2-.21-.63-5.57,2a.36.36,0,0,0-.29-.05l-.15-.46-.11,0a1,1,0,0,0-.54.43.48.48,0,0,0,0,.38v0a2.28,2.28,0,0,1-1,0h0l-2.24.82-.11-.33a.56.56,0,0,0-.32-.34.7.7,0,0,0-.51,0l-.09,0a.73.73,0,0,0-.3.29.6.6,0,0,0,0,.48l0,.15a1,1,0,0,0-.45.39.51.51,0,0,0-.05.32l.29.88A.69.69,0,0,0,139.43,365Z"/><path class="cls-13" d="M103.43,378a.89.89,0,0,0,.57,0l.36,1.1a.81.81,0,0,0-.49.61l.37,1.09a.49.49,0,0,0,.16.1.88.88,0,0,0,.57,0l.56,1.66a1,1,0,0,0-.43.39.53.53,0,0,0-.06.18l.39,1.15a.8.8,0,0,0,.71.11l.79,2.37a1,1,0,0,0-.43.39.56.56,0,0,0,0,.15l.4,1.19a.53.53,0,0,0,.12.08.89.89,0,0,0,.57,0l.81,2.42a1,1,0,0,0-.44.39.53.53,0,0,0,0,.12l.41,1.23a.81.81,0,0,0,.67.08l.34,1,3.14-1.14a1.92,1.92,0,0,1,.75-2,.74.74,0,0,0,.92.2l.11,0-.15-.46a.4.4,0,0,0,.19-.23l5.53-2-.22-.63-5.52,2a.37.37,0,0,0-.29-.06l-.16-.46-.11,0a1,1,0,0,0-.54.43.47.47,0,0,0-.07.29,1.76,1.76,0,0,1-1.82-1.16l0-.06a1.91,1.91,0,0,1,.73-2.1.75.75,0,0,0,.92.19l.11,0-.16-.46a.4.4,0,0,0,.19-.23l5.48-2-.22-.62-5.47,2a.39.39,0,0,0-.29-.06l-.15-.46-.11,0a1,1,0,0,0-.54.43.46.46,0,0,0-.06.33,1.77,1.77,0,0,1-1.81-1.16l0-.06a1.91,1.91,0,0,1,.73-2.1.49.49,0,0,0,.24.22,1,1,0,0,0,.68,0l.11,0-.15-.46a.4.4,0,0,0,.19-.23l5.42-2-.22-.62-5.42,2a.38.38,0,0,0-.29-.06l-.15-.46-.11,0c-.41.15-.67.5-.59.79a1.51,1.51,0,0,1-1.7-.84l0-.05a1.65,1.65,0,0,1,.83-1.77.73.73,0,0,0,.93.21l.11,0-.15-.46a.38.38,0,0,0,.19-.23l5.38-2-.22-.62-5.38,2a.36.36,0,0,0-.28-.06l-.15-.46-.11,0a1,1,0,0,0-.54.43.49.49,0,0,0-.05.36c-.79.12-1.45-.1-1.62-.58v0c-.16-.47.24-1.09.92-1.51.1.3.51.4.94.25l.11,0-.15-.46a.39.39,0,0,0,.19-.23l5.35-2-.22-.62-5.34,2a.37.37,0,0,0-.29-.05l-.15-.46-.11,0c-.42.16-.69.52-.59.82v0a2.28,2.28,0,0,1-1,0h0l-2.24.82-.11-.33a.55.55,0,0,0-.32-.34.7.7,0,0,0-.51,0l-.09,0a.75.75,0,0,0-.31.29.62.62,0,0,0,0,.48l0,.15a1,1,0,0,0-.43.38.53.53,0,0,0-.06.26l.34,1A.5.5,0,0,0,103.43,378Z"/><path class="cls-14" d="M91.56,380.37l.27.81-.27-.83Z"/><path class="cls-14" d="M94.18,388.25,96,393.56l0,0,1.51,4.58,3.1-1.12a2,2,0,0,1,.83-2.05l0,0c.1.29.52.41.94.25l.11,0-.15-.46a.4.4,0,0,0,.19-.23l5.62-2.07,0,.07a.41.41,0,0,0,.17.2l-.41-1.23a.45.45,0,0,0,0,.27l0,.06-5.62,2.07a.39.39,0,0,0-.29-.05l-.15-.46-.11,0c-.42.15-.69.52-.59.82v0a1.88,1.88,0,0,1-2-1.23l0-.06a2,2,0,0,1,.79-2.24l0,0c.1.3.52.41.94.26l.11,0-.15-.46a.4.4,0,0,0,.19-.23l5.62-2.06,0,.07a.41.41,0,0,0,.15.19l-.4-1.19a.43.43,0,0,0,0,.23l0,.07-5.62,2.06a.39.39,0,0,0-.29-.05l-.15-.46-.11,0c-.43.16-.69.52-.59.82l0,.05a1.88,1.88,0,0,1-2-1.23l0-.07a2,2,0,0,1,.8-2.23l0,0c.1.29.52.41.94.25l.11,0-.15-.46a.39.39,0,0,0,.19-.23l5.62-2.07,0,.07a.4.4,0,0,0,.12.18l-.39-1.15a.45.45,0,0,0,0,.21l0,.07-5.62,2.07a.37.37,0,0,0-.29-.05L99,385l-.11,0a1,1,0,0,0-.54.43.47.47,0,0,0,0,.38l0,.08a1.62,1.62,0,0,1-1.84-.9l0-.05a1.76,1.76,0,0,1,.9-1.91l0,.06a.45.45,0,0,0,.26.27,1,1,0,0,0,.68,0l.11,0-.15-.46a.4.4,0,0,0,.19-.23l5.62-2.07,0,.07a.39.39,0,0,0,.1.16l-.37-1.09a.4.4,0,0,0,0,.16l0,.07L98.28,382A.38.38,0,0,0,98,382l-.15-.46-.11,0c-.43.16-.69.52-.59.81l0,.08c-.85.13-1.58-.11-1.75-.64v0c-.18-.53.25-1.2,1-1.65l0,.1c.1.3.52.41.94.25l.11,0-.16-.46a.4.4,0,0,0,.19-.23l5.62-2.07,0,.07a.4.4,0,0,0,.08.12l-.34-1a.43.43,0,0,0,0,.13l0,.07-5.62,2.07A.38.38,0,0,0,97,379l-.15-.46-.11,0a1,1,0,0,0-.54.43.47.47,0,0,0-.05.38l0,.12a2.44,2.44,0,0,1-1,0l-2.2.81-.14-.42a.55.55,0,0,0-.32-.34.7.7,0,0,0-.51,0l-.09,0a.67.67,0,0,0-.36.76l.27.83L93,384.72h0l1.16,3.53Z"/><path class="cls-14" d="M78.57,405l18.85-6.82-1.51-4.58L89,396.12a2.86,2.86,0,0,1-3.8-1.58,2.74,2.74,0,0,1,.23-2.19,3.35,3.35,0,0,1,1.8-1.54l6.94-2.55L93,384.73c-.41.2-.65.56-.57.87l-12.37,4.55,0,0a.63.63,0,0,0-.37,0l-.14-.42-.11,0a1.17,1.17,0,0,0-.63.5.55.55,0,0,0-.05.44l.13.39-2.85,1-.15-.46A1.09,1.09,0,0,0,74.4,391a1.44,1.44,0,0,0-.4.23Z"/><path class="cls-14" d="M114.65,373.42l.27-.1,0,.07c.09.27.46.39.84.28l.37,1.1a1,1,0,0,0-.44.39.47.47,0,0,0,0,.38l0,.07-.25.09.22.62.24-.09,0,.07c.09.27.46.39.84.29l.55,1.66c-.37.17-.58.5-.49.78l0,.07-.2.07.22.62.2-.07,0,.07a.43.43,0,0,0,.27.27.89.89,0,0,0,.58,0l.79,2.37c-.36.17-.58.5-.49.78l0,.07-.15.06.22.62.15-.05,0,.07c.09.28.45.39.84.28l.8,2.42c-.36.17-.58.5-.49.78l0,.07-.1,0,.22.63.1,0,0,.07c.09.27.46.39.84.29l.36,1.07h0l3.14-1.13a.16.16,0,0,0,0,0,1.91,1.91,0,0,1,.74-2,.73.73,0,0,0,.92.2l.11,0-.15-.46a.4.4,0,0,0,.19-.23l5.54-2-.21-.62-5.53,2a.38.38,0,0,0-.29-.06l-.15-.46-.11,0a.81.81,0,0,0-.61.73,1.76,1.76,0,0,1-1.81-1.16l0-.06a1.91,1.91,0,0,1,.73-2.1.75.75,0,0,0,.92.19l.11,0-.15-.46a.4.4,0,0,0,.19-.23l5.54-2-.21-.62-5.54,2a.35.35,0,0,0-.29-.06l-.15-.46-.11,0a1,1,0,0,0-.54.43.5.5,0,0,0-.06.33,1.77,1.77,0,0,1-1.81-1.16l0-.06a1.91,1.91,0,0,1,.73-2.1.73.73,0,0,0,.92.2l.11,0-.15-.46a.39.39,0,0,0,.19-.23l5.54-2-.21-.63-5.54,2a.36.36,0,0,0-.29-.06l-.15-.46-.11,0a1,1,0,0,0-.54.43.49.49,0,0,0-.05.36,1.52,1.52,0,0,1-1.7-.84l0-.05a1.65,1.65,0,0,1,.84-1.77.44.44,0,0,0,.25.23,1,1,0,0,0,.68,0l.11,0-.15-.46a.43.43,0,0,0,.19-.23l5.54-2-.21-.63-5.54,2a.36.36,0,0,0-.29-.05l-.15-.46-.11,0a1,1,0,0,0-.54.43.48.48,0,0,0-.05.36c-.8.12-1.46-.1-1.62-.58v0c-.16-.47.23-1.09.92-1.51a.44.44,0,0,0,.26.26,1,1,0,0,0,.68,0l.11,0-.15-.46a.39.39,0,0,0,.2-.23l5.54-2-.21-.63-5.54,2a.36.36,0,0,0-.29-.05l-.15-.46-.11,0a1,1,0,0,0-.54.43.49.49,0,0,0,0,.38v0a2.29,2.29,0,0,1-1,0h0l-2.24.82-.11-.32a.55.55,0,0,0-.32-.34.68.68,0,0,0-.51,0,.67.67,0,0,0-.45.81l0,.15c-.36.17-.58.5-.49.77l0,.07-.28.1Z"/><path class="cls-13" d="M126.63,369l.08,0,0,.07c.1.28.49.4.9.26l.37,1.09a1,1,0,0,0-.5.41.47.47,0,0,0,0,.38l0,.07-.08,0,.21.63.08,0,0,.07c.1.28.49.4.9.27l.55,1.66c-.4.16-.64.52-.55.8l0,.07-.08,0,.21.63.09,0,0,.07a.45.45,0,0,0,.26.27,1,1,0,0,0,.64,0l.79,2.36c-.4.16-.65.52-.55.8l0,.07-.09,0,.21.62.09,0,0,.07c.1.29.49.4.9.27l.8,2.41c-.4.16-.64.51-.55.8l0,.07-.08,0,.21.62.09,0,0,.07c.1.28.49.4.9.26l.35,1.06,0,.09,3.13-1.13h0s0-.07,0-.1a1.92,1.92,0,0,1,.74-2,.74.74,0,0,0,.92.2l.11,0-.15-.46a.41.41,0,0,0,.19-.23l5.62-2.07,0,.07a.42.42,0,0,0,.09.14l-.36-1.07a.41.41,0,0,0,0,.17l0,.07-5.62,2.07a.39.39,0,0,0-.29-.05l-.15-.46-.11,0a.81.81,0,0,0-.61.73A1.77,1.77,0,0,1,134.7,380l0-.06a1.91,1.91,0,0,1,.73-2.1.74.74,0,0,0,.91.19l.11,0-.15-.46a.4.4,0,0,0,.19-.23l5.62-2.07,0,.07a.41.41,0,0,0,.08.12l-.34-1a.45.45,0,0,0,0,.15l0,.07-5.62,2.07a.37.37,0,0,0-.29-.06l-.15-.46-.11,0a1,1,0,0,0-.54.43.5.5,0,0,0-.06.33,1.77,1.77,0,0,1-1.81-1.16l0-.06a1.91,1.91,0,0,1,.73-2.09.73.73,0,0,0,.92.2l.11,0-.15-.46a.4.4,0,0,0,.19-.23l5.62-2.06,0,.06a.4.4,0,0,0,.06.1l-.32-1a.38.38,0,0,0,0,.1l0,.07-5.62,2.07a.36.36,0,0,0-.29-.05l-.15-.46-.11,0a1,1,0,0,0-.54.43.48.48,0,0,0-.05.36A1.51,1.51,0,0,1,132,372l0-.05a1.64,1.64,0,0,1,.83-1.77.47.47,0,0,0,.25.23,1,1,0,0,0,.68,0l.11,0-.15-.46a.39.39,0,0,0,.19-.23l5.63-2.07,0,.07a.43.43,0,0,0,0,.08l-.31-.93a.47.47,0,0,0,0,.09l0,.07L133.7,369a.38.38,0,0,0-.29-.06l-.15-.46-.11,0a1,1,0,0,0-.54.43.47.47,0,0,0-.05.36c-.8.12-1.46-.1-1.62-.58v0c-.16-.47.23-1.09.92-1.51a.44.44,0,0,0,.26.26.93.93,0,0,0,.68,0l.11,0-.15-.46a.39.39,0,0,0,.19-.23l5.62-2.07,0,.07,0,0-.29-.88a.48.48,0,0,0,0,.07l0,.07-5.62,2.07a.36.36,0,0,0-.29-.06l-.15-.46-.11,0a1,1,0,0,0-.54.43.47.47,0,0,0-.05.39v0a2.34,2.34,0,0,1-1,0h0l-2.24.83-.11-.33a.55.55,0,0,0-.32-.34.68.68,0,0,0-.51,0l-.09,0a.71.71,0,0,0-.3.29.62.62,0,0,0-.05.48l.05.14c-.4.16-.64.52-.55.8l0,.07-.08,0Z"/><path class="cls-13" d="M150.35,360.29l0,.07c.09.27.45.39.83.29l.36,1.1a1,1,0,0,0-.43.39.47.47,0,0,0,0,.39l0,.07-.07,0,.21.63.07,0,0,.07a.43.43,0,0,0,.27.27.87.87,0,0,0,.57,0l.56,1.67c-.36.17-.57.5-.48.77l0,.07-.08,0,.21.63.08,0,0,.07c.09.27.45.39.83.29l.79,2.37a1,1,0,0,0-.43.39.47.47,0,0,0,0,.38l0,.07-.1,0,.21.63.1,0,0,.07c.09.27.45.39.83.29l.8,2.42a1,1,0,0,0-.43.39.48.48,0,0,0,0,.38l0,.07-.12,0,.21.63.12,0,0,.07c.09.27.44.39.83.29l.34,1,.08.24,3.13-1.13,0-.07,0-.07a1,1,0,0,1,0-.13,1.92,1.92,0,0,1,.75-2,.45.45,0,0,0,.24.22.93.93,0,0,0,.68,0l.11,0-.15-.46a.41.41,0,0,0,.19-.23l5.62-2.07,0,.07c.09.27.46.39.84.29l.34,1,.1.31,1.28-.46-.11-.32-5.93-17.83a.56.56,0,0,0-.32-.34.69.69,0,0,0-.51,0,.68.68,0,0,0-.44.82l0,.15c-.36.17-.58.5-.49.78l0,.07-5.62,2.07a.38.38,0,0,0-.29-.05l-.15-.46-.11,0c-.42.15-.68.52-.58.81v0a2.29,2.29,0,0,1-1,0h0l-2.24.82-.11-.33a.55.55,0,0,0-.32-.34.71.71,0,0,0-.51,0l-.09,0a.72.72,0,0,0-.3.29.58.58,0,0,0,0,.48l0,.15c-.36.17-.57.5-.48.77l0,.07-.06,0,.21.63Zm16.17,6.62.8,2.42a1,1,0,0,0-.44.39.48.48,0,0,0,0,.38l0,.06-5.62,2.07a.36.36,0,0,0-.29-.05l-.15-.46-.11,0a.82.82,0,0,0-.61.73,1.77,1.77,0,0,1-1.82-1.16l0-.07a1.92,1.92,0,0,1,.73-2.1.45.45,0,0,0,.24.21.94.94,0,0,0,.68,0l.11,0-.16-.46a.4.4,0,0,0,.19-.23l5.62-2.07,0,.07C165.77,366.9,166.14,367,166.53,366.91Zm-1.39-4.19.79,2.36c-.36.17-.58.5-.49.78l0,.07L159.83,368a.36.36,0,0,0-.29-.05l-.16-.46-.11,0c-.4.15-.65.48-.6.76a1.77,1.77,0,0,1-1.81-1.16l0-.07a1.91,1.91,0,0,1,.73-2.09.74.74,0,0,0,.92.2l.11,0-.15-.46a.4.4,0,0,0,.19-.23l5.62-2.07,0,.07C164.38,362.71,164.75,362.82,165.13,362.72ZM164,359.24l.55,1.67c-.36.17-.58.5-.49.77l0,.07-5.62,2.07a.36.36,0,0,0-.29-.05l-.15-.46-.11,0c-.41.15-.67.51-.59.8a1.52,1.52,0,0,1-1.7-.84v-.05a1.64,1.64,0,0,1,.83-1.77.73.73,0,0,0,.93.21l.11,0-.15-.46a.39.39,0,0,0,.19-.23l5.62-2.07,0,.07C163.22,359.23,163.58,359.34,164,359.24Zm-8.55-.72c.1.29.52.4.94.25l.11,0-.15-.46a.41.41,0,0,0,.19-.23l5.62-2.07,0,.07a.44.44,0,0,0,.27.26.89.89,0,0,0,.58,0l.37,1.1c-.36.17-.58.5-.49.78l0,.07-5.62,2.07a.37.37,0,0,0-.29-.05l-.15-.46-.11,0c-.41.15-.67.5-.59.79-.79.12-1.45-.1-1.62-.58v0C154.35,359.54,154.73,358.94,155.42,358.51Z"/><path class="cls-7" d="M166.48,354.77l.68-.25.27.8-.68.25a2.93,2.93,0,0,0-2,3.49,2.73,2.73,0,0,0,3.65,1.42l.68-.25.29.86-.68.25a3.12,3.12,0,0,0-1.89,3.87,2.89,2.89,0,0,0,3.77,1.79l.68-.25.28.84-.68.25a3.11,3.11,0,0,0-1.91,3.76h0c0,.07.07.14.1.21l15.51-5.61-.21-.4h0l-1.19-2.28-9.31,3.32a.34.34,0,0,0,0-.08l-.28-.85,0-.07,9.05-3.43-2.65-5.06-8.25,2.94a.53.53,0,0,0,0-.08l-.28-.85,0-.07,8-3L177.08,352l-7.34,2.62s0-.05,0-.08l-.29-.85,0-.07,7.11-2.69-.56-1.07-12.47,4.58A3.08,3.08,0,0,0,166.48,354.77Z"/><path class="cls-7" d="M170.55,373.35a2.91,2.91,0,0,0,2.14,0l.68-.25.26.77-.68.25a3.12,3.12,0,0,0-1.65,1.44,3.06,3.06,0,0,0-.23,2.43,2.88,2.88,0,0,0,3.76,1.78l.68-.25.29.86-.68.25a3.33,3.33,0,0,0-1.79,1.51,2.46,2.46,0,0,0-.21,2,2.3,2.3,0,0,0,1.34,1.41,3.14,3.14,0,0,0,2.3,0l.68-.25.27.8-.68.25a3.24,3.24,0,0,0-2.17,2.29c2.2-.81,8.29-3.83,12.7-6l-7.58,2.7a.25.25,0,0,0,0-.08l-.28-.85a.3.3,0,0,0,0-.07l11.22-4.25,0-.14a1,1,0,0,1,.41-1l-1.73-3.3-11.4,4,0-.08-.28-.85,0-.07,11.11-4.2-2.59-5-10.33,3.69a.31.31,0,0,0,0-.08l-.28-.85,0-.07,10.08-3.81-1.15-2.2L169,371.81A2.85,2.85,0,0,0,170.55,373.35Z"/><path class="cls-4" d="M533.74,335.31s0,0,0-.09l4.93-4.26-1.17-1.33-4.94,4.3a1.28,1.28,0,0,0-1.36,1.58l2.86.19-.31-.36Z"/><path class="cls-13" d="M532.35,336.52h0l5.83,6.71,1.34-1.16-5.5-6.35-2.86-.19A1.3,1.3,0,0,0,532.35,336.52Z"/><path class="cls-4" d="M521.33,334.86c0-.14,0-.28,0-.42a11.13,11.13,0,0,1,22.2,1.56c0,.12,0,.23,0,.34l1.48.1,1-13.51h0l.17-2.49-1.74-.12,0,.39-22.42-1.58-1.1,15.69Z"/><polygon class="cls-7" points="520.82 334.82 521.92 319.14 521.89 319.14 521.82 320.19 466.74 316.31 467.06 311.81 460.45 311.35 459.08 330.7 520.82 334.82"/><path class="cls-6" d="M587.45,339.28l0-.49c-2.68-.62-20-8-21-8.5v-.13l-7.53-.53-10.44-6.5h0l-2.6-.18-1,13.51Z"/><path class="cls-15" d="M543.91,351.76l.17-2.47,2.61.18,11.24-5v0l7.54.53v-.11c1.08-.38,19.22-5.25,22-5.49v-.12L545,336.44l-1.1,15.32Z"/><path class="cls-13" d="M542.2,351.27l0,.38,1.71.12,1.1-15.32-1.48-.1a11.12,11.12,0,0,1-22.17-1.48l-.51,0-1,14.86Z"/><polygon class="cls-14" points="457.81 348.78 464.42 349.24 464.74 344.74 519.81 348.62 519.74 349.68 519.78 349.69 520.82 334.82 459.08 330.7 457.81 348.78"/><polygon class="cls-7" points="292.54 116.8 292.53 116.8 292.91 116.77 292.54 116.8"/><path class="cls-7" d="M289.3,110.45a5,5,0,0,0,4.51,4.67l0,1.58.85-.06-3-40.66.24,8.74.42,15.22a1.8,1.8,0,0,0-.42,1.29l.28,4.07a1.38,1.38,0,0,0,0,.23A5,5,0,0,0,289.3,110.45Z"/><path class="cls-4" d="M293.84,116.71l-.93.06-.38,0a.65.65,0,0,0,.09,1.29l1.24-.09h0l.92-.06-.1-1.29-.85.06Z"/><path class="cls-7" d="M283,172.75l15.54-1.07h0l.25,0-4-53.72-.92.06.6,36.81a3.34,3.34,0,0,0-2.49,1.4s-5.32,4-5.14,9.82a3.81,3.81,0,0,0-1.46,3.76A2.93,2.93,0,0,0,283,172.75Z"/><path class="cls-14" d="M298.79,171.66l15.26-1a2.93,2.93,0,0,0-2.76-2.61,3.8,3.8,0,0,0-2-3.52c-.61-5.77-6.43-9-6.43-9a3.35,3.35,0,0,0-2.66-1l-4.43-36.54-1,.07Z"/><path class="cls-13" d="M294.78,117.93l1-.07h0l1.24-.08a.64.64,0,0,0-.09-1.29l-1.3.09h0l-1,.07Z"/><path class="cls-14" d="M291.43,68.58l0,.68.18,6.72,3,40.66,1-.07-.19-1.57a5,5,0,0,0,.28-9.71,1.34,1.34,0,0,0,0-.23l-.28-4.07a1.81,1.81,0,0,0-.59-1.23l-1.66-15.14L291.5,69.25l0-.67v.33Z"/><polygon class="cls-4" points="451.11 170.2 453.5 167.54 448.78 163.15 446.38 165.84 451.11 170.2"/><polygon class="cls-4" points="463 156.96 465.59 154.08 462.39 151.17 459.79 154.02 463 156.96"/><polygon class="cls-4" points="468.31 151.05 470.77 148.31 468.05 145.85 465.6 148.55 468.31 151.05"/><polygon class="cls-4" points="476.36 138.51 478.1 140.16 480.07 137.96 478.3 136.39 476.36 138.51"/><polygon class="cls-4" points="470.74 143.75 473 145.83 475.43 143.13 473.16 141.09 470.74 143.75"/><polygon class="cls-4" points="457.17 163.44 459.72 160.61 453.74 155.13 453.75 155.17 455.7 156.94 453.17 159.72 456.42 162.76 457.17 163.44"/><path class="cls-4" d="M437.77,173.87l-1.88-1.64,7.36,6.72,3.69-4.11-5.53-5Z"/><path class="cls-7" d="M471.56,139.55,473.2,141l0,0,2.27,2,2.67-3-1.73-1.64,0,.05-1.42-1.23a6.55,6.55,0,0,0-2.37-.78,10.38,10.38,0,0,0-1.9.33Z"/><path class="cls-7" d="M476.83,134.9l1.55,1.4-.07.08,1.77,1.57,5-5.55-.34.06-1.31.24-2.26,2.48-1.91-1.71a5.75,5.75,0,0,0-2-.66,2.63,2.63,0,0,1-1.18-.2Z"/><path class="cls-7" d="M466.45,144.31l1.65,1.49,0,.05,2.72,2.46,2.23-2.48-2.26-2.08h0l-1.31-1.13a7.47,7.47,0,0,0-2.6-.88,2.22,2.22,0,0,1-1.42-.36Z"/><path class="cls-7" d="M460.59,149.44l1.84,1.68,0,0,3.2,2.91,2.72-3-2.71-2.51,0,0c-.83-.74-1.4-1.23-1.4-1.23a8.29,8.29,0,0,0-3-1,3.85,3.85,0,0,1-1.76-.29Z"/><path class="cls-7" d="M453.74,155.13l6,5.48L463,157l-3.2-2.94,0,0c-1-.87-1.69-1.49-1.69-1.49a9.82,9.82,0,0,0-3.53-1.17,6.73,6.73,0,0,1-2.17-.23Z"/><path class="cls-7" d="M447,161.51l1.82,1.66,4.69,4.37,3.66-4.08-.74-.7-3.25-3,0,0c-.79-.72-1.33-1.18-1.33-1.18s-2.54-1.36-3.85-1.28a13,13,0,0,1-2.5-.11Z"/><path class="cls-7" d="M439.4,167.88l2.09,1.9-.08.09,5.53,5,4.16-4.63-4.73-4.36,0,0c-.88-.77-1.46-1.3-1.46-1.3s-2.92-1.54-4.45-1.47a10.06,10.06,0,0,1-2.75-.25Z"/><path class="cls-7" d="M408.05,181.8a24.41,24.41,0,0,1-.08,2.64l2.68,2.44-5.79,6.36,3.1,5.24,10.26,8.31,19.92-22.18,5.09-5.67-7.36-6.72-.13-.12s-3.52-1.88-5.34-1.79a19.45,19.45,0,0,1-3.48-.14l2.11,6,2.71,2.47,0,0-3.3,3.63a3.38,3.38,0,0,1-.28-1c-7-4.74-21.74-8.36-22.87-7.66s3.05,5.76,2.84,6.16A4.28,4.28,0,0,0,408.05,181.8Z"/><polygon class="cls-13" points="468.31 151.05 468.3 151.06 468.51 151.24 468.31 151.05"/><polygon class="cls-13" points="451.11 170.2 455.64 174.38 458.08 171.7 453.5 167.54 451.11 170.2"/><polygon class="cls-13" points="457.17 163.44 461.11 167.01 463.65 164.2 459.72 160.61 457.17 163.44"/><path class="cls-13" d="M463,157l3.2,2.94,0,0,2.62-2.88-3.19-2.9Z"/><polygon class="cls-13" points="480 141.9 482.02 139.68 480.07 137.96 478.1 140.16 478.15 140.21 480 141.9"/><polygon class="cls-13" points="475.39 147.94 477.82 145.27 475.43 143.13 473 145.83 473.01 145.85 475.39 147.94"/><polygon class="cls-13" points="471.11 153.53 473.56 150.83 470.77 148.31 468.31 151.05 468.51 151.24 471.11 153.53"/><path class="cls-13" d="M443.25,178.94l5.47,5-.16-.2a.35.35,0,0,0-.07-.08l3.72-4.09-5.27-4.74Z"/><path class="cls-14" d="M461.1,167h0l-3.93-3.56-3.68,4.09,4.58,4.17.05-.06,1.86,1.69,4,1.52a9.55,9.55,0,0,0-.22-3.21C463.36,169.3,461.83,168,461.1,167Z"/><path class="cls-14" d="M466.2,159.9,463,157l-3.27,3.64,3.93,3.6,0,0,2,1.81,3.68,1.37a13.89,13.89,0,0,0-.33-2.8c-.39-2.19-1.83-3.42-2.5-4.31Z"/><path class="cls-14" d="M482,139.65l1.57,1.43,2.09.79s0-.3-.24-1.55a5.32,5.32,0,0,0-1.42-2.45c-.07-.09-1-.94-1.31-1.24l2.25-2.47.1-1.75h0l-5,5.55,1.95,1.72Z"/><path class="cls-14" d="M477.82,145.27v0l1.66,1.51,2.44.92a3.74,3.74,0,0,0,.24-2.36,6.3,6.3,0,0,0-1.65-2.88,4.77,4.77,0,0,0-.53-.54h0l-1.85-1.69-.05,0-2.67,3Z"/><path class="cls-14" d="M473.56,150.83l0,0,1.67,1.52,2.71,1a10.22,10.22,0,0,1-.41-1.87,6.81,6.81,0,0,0-1.87-3.17,3,3,0,0,0-.3-.36h0L473,145.85h0l-2.23,2.48Z"/><path class="cls-14" d="M468.78,157l0,0,1.88,1.71,3.13,1.17s0-.43-.36-2.3a7.7,7.7,0,0,0-2.1-3.63c-.05-.08-.16-.18-.28-.32l0,0-2.6-2.29-.21-.18-2.71,3Z"/><path class="cls-14" d="M455.64,174.38l-4.54-4.19-4.16,4.63,5.27,4.74,0,0,2.15,2,4.61,1.73a13.2,13.2,0,0,0-.35-3.57c-.47-2.64-2.13-4.16-3-5.25Z"/><path class="cls-14" d="M432.35,218.23l5.78-6.36,4.15,3.77,1.23-.45a3.29,3.29,0,0,1,2,.5c.91.64,5.11,1.67,5.41,1.17s-2.4-9.6-3.87-12.9-4.07-8.81-4.82-9.09a8.23,8.23,0,0,1-1.56-.84l3.5-3.85.08-.08,2.79,2.54,5.55,2.1s.3-1.15-.27-4.47c-.56-3.18-2.58-5-3.63-6.31l-5.47-5-5.09,5.67-19.92,22.18Z"/><polygon class="cls-13" points="464.11 289.66 464.11 289.67 465.04 289.31 464.11 289.66"/><polygon class="cls-4" points="501.24 227.8 501.22 227.74 496.97 229.44 501.24 227.8"/><path class="cls-15" d="M463,286.67l1.14,3,.93-.35,21.5-8.31-7.89-20.6-3,1.21,2.57,19.06Zm19.47-10.22-2.14.82L478.42,266Z"/><polygon class="cls-15" points="504.04 250.29 503.98 250.13 499.33 252.01 499.36 252.08 507.25 272.69 511.95 270.96 504.04 250.29"/><path class="cls-13" d="M469.13,302.79l18.94-7.41,7.34,19.16,2-.78-3.27-8.54,4.83-1.85a23.54,23.54,0,0,0,1.56,9.25l1.92-.74c-5.34-14,4.64-24.88,7.8-28.38l2.78-1.06s0-.07.07-.09l7.83-3,0-.11,4.47-3,.07,0-.09-.23-.08,0-2.29.23-.56-1.46,4.94-3.31.06.16.54-.26-.3-.78-.58.17.06.16-5.95.65-.56-1.46,1.88-1.28.07,0-.09-.23-.08,0-5.4.6,0-.09L512,271l0-.08-4.71,1.73.05.13-2.59,1-1.09.83-17,6.53-.07-.18L465,289.31,490,279.93,465,289.31l-.93.36Z"/><path class="cls-13" d="M499.16,301.43l-5.6,2.14-2.57-6.7,10.77-4.12A28.87,28.87,0,0,0,499.16,301.43Z"/><path class="cls-13" d="M507.1,284.25A52.78,52.78,0,0,0,503,290.4l-12.62,4.83-1.51-4Z"/><path class="cls-13" d="M493.56,303.57l5.6-2.14a28.87,28.87,0,0,1,2.6-8.68L491,296.87Z"/><path class="cls-13" d="M490.35,295.23,503,290.4a52.78,52.78,0,0,1,4.13-6.15l-18.26,7Z"/><path class="cls-6" d="M475.46,261.05l.06.16.15.38h0l3-1.21-.13-.34-6.66-17.4-7.16,2.58Zm-1.2-5.93-6.14-9.65,2.14-.82Z"/><path class="cls-4" d="M443.76,234.18l6.17,16.12,14.69-5.17.07.11,7.16-2.58-1.35-3.51,17-6.51,1.37-.1,2.6-1,0,.08,4.66-1.86h0l.79-.3,4.25-1.7h0l4.41-3.18.07,0-.09-.23-.08,0-2.24.31-.56-1.48,4.87-3.5.06.14.54-.24-.3-.77-.56.17.06.15-5.89.84-.57-1.48,1.87-1.33.07,0-.09-.23-.08,0-5.32.74,0-.11-7.83,3-.11,0-2.78,1.07c-4.7-.49-19.44-1.94-24.84-16l-1.6.61-.29.2a23.62,23.62,0,0,0,4.95,7.91L460,216.13l-3.24-8.45-2,.78,7.33,19.15Zm40-11-18.26,7-1.56-4.08,12.46-4.77A58,58,0,0,0,483.72,223.19Zm-23-5.44,5.53-2.12a27.62,27.62,0,0,0,7.67,4.76l-10.64,4.07Z"/><polygon class="cls-6" points="499.33 252.01 503.98 250.13 496.18 229.75 491.52 231.61 499.33 252.01"/><path class="cls-15" d="M347.64,143.65l.25,0a2.47,2.47,0,0,0,.51-4.92h-.31l-.47,4.88Z"/><path class="cls-6" d="M347.63,143.65l.47-4.88a2.47,2.47,0,0,0-.47,4.88Z"/><polygon class="cls-12" points="373.71 123.69 373.61 123.68 373.71 123.69 373.71 123.69"/><path class="cls-12" d="M360.81,122.31l1.35-13s.34-1.46,1.37-1.35,1.05,1.61,1.05,1.61l-1.35,13,2.55.27,1.35-13h0s.32-1.46,1.37-1.35,1.06,1.61,1.06,1.61l-1.35,13,5.06.54,1.88-18.07-2-.2v-.07l-13.61-1.38v0l-2-.2-1.87,18Z"/><path class="cls-12" d="M348.46,135.07h.33a6.18,6.18,0,0,1-1.28,12.3l-.24,0-2.43,25,25,2.6L373.18,143l-1.47-.15h0l.87-8.37L348.76,132Zm.79,35.58-3.23-.34.76-7.32,3.23.34Zm17.07,1.78-3.23-.34.76-7.32,3.23.34Zm-.36-31a1.63,1.63,0,0,1,3.23.34l-.57,5.5-3.23-.34Zm-4.83-.5a1.68,1.68,0,0,1,1.75-1.27,1.71,1.71,0,0,1,1.48,1.61l-.57,5.5-3.23-.34ZM359,164.26l3.23.34-.75,7.32-3.23-.34Z"/><path class="cls-15" d="M372.58,134.5l1.12-10.81h-.1l-.35,0h0l-5.06-.54v0l-2.42-.25v0l-2.55-.27v0l-2.42-.25v0l-5.06-.54v.06l-5.76-.6-.17,0-1,10.78Zm-19.13-10.37,1.48.15-.69,6.68-1.48-.15Zm-3-.31,1.47.15-.69,6.68-1.47-.15Z"/><polygon class="cls-15" points="373.19 105.31 373.5 102.26 372.46 102.15 372.68 100.08 371.76 98.9 370.61 99.86 370.4 101.93 359.89 100.84 359.57 103.92 373.19 105.31"/><polygon class="cls-6" points="343.2 102.26 343.52 99.14 333.03 98.05 333.25 95.98 332.31 94.8 331.17 95.77 330.96 97.83 329.92 97.73 329.6 100.84 327.63 100.64 327.63 100.67 343.55 102.29 343.2 102.26"/><path class="cls-9" d="M332.18,106.24s.33-1.46,1.37-1.35,1.05,1.6,1.05,1.6l-1.34,12.86,2.53.27,1.34-12.87s.32-1.46,1.36-1.35,1.06,1.61,1.06,1.61l-1.34,12.88,5.07.54,1.87-18-1.61-.17-15.92-1.62-1.86,17.87,5.08.55Z"/><path class="cls-6" d="M348.76,132l1-10.78-6.52-.68v-.1l-5.07-.54V120l-2.42-.25v-.13l-2.53-.27v.13l-2.42-.25v-.14l-5.08-.55,0,.16-.78-.08-1.12,10.73Zm-1.36-8.48,1.48.15-.69,6.69-1.48-.15Zm-3-.31,1.48.15-.69,6.68-1.48-.15Z"/><path class="cls-9" d="M323,137.8l-.34,0-3.32,31.94,25.34,2.63.18,0,2.43-25h0a6.17,6.17,0,0,1,1.2-12.27l.3-3.08-24.9-2.63Zm9.21,31.08-3.24-.34.76-7.32,3.23.34Zm9.75-6.39,3.23.34-.76,7.32-3.23-.34Zm-9.8-24.58a1.64,1.64,0,0,1,3.23.34l-.57,5.5-3.24-.34Zm-4.84-.5a1.63,1.63,0,0,1,3.23.34l-.57,5.5-3.23-.34Zm.8,23.64-.76,7.32-3.22-.34.76-7.32Z"/><path class="cls-9" d="M459.23,368.26l-4-1.54,0,.09,4,1.5Z"/><path class="cls-9" d="M459.23,368.26l.56-1.48c4.21,1.69,11.59,4.57,13.77,5L475,368a32.86,32.86,0,0,0-6.82-3.91c-1.84-.84-4.48-2.11-6.54-3,.14-.44.1-.49.23-.91a15.46,15.46,0,0,0,5.31,1.32c2.92.22,6,2.5,6.26,2.6a8.64,8.64,0,0,0,3.38-.18A1.74,1.74,0,0,0,479.7,365c.51-.34,1.79-6.14,2.09-6.91a9.21,9.21,0,0,0-.47-4.3c-.32-.33-1,.33-1.59,1a.35.35,0,0,0,0-.1c-.07-.15-2.62-1.56-3-2.59-.33-.88-9.21-3.95-11.82-4.53.38-3.66-.37-4.64-.37-4.64l-9.22,23.78Zm5-16c3.55,1.26,11.62,4.94,12.46,5.16s1.31,1.08,2,.34c-.24.73-.5,1.53-.74,2.31-2.27-1.2-10.5-4.38-14.35-6C463.64,353.9,464.18,352.44,464.22,352.26Z"/><path class="cls-4" d="M473.57,371.76l-.68,1.69,5.69,2.14c.8-2.49,1.53-4.79,1.66-5.13.26-.67-1.92-2.62-3-2.62s-1.72-.57-2.12.19L475,368l-1.49,3.8Z"/><path class="cls-13" d="M470.11,380.28c.08.63,1.66,2,2.73,2.45s2.66,1.21,3.59-.92c.45-1,1.31-3.63,2.1-6.08l0-.14-5.69-2.14,0,.09-.7,1.76,0,0-2,5Z"/><path class="cls-12" d="M451.17,384.84c2.48.45,8.14,1.33,9.16,2.2a9.55,9.55,0,0,0,4.07,1.83c1.6.46,3,1.81,4,1.06s1.52-2.6,1.79-3.57.29-1.05-2.06-2.13-5.16-2.94-5.61-2.94-5-1.41-7.73-2.26c.61-1.21,1.37-2.74,1.39-2.79,3.73,1.16,10,3.11,11.69,3.57a16.89,16.89,0,0,0,2.17.47l2-5c-.92-.4-9.25-4.2-13.36-5.77l.46-1.21-4-1.5-9,23.18S448,389.63,451.17,384.84Z"/><path class="cls-4" d="M248.2,123.07c.2.06.36.35.46.32a1,1,0,0,0,.51-.36c.08-.16.17-.2.11-.35s-.28-.29-.37-.4-.57.07-.75.14a.5.5,0,0,0-.26.25C247.83,122.76,247.84,123,248.2,123.07Z"/><polygon class="cls-4" points="255.96 173.74 256.46 175.43 255.5 176.37 257.35 183.63 269.51 178.81 265.52 169.06 258.26 171.99 255.96 173.74"/><path class="cls-5" d="M230.22,140s.8.66,1.8,1.4a22.76,22.76,0,0,0,3.57,1.78A22,22,0,0,1,237.9,142a7.33,7.33,0,0,1,2.72-.91c.83,0,5.11-.63,5.11-.63l2.76,8.75s.78-.21,1,.36a1.88,1.88,0,0,0,.84.86l8.21,21.33-.28.21,7.26-2.93-18.94-46.26a1.87,1.87,0,0,0-.4.18c-.18.13-.5.2-.38-.12a1.36,1.36,0,0,1,.47-.83l-.32-.78c-1.47,1-.85,2.77-.43,4.09s1,4.62,1,4.62a15.57,15.57,0,0,0-1.64.65c-1.16.51-2.65,2.08-3.61,2.24a10.69,10.69,0,0,0-3.29,1.9c-.44.39-7.5,3.08-8.2,3.36l.38,1.85Z"/><path class="cls-4" d="M222.87,141.22c.42.54,3.86-.08,5-.45s2.2-.73,2.36-.78l-.38-1.85,0,0a5.88,5.88,0,0,1-2.14-.06,6,6,0,0,0-2.57.75c-.59.29-.2.72-.2.72a11.16,11.16,0,0,0-1.22.48C223.2,140.27,222.44,140.68,222.87,141.22Z"/><polygon class="cls-13" points="269.51 178.81 282 173.86 278.38 167.3 277.02 167.28 276.23 165.71 273.2 166.03 273.18 165.97 265.52 169.06 269.51 178.81"/><path class="cls-13" d="M270.32,124.89a10.92,10.92,0,0,1,1.57-.95,16.55,16.55,0,0,0,3.92-2.8c.86-1,.25-1.29-.09-1.36a12.28,12.28,0,0,0-2.59,1.13s.65-.69.6-.94-1.65,1-2.2,1.42a5,5,0,0,0-1.06,1.12l-.8.59-.24.1,1,1.95Z"/><path class="cls-16" d="M246.27,122a1.63,1.63,0,0,1,.29-.21,2.71,2.71,0,0,1,2-.34c.41.19,1,1.52,1.15,1.78a5.88,5.88,0,0,1,.36,2.21c-.15.46-.41.92-.62.89s-.46-.22-.69-.14-.49.21-.54-.05,0-1,.27-1.1.34-.14.46-.1a.54.54,0,0,0,.31,0,.48.48,0,0,0-.24-.44,1.55,1.55,0,0,0-.55-.16s-.22-.56-.4-.54a.78.78,0,0,0-.33.11,5.69,5.69,0,0,0-.38-1.06c-.12-.12-.17-.26-.42-.18l-.35.11,18.94,46.26,7.66-3.09-3.5-7,.56-.49-2.67-6.46.34-.79-7.85-16.4a27,27,0,0,0,3.39-2.1c1.49-1.14,6.15-2.77,6.15-2.77a3,3,0,0,0,.91-1.5,7.32,7.32,0,0,0-.12-3.35l-1-1.95c-1,.43-5.07,2.11-6.45,2.66a24.07,24.07,0,0,1-6.55.92,13,13,0,0,0-4,.94,7.63,7.63,0,0,1-.87-1.22c-.15-.37-.94-2.23-1.86-4.3s-2.69-1.6-3.65-1l-.07.05Z"/><rect class="cls-1" x="135.54" y="317.35" width="2.16" height="1.38" transform="translate(-15.8 7.26) rotate(-2.88)"/><polygon class="cls-1" points="139.81 333.33 140.27 334.34 142.31 334.44 141.98 333.48 139.81 333.33"/><polygon class="cls-1" points="139.83 326.14 137.67 326.25 137.87 327.57 140.02 327.46 139.83 326.14"/><path class="cls-1" d="M143.82,313a1.78,1.78,0,0,0,2,1.41l3.17-.16a2.38,2.38,0,0,0,.71-.14c0-.46-.08-.93-.12-1.4v-.12c0-.45-.08-.9-.12-1.36a2.46,2.46,0,0,0-.61,0l-3.17.16a1.79,1.79,0,0,0-1.86,1.56s0,0,0,.07A.23.23,0,0,0,143.82,313Z"/><path class="cls-1" d="M147.71,325.34a1.58,1.58,0,1,0,.15,3.06l3.16-.16a2.46,2.46,0,0,0,.68-.13c-.17-.91-.35-1.89-.53-2.92h-.31Z"/><polygon class="cls-1" points="145.31 342.3 145.62 342.74 147.44 342.88 147.1 342.42 145.31 342.3"/><path class="cls-1" d="M151.63,329.41l-3.17-.07a1.86,1.86,0,0,0-2,1.49,1.69,1.69,0,0,0,1.85,1.58l3.16.07a2.36,2.36,0,0,0,1.1-.24c-.17-.8-.37-1.73-.58-2.79Z"/><path class="cls-1" d="M150,324a2.3,2.3,0,0,0,1-.27c-.14-.88-.28-1.78-.41-2.72a2.4,2.4,0,0,0-.72-.07l-3.16.16a1.58,1.58,0,1,0,.15,3.06Z"/><polygon class="cls-1" points="142.62 338.83 142.97 339.4 144.75 339.41 144.57 338.88 142.62 338.83"/><path class="cls-1" d="M146.07,319.28l3.16-.16a2.34,2.34,0,0,0,1-.27q-.17-1.31-.32-2.68a2.35,2.35,0,0,0-.82-.11l-3.16.16a1.58,1.58,0,1,0,.15,3.06Z"/><rect class="cls-1" x="134.88" y="307.86" width="2.16" height="1.38" transform="translate(-15.1 7.11) rotate(-2.84)"/><path class="cls-1" d="M145.36,309.57l3.9-.2h.06c-.06-1.06-.11-2.13-.15-3.21h-.08l-3.9.19a1.65,1.65,0,1,0,.16,3.22Z"/><rect class="cls-1" x="135.16" y="298.23" width="2.16" height="1.38" transform="translate(-14.79 7.19) rotate(-2.87)"/><path class="cls-1" d="M143.59,302.74a1.78,1.78,0,0,0,2,1.44l3.16-.16.36,0q0-1.49,0-3a2.35,2.35,0,0,0-.53,0l-3.16.16A1.77,1.77,0,0,0,143.59,302.74Z"/><path class="cls-1" d="M145.81,294.65l3.72-.18c.1-1,.21-1.91.35-2.86l-4.21.21a1.45,1.45,0,1,0,.14,2.83Z"/><path class="cls-1" d="M146.5,290.62l3.55-.18c.16-.94.34-1.88.54-2.79l-4.23.21a1.43,1.43,0,1,0,.14,2.76Z"/><path class="cls-1" d="M145.29,299.28l3.91-.2c0-1,.1-2,.17-2.93l-4.23.21a1.49,1.49,0,1,0,.15,2.91Z"/><path class="cls-9" d="M149.57,312.64v.12c0,.46.07.94.12,1.4a2.38,2.38,0,0,1-.71.14l-3.17.16a1.78,1.78,0,0,1-2-1.41.23.23,0,0,1,0,0s0,0,0-.07l-14.07.76a.22.22,0,0,0,0,0,79,79,0,0,0,1.51,9.19l.89-.1.33.34,1.08,0,.25,1.22,1.15,3.83-1.51,1.51c8.47,19.23,15.66,15.52,15.66,15.52l3.13.28a4.54,4.54,0,0,0,4.1.59l3.1.3a2.26,2.26,0,0,0,.84.74c-4.12-6.25-7.18-19.16-8-34.73Zm2.14,15.47a2.46,2.46,0,0,1-.68.13l-3.16.16a1.58,1.58,0,1,1-.15-3.06l3.16-.16h.31C151.36,326.23,151.54,327.2,151.71,328.11Zm-5.79-11.9,3.16-.16a2.35,2.35,0,0,1,.82.11q.15,1.37.32,2.68a2.34,2.34,0,0,1-1,.27l-3.16.16a1.58,1.58,0,1,1-.15-3.06Zm-10.41,1.19,2.16-.11.07,1.38-2.16.11Zm2.16,8.85,2.16-.11.19,1.32-2.16.11Zm2.6,8.08-.46-1,2.17.15.34,1Zm2.7,5.06-.35-.57,1.94.05.19.53Zm1.81-16.67a1.77,1.77,0,0,1,1.86-1.63l3.16-.16a2.4,2.4,0,0,1,.72.07c.13.94.27,1.85.41,2.72a2.3,2.3,0,0,1-1,.27l-3.16.16A1.77,1.77,0,0,1,144.78,322.72Zm.84,20-.31-.45,1.79.12.34.47Zm5.83-10.27-3.16-.07a1.69,1.69,0,0,1-1.85-1.58,1.86,1.86,0,0,1,2-1.49l3.17.07.34,0c.21,1.06.41,2,.58,2.79A2.36,2.36,0,0,1,151.45,332.48Z"/><path class="cls-12" d="M129.76,313.72l14.07-.76a1.79,1.79,0,0,1,1.86-1.56l3.17-.16a2.46,2.46,0,0,1,.61,0c0,.46.08.91.12,1.36l2.72-.15c-.15-2.75-.23-5.57-.23-8.47a146,146,0,0,1,1.57-21.86,2.88,2.88,0,0,1-.5-.3l-.45,1.15-.88.2-.53,2.12-6.14,2-.52-.28-.69.24-1.16-.35-.34.94-1.32.22-.39,1.09a67.44,67.44,0,0,0-7.48,3l-.8.55-1.16-.25C128.91,299.18,129.09,307.48,129.76,313.72Zm16.61-25.85,4.23-.21c-.2.92-.38,1.85-.54,2.79l-3.55.18a1.43,1.43,0,1,1-.14-2.76Zm-.7,4,4.21-.21c-.14.95-.25,1.9-.35,2.86l-3.72.18a1.45,1.45,0,1,1-.14-2.83Zm-.52,4.55,4.23-.21c-.07,1-.13,1.95-.17,2.93l-3.91.2a1.49,1.49,0,1,1-.15-2.91Zm4,4.62q0,1.49,0,3l-.36,0-3.16.16a1.58,1.58,0,1,1-.15-3.06l3.16-.16A2.35,2.35,0,0,1,149.14,301Zm-3.94,5.36,3.9-.19h.08c0,1.08.08,2.15.15,3.21h-.06l-3.9.2a1.65,1.65,0,1,1-.16-3.22Zm-7.91-8.18.07,1.38-2.16.11-.07-1.38Zm-.28,9.63.07,1.38-2.16.11-.07-1.38Z"/><path class="cls-9" d="M163.24,311.9c.68,14.82,2.68,27.63,5.47,36.17a1.62,1.62,0,0,0,.32-.2l2.11-.11,7.13-.36-1.34-14.85L175,311.49v-.23Zm4.6.46,4.56-.23.18,3.6L168,316c-1.64.08-3-.66-3.05-1.65S166.2,312.44,167.84,312.36Zm-2.5,7.46c-.05-1,1.24-1.86,2.87-1.95l4.46-.22.18,3.6-4.46.22C166.76,321.55,165.39,320.81,165.34,319.81Zm3.48,3.55,4.12-.21h0l.18,3.6h0L169,327c-1.4.07-2.57-.68-2.62-1.67S167.42,323.43,168.82,323.36Zm.15,8.48c-1.46,0-2.6-.89-2.55-1.89s1.27-1.76,2.73-1.71l4.06.13.18,3.61h-.11Z"/><path class="cls-2" d="M159.65,306.09l-3.64.18a1.84,1.84,0,1,0,.18,3.6l3.63-.18a2.7,2.7,0,0,0,1.05-.27q-.08-1.57-.14-3.15A2.62,2.62,0,0,0,159.65,306.09Z"/><path class="cls-6" d="M162.73,347.16l5,.65a.72.72,0,0,0,1,.26c-2.79-8.54-4.79-21.35-5.47-36.17L161,312v.17c0,.81.09,1.62.14,2.42a2.56,2.56,0,0,1-1.36.46l-3.63.18a2.05,2.05,0,0,1-2.32-1.69,1.57,1.57,0,0,1,.33-1c0-.05.1-.1.14-.15l-2,.11c.83,15.57,3.88,28.48,8,34.73A3,3,0,0,0,162.73,347.16Zm-8.61-28.4a2.05,2.05,0,0,1,2.14-1.91l3.63-.18a2.58,2.58,0,0,1,1.44.34q.09,1.39.2,2.73a2.55,2.55,0,0,1-1.46.53l-3.63.18A2.05,2.05,0,0,1,154.12,318.76Zm2.68,3.13,3.64-.18a2.63,2.63,0,0,1,1.27.25q.12,1.5.25,2.91a2.59,2.59,0,0,1-1.34.44l-3.63.18a1.84,1.84,0,1,1-.18-3.6Zm.38,8.23a1.94,1.94,0,0,1-2.09-1.83,2.09,2.09,0,0,1,2.25-1.77l3.54.05a2.4,2.4,0,0,1,1.25.36c.08.92.17,1.81.25,2.65a2.44,2.44,0,0,1-1.66.59Z"/><path class="cls-15" d="M152.29,312.49l2-.11a2.44,2.44,0,0,1,1.66-.74l3.63-.18a2.58,2.58,0,0,1,1.37.3c0,.08,0,.17,0,.25l2.22-.12c-.17-3.64-.26-7.41-.26-11.26,0-8,.38-15.66,1.07-22.62a.66.66,0,0,0-.85.38l-1.26.27-.1,1.75c-1.48.89-6.65,2-6.65,2l-.7,0a1.86,1.86,0,0,1-.86-.2A146,146,0,0,0,152.07,304C152.07,306.92,152.15,309.75,152.29,312.49Zm7.54-2.81-3.63.18a1.84,1.84,0,1,1-.18-3.6l3.64-.18a2.62,2.62,0,0,1,1.09.17q.06,1.59.14,3.15A2.7,2.7,0,0,1,159.83,309.69Zm-6-6.8a2.05,2.05,0,0,1,2.14-1.91l3.64-.18a2.66,2.66,0,0,1,1,.14q0,1.62.08,3.25a2.63,2.63,0,0,1-.92.21l-3.63.18A2.06,2.06,0,0,1,153.8,302.89Zm3.28-19.24,3.41-.35a3.5,3.5,0,0,1,.6,0c-.07.75-.13,1.51-.19,2.29h-.1l-3.4.36c-1.15.12-2.15-.29-2.24-.92S155.93,283.77,157.08,283.64Zm-.82,3.21,3.62-.38a3.15,3.15,0,0,1,1,0c-.06,1-.11,1.94-.15,2.93l-.39.07-3.62.38c-1.22.13-2.31-.45-2.42-1.29S155,287,156.27,286.86Zm-.17,3.82,3.64-.18a2.73,2.73,0,0,1,.91.1q-.05,1.63-.08,3.3a2.72,2.72,0,0,1-.66.11l-3.64.18a1.81,1.81,0,1,1-.18-3.52ZM156,295.6l3.63-.18a2.78,2.78,0,0,1,1,.12q0,1.61,0,3.25a2.67,2.67,0,0,1-.79.15l-3.63.18a1.81,1.81,0,1,1-.18-3.52Z"/><path class="cls-12" d="M176.81,276.82c-4.1-.56-4.1-.56-7.95.23s-4.71,1-4.71,1l-.09,0c-.69,7-1.07,14.6-1.07,22.62,0,3.85.09,7.61.26,11.26l11.81-.64ZM172,304.7l-3.79.19c-1.48.08-2.73-.67-2.78-1.67s1.11-1.86,2.6-1.93l3.79-.19Zm-.78-15.56-3.34.39c-1.55.19-2.91-.29-3-1.07s1-1.55,2.6-1.73l3.63-.43Zm-3.84-8.89,3.38-.48.12,2.31-3.06.43c-1.52.21-2.85-.12-3-.74S165.89,280.47,167.4,280.25Zm0,2.94,3.54-.42.11,2.3-3.3.39c-1.52.18-2.84-.19-2.94-.81S165.87,283.37,167.39,283.19Zm-.06,7.54,4-.2.18,3.6-4,.2c-1.63.08-3-.66-3-1.65S165.7,290.81,167.33,290.73Zm.45,5.12,3.8-.19.18,3.6-3.8.19c-1.63.08-3-.66-3-1.65S166.14,295.94,167.78,295.85Zm.45,14.72c-1.64.08-3-.66-3.05-1.65s1.24-1.87,2.87-1.95l4.08-.2.18,3.6Z"/><path class="cls-13" d="M164.27,256l-3.47-1.32c1,1,2,1.95,3,2.91l1.82-.28Z"/><path class="cls-4" d="M180.63,262.23l1.54,1.3.17-.65Z"/><path class="cls-4" d="M167,268.86l2.64,0a80.56,80.56,0,0,1-9-6.86l-1.95.23A97.15,97.15,0,0,0,167,268.86Z"/><path class="cls-5" d="M140.6,261.53a131.47,131.47,0,0,0,37.69,13.33l-2,4.94,6.72,2.73,6.82-16.8-7.49-2.85-.17.65.53.44-1.57,3.87c-.55.13-1.17.24-1.75.36h0l-2.16.31.09.06c-.8.12-1.59.24-2.35.27-1.25.07-3.17.08-5.25.07l0,0-2.64,0h0l-3.94-.08c-2.06-.67-4.26-1.47-6.51-2.33l-.06,0L150.74,264l0,0c-1-.42-1.89-.8-2.87-1.26.43,0,.91,0,1.39.07h0l2.23,0,0,0c.16,0,.3,0,.47,0,1.12-.1,3.66-.32,6.63-.61l.06.05,1.95-.23,0,0c2.37-.25,4.87-.55,7.12-.91l.07.06,1.81-.31-.06-.05a3.12,3.12,0,0,1,.35-.06c1.46-.28,3.13-.53,4.83-.75l-7.58-2.89-.25,0-1.21.19h0l-1.82.28h0c-2.45.38-4.85.71-7.12,1h0l-1.91.21h0l2.13-.19-2.13.19h0c-2.71.3-5.24.5-7.53.55H145a28.88,28.88,0,0,1-3.28-.22l-1.47-.22a92.21,92.21,0,0,1-11.57-7.63,29.37,29.37,0,0,0,9.41,1.09l.07,0,1.72-.22,0,0c1.81-.3,4.29-.67,7-1.06l0,0,1.85-.2-.08-.08,1.43-.2-7.76-3c-2.18.22-4.22.38-6.06.47h0l-2.36.14,2.36-.14,0,0-1.75.11v0c-5,.18-8.22,0-8.22,0l-2.58-3.28,3.19.07-2.35-3.1a18.76,18.76,0,0,0,2.42-.08l-12.34-4.71C114.07,241,123.39,252.27,140.6,261.53Z"/><path class="cls-4" d="M150.74,264l5.76,2.38c-1.73-1.16-3.39-2.35-5-3.56l-2.23,0Z"/><path class="cls-4" d="M177.2,268.5l2.16-.31a77.61,77.61,0,0,1-9.78-7.36l-1.81.31A88.29,88.29,0,0,0,177.2,268.5Z"/><polygon class="cls-5" points="145.19 247.25 145.23 247.25 145.22 247.25 145.19 247.25"/><path class="cls-13" d="M160.8,254.67l3.47,1.32c-2.25-2.14-4.44-4.31-6.47-6.39l-1.78.25C157.53,251.41,159.14,253,160.8,254.67Z"/><path class="cls-16" d="M114.63,237.06,127,241.77l.47-.06,2-.25,0,0,1.63-.15,0-.07c1.56-.2,3.56-.42,6-.73l0,.05,1.72-.23h0l-2.16.22,2.16-.22,0,0,3.77-.46c1.38-.18,2.72-.26,4-.3l0,0,1.92,0-.07-.08c1,0,2,0,2.93.11,3.12.93,6,2,8.84,3l0,0,3.32,1.29-.07-.07c1.44.6,2.86,1.2,4.19,1.8-.74,0-1.56,0-2.43,0l0,0-2,.05h0l0,0c-2.44,0-5.31.21-8.66.51l0,0-1.86.14.06.07c-2.19.23-4.57.5-7.14.84l-.36,0,0,0h0l-1.87.28,1.87-.28-1.78.19.06.06-1.13.12,7.76,3c1.94-.27,3.94-.54,5.88-.78l0,0,1.78-.25,0,0c2.49-.29,4.8-.55,6.59-.7.65-.05,1.3-.07,2-.09l0,0,2,0,0,0c2.25,0,4.41.19,6.14.37l-7.18-3.64,7.18,3.64.18,0a117.33,117.33,0,0,1,10.3,6.05h-.18l2.42,2.2-2.42-2.2c-1.83.1-5.06.33-9,.73l0,0-1.86.21h0c-2.16.25-4.47.55-6.84.92l7.58,2.89c1-.13,2-.25,3-.35l0,0,2-.17-.07-.06.22,0h0c2.17-.21,4-.37,4.88-.43l1.19-2.56L184.71,259h0l-1.47,3.61-.5-.42-.35.75,7.41,2.83,5.72-14.08-6.72-2.73-2,4.94h0a131.37,131.37,0,0,0-36.31-16.71c-19.1-5.45-33.83-3.72-35.8-.41h0a.29.29,0,0,0,0,.05l0,0v0C114.64,236.93,114.64,237,114.63,237.06ZM165,244.55l-.63-.38Z"/><path class="cls-13" d="M168.39,248.81l-2,0c2.31,2.28,4.95,4.85,7.58,7.32l1.86-.21C173.3,253.58,170.72,251.08,168.39,248.81Z"/><path class="cls-4" d="M134.51,248.17l1.78-.07c-1.16-1.39-2.26-2.81-3.15-4l-2.46-.93C131.71,244.61,133,246.34,134.51,248.17Z"/><path class="cls-13" d="M130.68,243.18l2.46.93-.05-.07c-.77-1-1.44-2-2-2.78l-1.64.18c.35.51.75,1.05,1.19,1.66Z"/><path class="cls-13" d="M145.29,247.3c-2.64-2.75-4.94-5.25-6.49-7l-1.79.2c1.42,1.59,3.73,4.13,6.44,7Z"/><path class="cls-13" d="M154.61,246.24c-2.49-2.64-4.69-5.06-6.14-6.69h-1.94c1.29,1.48,3.56,4,6.22,6.85Z"/><path class="cls-13" d="M163.22,245.73l2,0c-.59-.59-1.27-1.23-1.76-1.74l-3.25-1.23C160.93,243.41,162,244.48,163.22,245.73Z"/><path class="cls-4" d="M154.79,258.77l1.91-.21c-2.76-2.53-5.5-5.28-8-7.8l-1.95.29C149.23,253.55,152,256.2,154.79,258.77Z"/><path class="cls-4" d="M145.13,259.33h2.15a100.14,100.14,0,0,1-7.4-7.22l-1.78.25C140.14,254.6,142.51,257,145.13,259.33Z"/><path class="cls-13" d="M179.62,259.42l-2,.2c1,.92,2,1.82,3,2.61l1.79.68.35-.75C181.81,261.36,180.72,260.4,179.62,259.42Z"/><path class="cls-5" d="M415,428.52l1.5-1.27,4.27,5a1.92,1.92,0,0,1-.59,2.18l-.08.06,0,0,4,4.68L448,418.84l0,0,16.11-13.71-15.72-18.47-40,34.06-.06.05,6.69,7.84Zm33.86-15.76-3.36-4,2.81-2.39,3.36,4Zm8.81-7.5-2.81,2.39-3.36-4,2.81-2.39ZM449,395.06l3.36,4-2.81,2.39-3.36-4Zm-6,5.11,3.36,4-2.81,2.39-3.36-4Zm-6.91,10.41,8.09,9.51-2.65,2.26-8.09-9.51Zm-5.05,4.3,8.09,9.51-2.65,2.25-8.09-9.51ZM426,419.18l8.09,9.51-2.64,2.25-8.09-9.51Zm-5.05,4.3L429,433l-2.65,2.26-8.09-9.51Z"/><path class="cls-5" d="M428.78,444.69l.93-.79,5.73,6.74a1.1,1.1,0,0,1,0,1.64l-.12.09h0l.18.21,13.86-11.84-6.66-7.83-1.57,1.33,5.72,6.72a1.1,1.1,0,0,1,0,1.64,1.19,1.19,0,0,1-1.68-.2l-5.72-6.73-2.11,1.78,5.73,6.73a1.1,1.1,0,0,1,0,1.63,1.19,1.19,0,0,1-1.67-.2l-5.73-6.74.82-.7-7.7,6.51,0,0Zm4.72-4,5.73,6.74a1.1,1.1,0,0,1,0,1.63,1.19,1.19,0,0,1-1.68-.2l-5.73-6.74Z"/><path class="cls-5" d="M454.32,474.68l11.07,13,.46-.39L460,480.39a2,2,0,0,0,.41-1.51l.19-.16a.86.86,0,0,0-.76-1.49L456.26,473Z"/><path class="cls-5" d="M451.26,443.3,437.55,455h0l.78-.66,4.15,4.88a.82.82,0,0,1-.08,1.25l-.12.08h0l10,11.75,3.16-2.7h0a16.09,16.09,0,0,0,1.47-8.19c-.3-3.12-2.35-6.42-3.43-7.93l1.3-1.11a1.38,1.38,0,0,0,.15-2,1.39,1.39,0,0,0-1.19-.49l-4.3-5,1.65-1.41A1.61,1.61,0,0,0,451.26,443.3Zm-5.74,14.55a.89.89,0,0,1-1.29-.08l-4.15-4.88,1.37-1.17,4.15,4.88A.81.81,0,0,1,445.52,457.84Zm3.1-2.64a.89.89,0,0,1-1.29-.08l-4.15-4.88,1.37-1.17L448.7,454A.81.81,0,0,1,448.62,455.21Zm3.18-3.89a.81.81,0,0,1-.09,1.25.89.89,0,0,1-1.28-.08l-4.15-4.88,1.37-1.17Z"/><path class="cls-4" d="M454.32,474.68l1.95-1.64,0,0,.71-.6-.74-.87a1.28,1.28,0,0,0-.1-1.52,1.26,1.26,0,0,0-.63-.38l-3.16,2.7Z"/><path class="cls-16" d="M422.38,461.75l-5.66-6.65-1.55,1.33,6.62,7.77-.06.11,13.73-11.73-.18-.21a1.22,1.22,0,0,1-1.53-.31L428,445.35l-2.1,1.81,5.71,6.71a1.09,1.09,0,0,1,0,1.63,1.18,1.18,0,0,1-1.67-.2l-5.7-6.7-2.1,1.81,5.69,6.68a1.1,1.1,0,0,1,0,1.64,1.19,1.19,0,0,1-1.68-.2l-5.68-6.68-2.09,1.8,5.67,6.66a1.1,1.1,0,0,1,0,1.63A1.19,1.19,0,0,1,422.38,461.75Z"/><path class="cls-16" d="M452.52,476.19l3.58,4.2a.86.86,0,0,0,.14.89.87.87,0,0,0,1.22.1l.19-.16a2,2,0,0,0,1.56-.16l5.85,6.87.31-.26,0,0-11.07-13Z"/><path class="cls-13" d="M449.58,475.55a1.25,1.25,0,0,0,1.47.34l.74.87.7-.59,0,0,1.8-1.51-2-2.36-3,2.57A1.2,1.2,0,0,0,449.58,475.55Z"/><path class="cls-16" d="M431.81,468.33l-4.14-4.87L425.88,465l4.27,5a1.4,1.4,0,0,0,.29,1.27,1.38,1.38,0,0,0,2,.15l1.3-1.1c1.33,1.3,4.26,3.84,7.27,4.65a16.29,16.29,0,0,0,8.33-.14s0,0,0,0l3-2.57-10-11.75a.9.9,0,0,1-1.16-.16L437,455.53l.59-.5h0l-5.4,4.62,4.15,4.88a.82.82,0,0,1-.07,1.24.89.89,0,0,1-1.3-.06l-4.15-4.87L429,462.29l4.15,4.87a.81.81,0,0,1-.09,1.25A.89.89,0,0,1,431.81,468.33Zm2.05-10.16,1.38-1.18,4.15,4.88a.82.82,0,0,1-.09,1.25.89.89,0,0,1-1.3-.07Z"/><path class="cls-16" d="M368.49,454.58,384.18,473l39.8-33.9-3.92-4.6a1.9,1.9,0,0,1-2.1.13l-4.27-5,1.27-1.08-6.69-7.84-39.79,33.86Zm17.35,11.82-3.36-4,2.8-2.38,3.36,4Zm26.09-35.27,8.09,9.51-2.65,2.26-8.09-9.51Zm-5.06,4.31L415,445l-2.65,2.26-8.09-9.51Zm-5.06,4.31,8.09,9.51-2.64,2.24L399.17,442Zm-5.05,4.3,8.09,9.51-2.65,2.25-8.09-9.51Zm-2.11,14.86-2.8,2.39-3.36-4,2.8-2.39ZM386,448.71l3.36,4-2.8,2.39-3.36-4Zm-6,5.11,3.36,4-2.8,2.38-3.36-4Z"/><polygon class="cls-13" points="384.21 473.05 400.32 459.34 403.2 462.72 410.72 456.32 412.52 458.42 415.04 456.27 415.18 456.43 416.72 455.1 416.65 455.01 418.33 453.58 418.4 453.65 420.49 451.85 420.44 451.79 422.13 450.35 422.17 450.4 424.27 448.59 424.24 448.55 425.91 447.13 425.93 447.16 428.04 445.35 428.02 445.33 428.75 444.71 423.98 439.12 384.18 473.02 384.21 473.05"/><polygon class="cls-4" points="428.75 444.73 436.45 438.22 437.31 437.5 437.31 437.5 439.42 435.71 439.41 435.7 441.1 434.27 441.11 434.29 442.68 432.96 442.61 432.87 445.13 430.73 443.33 428.62 450.86 422.22 448.02 418.88 423.97 439.15 428.75 444.73"/><path class="cls-4" d="M437.59,455.06l13.75-11.71a1.65,1.65,0,0,0-2-2.55v0l-13.92,11.81Z"/><path class="cls-13" d="M421.89,466.19a1.64,1.64,0,0,0,2.3.18l1.65-1.4,0,0,1.79-1.53h0l1.38-1.17h0l1.72-1.47h0l1.38-1.17h0l5.5-4.62-2.18-2.44-13.73,11.73A1.63,1.63,0,0,0,421.89,466.19Z"/><path class="cls-17" d="M253.39,183.7l-15.81-15.62-3.66,3.52-1,1-4-1.44-1.17-1.35c-.63-1.69-1.47-1.27-1.47-1.27s-4.79-4.89-9.57-6.2c-5.84-1.61-8.55-.46-8.55-.46l-7.35-6.49s-2.13-1.17-3.47-.95a4.63,4.63,0,0,0,1.28,3.94c1.73,1.89,6.65,6.6,6.65,6.6a21.9,21.9,0,0,0,.17,5.84l16.67,16.54,0,0L235.91,201Zm-29.65-10.12a1.87,1.87,0,0,1,2.6,0l2.8,2.78-2.52,2.53-2.79-2.77A1.79,1.79,0,0,1,223.74,173.58Zm-5.27,5.31a1.85,1.85,0,0,1,2.6,0l2.79,2.77-2.52,2.53-2.78-2.77A1.8,1.8,0,0,1,218.47,178.88Z"/><path class="cls-18" d="M192.86,163.21c-2.38-1.62-8.53-5.63-12.24-6.23-6.23-1-12.16-.43-14.85-1.52s-7.92-6.61-7.92-6.61-4.35-4.32-7.51-4L147.42,142l-.53.17,30.16,30.58A34.26,34.26,0,0,1,192.86,163.21Z"/><path class="cls-14" d="M204.46,169.76c-.65-.63-1.48-1.3-2-1.26a7.78,7.78,0,0,1-2.28-.39l-2.69-2.2s-1.51-2.43-2.53-2.35-1.5.08-1.5.08l-.72-.49a34.12,34.12,0,0,0-15.73,9.58l2.33,2.36.31-.32.26-.27.74-.73,3.53,3.51-.74.74-.26.27-.34.36,2,2.08C190.4,174.58,197.38,170.66,204.46,169.76Zm-11.14-4.41,3.54,3.52a30.31,30.31,0,0,0-3.25,1.49l-3.54-3.51A29.4,29.4,0,0,1,193.32,165.35Zm-6,3.1,3.54,3.51a38,38,0,0,0-3.48,2.52L183.87,171A41.42,41.42,0,0,1,187.35,168.45Z"/><path class="cls-18" d="M235.95,201l-3.75-3.64-8.17-8.1-1.92-1.9-16.67-16.54h0l-.06-.07c-.13-.15-.49-.54-.92-1-7.09.9-14.07,4.81-19.53,11l4.06,4.14,6.07-1.23,4.39,4.35,10.16-2.07,1.59,1.58-12.44,2-4.09-4.17-4.53.78,14.12,14.24a3.44,3.44,0,0,1,.9-.26,4.7,4.7,0,0,1,3.27,1,4.17,4.17,0,0,1,.34.28l9.76,9.68.86.86L218.22,213l-.71.72,2.67,2.71,12.12-11.82Zm-13.21,7.52-2-2L214.16,200s-1.88-1.87-.8-3.88a3.63,3.63,0,0,1,.63-.84,3.73,3.73,0,0,1,.85-.65c2-1.09,3.93.71,3.93.71l4.23,4.2,4.34,4.31Z"/><path class="cls-19" d="M204.48,231.94,191,218l0,0-16.31-16.9a21.87,21.87,0,0,0-5.84-.25s-4.64-5-6.51-6.74a4.63,4.63,0,0,0-3.93-1.34c-.25,1.33.9,3.49.9,3.49l6.39,7.44s-1.18,2.69.35,8.56c1.25,4.8,6.07,9.65,6.07,9.65s-.43.84,1.25,1.49l1.34,1.18,1.38,4.06-1,.94-3.57,3.62,15.4,16Zm-24.7-12.41,2.74,2.83L180,224.84,177.22,222a1.87,1.87,0,0,1,0-2.6A1.79,1.79,0,0,1,179.78,219.53Zm5.39-5.2,2.73,2.82-2.56,2.49-2.73-2.83a1.85,1.85,0,0,1,0-2.6A1.8,1.8,0,0,1,185.17,214.32Z"/><path class="cls-20" d="M167.29,188.38c-1.59-2.4-5.51-8.61-6.06-12.33-.92-6.24-.26-12.16-1.31-14.87s-6.5-8-6.5-8-4.26-4.41-3.89-7.56l-2.83-3s.11-.35.18-.53L177,172.71A34.26,34.26,0,0,0,167.29,188.38Z"/><path class="cls-7" d="M184.91,180.69l-2-2.07-.36.34-.27.25-.75.73L178,176.36l.74-.73.27-.26.33-.3L177,172.71a34.1,34.1,0,0,0-9.8,15.6l.48.73s0,.48-.1,1.5,2.32,2.56,2.32,2.56l2.16,2.72a7.77,7.77,0,0,1,.36,2.29c-.05.47.62,1.31,1.23,2C174.68,193,178.69,186.08,184.91,180.69Zm-13.95,5,3.46,3.59a30.36,30.36,0,0,0-1.53,3.23l-3.47-3.59A29.63,29.63,0,0,1,171,185.65Zm4.21-6.15,3.46,3.59a38.25,38.25,0,0,0-2.56,3.44l-3.46-3.59A41.22,41.22,0,0,1,175.17,179.5Z"/><path class="cls-20" d="M208.17,228.39l12-12-2.67-2.71-.73.7-1.18,1.14-.84-.87-9.55-9.89s-.11-.12-.27-.34a4.7,4.7,0,0,1-1-3.29,3.47,3.47,0,0,1,.27-.89l-14.07-14.22-.82,4.42,4.11,4.15-2.14,12.42-1.56-1.61L192,195.31l-4.29-4.45,1.31-6-4.08-4.12c-6.22,5.38-10.23,12.31-11.22,19.38.41.44.79.8.94.93l.07.06h0L191,218l1.88,1.95,8,8.28,3.59,3.8Zm-.74-5-4.25-4.4L199,214.74s-1.78-1.95-.65-3.94a3.92,3.92,0,0,1,1.51-1.47c2-1.05,3.87.85,3.87.85l6.44,6.67,2,2Z"/><path class="cls-18" d="M414.67,128.5a28.14,28.14,0,0,0,4.06,1.51c-.09-.1-2.22-1.85-3.36-2.72l-.8,1.31Z"/><path class="cls-18" d="M415.43,125a29.88,29.88,0,0,0,3.68-2.21c-.84.1-4.14.9-4.57,1l0,0Z"/><polygon class="cls-18" points="415.45 126.95 419.92 126.98 415.42 125.56 415.4 125.86 415.45 126.95"/><polygon class="cls-21" points="415.65 125.66 415.62 125.65 415.64 125.96 415.65 125.66"/><path class="cls-18" d="M396.82,189.91s-9.7-5.2-9.63-5.29l-6.34-3.44L376.59,189l16,8.44Z"/><path class="cls-16" d="M382,181.92l6.35,3.44a5,5,0,0,1,1.52-1.17c.94-.44,7.79-14.44,7.79-14.44a6.16,6.16,0,0,1,1.84-1.17c.55,0,4.27-9.48,4.54-9.5s2,0,2.9,0,4.58-3.27,4.58-3.27a7,7,0,0,1,1.67-.4,7.48,7.48,0,0,0,2.91-1.66,1.87,1.87,0,0,0,.52-1.54l2.25-1.7-.06-.81-2.94-4.07-3,1.52a12.12,12.12,0,0,1-1.32-3.08c-.28-1.37,1.17-3.51,1.13-5.44a4.52,4.52,0,0,0-1.21-2.52c.17-1,.42-2.45.58-3a7.18,7.18,0,0,1,1.62-2.74,5,5,0,0,0,.82-1.7c.16-.12.25-.11.36-.2a9.83,9.83,0,0,0,.8-1.85,4.49,4.49,0,0,0-.13-1.93l-1-1.23c-.13-.13-.27-.24-.41-.36l-.94,1.71c.2.24.8.42,1,1a2.1,2.1,0,0,1-.13,1.69c-.17.16-1.1-1.86-1.26-2l0,0-.4.74c.17.45.34,1,.34,1s-.39-.13-.75-.21l-.68,1.24h0s.8.48.71.69-.76.82-1,.77-.12-.47,0-.87Zm33.63-35.41,2.45,3.45-1.58,1.2a2.32,2.32,0,0,0-1.39-.43,5.17,5.17,0,0,0-2.22,1.3,8.92,8.92,0,0,0-.46,1.25l-5.06,3.07-.29-.73,3-6.41Z"/><path class="cls-20" d="M413.4,101.42c.13-.26.4-.63.65-.64a1.58,1.58,0,0,0,1.47-.74c.37-.69.65-1.06.95-1.2a4.79,4.79,0,0,1,.87-.25l-1.74-.27,2.53-1.18a15,15,0,0,0-4.1-.58c-.9.15-1.64.53-2,2.08a3.91,3.91,0,0,0-.16,1.75l-.14-.06,2,1.31Z"/><path class="cls-20" d="M414,123.09l2.14-4.88-3.35,4.1,0,0,1.28.83Z"/><path class="cls-20" d="M406.56,121.71a6.71,6.71,0,0,0-.24,1c.5.42,1.26,1.12,1.26,1.12s0,0,0,.09l.68-1.14A16.61,16.61,0,0,0,406.56,121.71Z"/><path class="cls-20" d="M410.56,117.13c-.07-.23-.37,4.51-.37,4.51h0l1.64.34C411.74,121.7,410.64,117.35,410.56,117.13Z"/><path class="cls-20" d="M407.61,119.77l-.48.48,1.46,2.2,1-.54Z"/><path class="cls-5" d="M411,128.82c.07-.34.18-.63.32-.59L412,127a1.19,1.19,0,0,0-.5,0c-.21.08-.63,1.09-.75,1.25a.3.3,0,0,1-.45.09,1.71,1.71,0,0,0-.46-.16l0,.57-.13.23a.76.76,0,0,1-.27-.11.37.37,0,0,0-.46.1c-.11.07.25.17.43.27s.11.38.11.38l-.38.68c-.11.2-.27.14-.49,0s-.93-.61-.94-1.19a3.54,3.54,0,0,1,.79-1.81,4.06,4.06,0,0,1,1.47,0c.17,0,.47-.37.55-.63s-.56-.8-.56-.8c-.17-.57,1.9-.39,2.09-.22a2.17,2.17,0,0,1,.32.64l.4-.74c-.18-.15-.69-.72-1.17-.72s-2.06.22-2.62.29-.07-1.06-.07-1.06a4,4,0,0,1,2.86-.22,3.85,3.85,0,0,1,1.34,1l0,0,.94-1.71c-.09-.08-2.41-1.67-3.87-1.47-.65.1-2.56,1.05-2.78,2.43,0,.11,0,.11,0,.18,0,.25,0,.62,0,.89a5.28,5.28,0,0,0-.66,2l-1.26,1.81a2.27,2.27,0,0,1-.62-1,4.83,4.83,0,0,1,0-2.94,5.81,5.81,0,0,0,.68-2.41,11.84,11.84,0,0,1,.53-2.22,7.82,7.82,0,0,1,.34-.8l.17-.3,0,0,.2-.37c1.07-2.09,1.54-6.35,1.94-7.08s1.22-2.34,2-3.51a4.07,4.07,0,0,0,.33-2.77,3.2,3.2,0,0,1,.87-.46.9.9,0,0,0,.46-.43c1,.3,1.72.3,1.93-.07a.53.53,0,0,0,0-.43l.44-.8a.54.54,0,0,0,.37-.24c.24-.42-.33-1.2-1.3-1.94l-2-1.19c-1.27-.54-2.36-.64-2.61-.19a.52.52,0,0,0,0,.4l-.47.85a.53.53,0,0,0-.32.23c-.18.33.12.87.7,1.45a1.88,1.88,0,0,0-.17,1.27h0a3.84,3.84,0,0,0-1.32,1.43,3.7,3.7,0,0,0-.49,2.43,8.14,8.14,0,0,1-.56,1.16,7.48,7.48,0,0,0-.48,2.42,17.19,17.19,0,0,1-1.7,3.2,25.66,25.66,0,0,0-2.25,6.21,40.11,40.11,0,0,0-3.39,2.36c-1.69,1.31-.84,4.92-.84,4.92a39.06,39.06,0,0,1-1.55,6.33c-.75,1.67-7.12,14.31-8.93,16.77S380.53,162,380,163.08s-2.27,6-4.55,9.27c-.89,1.29-1.9,3-2.82,4.51l9.35,5.07Z"/><polygon class="cls-20" points="381.98 181.93 365.85 173.03 361.75 181.15 377.78 189.62 381.98 181.93"/><path class="cls-8" d="M320.36,165.86c81.79,0,148.33,66.54,148.33,148.33S402.15,462.53,320.36,462.53,172,396,172,314.19,238.56,165.86,320.36,165.86Zm0,280.86c73.07,0,132.52-59.45,132.52-132.52S393.43,181.67,320.36,181.67,187.83,241.12,187.83,314.19,247.28,446.72,320.36,446.72Z"/><path class="cls-11" d="M320.36,176.4c76,0,137.79,61.81,137.79,137.79S396.34,452,320.36,452,182.56,390.17,182.56,314.19,244.38,176.4,320.36,176.4Zm0,265.8a128,128,0,1,0-128-128A128.15,128.15,0,0,0,320.36,442.2Z"/></g></g></g></svg>