<svg xmlns="http://www.w3.org/2000/svg" viewBox="0 0 28.27 24"><defs><style>.cls-1{fill:#ff0;}</style></defs><title>关注</title><g id="图层_2" data-name="图层 2"><g id="图层_1-2" data-name="图层 1"><path class="cls-1" d="M28.27,7.2c0,2.4-1.07,4.8-3.47,7.2l-9.87,9.33a1,1,0,0,1-.8.27,1,1,0,0,1-.8-.27L3.47,14.4l-.53-.53a3.68,3.68,0,0,1-.8-1.07c-.27-.53-.8-1.07-1.07-1.6a13,13,0,0,1-.8-1.87A5.87,5.87,0,0,1,0,7.2c0-2.4.53-4,1.87-5.33S5.07,0,7.47,0A4.54,4.54,0,0,1,9.33.27a13,13,0,0,1,1.87.8c.53.27,1.07.8,1.6,1.07s.8.8,1.07,1.07l1.07-1.07c.53-.27.8-.8,1.6-1.07A5.65,5.65,0,0,1,18.4.27c.53,0,1.33-.27,1.87-.27,2.4,0,4.27.53,5.6,1.87A7.19,7.19,0,0,1,28.27,7.2Zm-2.13,0a5.2,5.2,0,0,0-.27-2.13l-.8-1.6A5.82,5.82,0,0,0,23.73,2.4a3.79,3.79,0,0,0-1.6-.53h-1.6a6.78,6.78,0,0,0-1.87.53A6.68,6.68,0,0,0,16.8,3.47c-.53.53-1.07.8-1.33,1.07L14.4,5.6a1,1,0,0,1-.8.27,1,1,0,0,1-.8-.27L11.73,4.53A5.82,5.82,0,0,0,10.4,3.47,4.3,4.3,0,0,0,8.53,2.4a4.94,4.94,0,0,0-1.87-.53H5.07a3.79,3.79,0,0,0-1.6.53A4.68,4.68,0,0,0,2.13,3.47a4.34,4.34,0,0,0-.8,1.6A5.87,5.87,0,0,0,1.07,7.2c0,1.87,1.07,3.73,2.93,5.6l9.07,8.8,9.07-8.8C25.07,10.67,26.13,8.8,26.13,7.2Z"/></g></g></svg>